<svg xmlns="http://www.w3.org/2000/svg" xmlns:xlink="http://www.w3.org/1999/xlink" width="500" zoomAndPan="magnify" viewBox="0 0 375 374.999991" height="500" preserveAspectRatio="xMidYMid meet" version="1.0"><defs><clipPath id="5b83576825"><path d="M 208 201 L 217 201 L 217 302.25 L 208 302.25 Z M 208 201 " clip-rule="nonzero"/></clipPath><clipPath id="d2a4741f56"><path d="M 212.429688 302.035156 C 212.0625 302 211.71875 301.902344 211.390625 301.734375 C 211.066406 301.5625 210.785156 301.339844 210.546875 301.058594 C 210.308594 300.78125 210.132812 300.46875 210.019531 300.117188 C 209.90625 299.769531 209.863281 299.414062 209.890625 299.046875 L 208.363281 204.882812 C 208.328125 203.960938 208.628906 203.164062 209.253906 202.492188 C 209.703125 202.019531 210.25 201.78125 210.902344 201.773438 L 213.957031 201.773438 C 214.605469 201.78125 215.152344 202.023438 215.597656 202.492188 C 216.222656 203.164062 216.523438 203.960938 216.488281 204.882812 L 214.964844 299.046875 C 214.988281 299.414062 214.945312 299.769531 214.832031 300.117188 C 214.71875 300.464844 214.542969 300.777344 214.304688 301.058594 C 214.070312 301.335938 213.789062 301.5625 213.460938 301.730469 C 213.136719 301.898438 212.792969 302 212.429688 302.035156 Z M 210.90625 203.589844 C 210.765625 203.597656 210.648438 203.65625 210.554688 203.761719 C 210.285156 204.074219 210.160156 204.4375 210.179688 204.847656 L 211.710938 299.015625 C 211.722656 299.703125 212.101562 300.214844 212.433594 300.214844 C 212.761719 300.214844 213.144531 299.699219 213.15625 299.015625 L 214.679688 204.855469 C 214.699219 204.445312 214.574219 204.082031 214.304688 203.769531 C 214.214844 203.664062 214.097656 203.609375 213.960938 203.597656 Z M 210.90625 203.589844 " clip-rule="nonzero"/></clipPath><clipPath id="4a8d12e59f"><path d="M 85 201 L 94 201 L 94 302.25 L 85 302.25 Z M 85 201 " clip-rule="nonzero"/></clipPath><clipPath id="2e05f8a3f4"><path d="M 89.828125 302.234375 C 89.464844 302.199219 89.121094 302.097656 88.792969 301.929688 C 88.46875 301.761719 88.1875 301.539062 87.949219 301.257812 C 87.710938 300.980469 87.535156 300.664062 87.421875 300.316406 C 87.308594 299.96875 87.265625 299.613281 87.289062 299.246094 L 85.765625 205.082031 C 85.730469 204.160156 86.03125 203.363281 86.660156 202.691406 C 87.105469 202.21875 87.652344 201.980469 88.304688 201.972656 L 91.355469 201.972656 C 92.007812 201.980469 92.554688 202.21875 93.003906 202.691406 C 93.632812 203.363281 93.929688 204.160156 93.894531 205.082031 L 92.371094 299.246094 C 92.394531 299.613281 92.351562 299.96875 92.238281 300.316406 C 92.125 300.664062 91.949219 300.980469 91.710938 301.257812 C 91.472656 301.539062 91.191406 301.761719 90.867188 301.929688 C 90.539062 302.097656 90.195312 302.199219 89.828125 302.234375 Z M 88.300781 203.789062 C 88.160156 203.796875 88.042969 203.855469 87.949219 203.960938 C 87.679688 204.273438 87.554688 204.632812 87.578125 205.046875 L 89.105469 299.210938 C 89.117188 299.902344 89.496094 300.414062 89.828125 300.414062 C 90.160156 300.414062 90.542969 299.894531 90.550781 299.210938 L 92.078125 205.046875 C 92.101562 204.632812 91.976562 204.273438 91.707031 203.960938 C 91.613281 203.855469 91.496094 203.796875 91.355469 203.789062 Z M 88.300781 203.789062 " clip-rule="nonzero"/></clipPath></defs><path fill="#e39eff" d="M 32.078125 300.640625 L 343.136719 301.617188 C 343.136719 301.617188 361.378906 262.863281 347.371094 226.714844 C 333.367188 190.566406 315.449219 192.519531 279.949219 184.050781 C 244.449219 175.582031 283.207031 130.316406 274.082031 94.167969 C 264.957031 58.019531 224.578125 37.5 178.652344 60.625 C 132.726562 83.75 149.992188 149.53125 75.074219 163.535156 C 0.15625 177.539062 32.078125 300.640625 32.078125 300.640625 Z M 32.078125 300.640625 " fill-opacity="0.2078" fill-rule="nonzero"/><path fill="#5028af" d="M 182.027344 262.4375 C 181.835938 287.125 222.625 290.804688 260.75 286.613281 C 266.011719 286.105469 270.960938 284.589844 275.605469 282.070312 C 298.203125 269.527344 296.507812 236.953125 296.507812 236.953125 C 296.507812 236.953125 303.503906 176.976562 259.425781 176.636719 C 215.347656 176.292969 217.101562 230.734375 217.101562 230.734375 C 190.976562 231.089844 182.203125 240 182.027344 262.4375 Z M 182.027344 262.4375 " fill-opacity="1" fill-rule="nonzero"/><path fill="#e39eff" d="M 182.027344 262.4375 C 181.835938 287.125 222.625 290.804688 260.75 286.613281 C 266.011719 286.105469 270.960938 284.589844 275.605469 282.070312 C 277.464844 272.402344 278.929688 257.355469 273.585938 245.753906 C 265.019531 227.175781 217.101562 230.734375 217.101562 230.734375 C 190.976562 231.089844 182.203125 240 182.027344 262.4375 Z M 182.027344 262.4375 " fill-opacity="1" fill-rule="nonzero"/><path fill="#5028af" d="M 131.539062 285.96875 L 152.765625 298.898438 C 152.894531 298.980469 153.035156 299.03125 153.1875 299.054688 C 153.335938 299.078125 153.488281 299.070312 153.636719 299.035156 C 153.785156 299 153.921875 298.9375 154.042969 298.84375 C 154.167969 298.753906 154.269531 298.644531 154.347656 298.515625 L 159.285156 290.40625 C 159.53125 290.003906 159.691406 289.570312 159.761719 289.105469 C 159.835938 288.640625 159.816406 288.179688 159.703125 287.722656 C 159.59375 287.265625 159.398438 286.847656 159.121094 286.46875 C 158.84375 286.085938 158.503906 285.777344 158.101562 285.53125 L 150.359375 280.8125 C 148.917969 279.917969 147.378906 279.234375 145.746094 278.765625 C 144.40625 278.367188 143.035156 278.203125 141.636719 278.265625 C 140.238281 278.328125 138.890625 278.617188 137.589844 279.132812 C 135.964844 279.792969 134.523438 280.726562 133.261719 281.9375 C 132.492188 282.667969 131.800781 283.464844 131.183594 284.328125 C 131.09375 284.460938 131.035156 284.605469 131.003906 284.757812 C 130.972656 284.914062 130.972656 285.070312 131.003906 285.226562 C 131.039062 285.382812 131.101562 285.523438 131.195312 285.652344 C 131.289062 285.78125 131.402344 285.886719 131.539062 285.96875 Z M 131.539062 285.96875 " fill-opacity="1" fill-rule="nonzero"/><path fill="#ffffff" d="M 131.539062 285.96875 L 152.765625 298.898438 C 152.894531 298.980469 153.035156 299.03125 153.1875 299.054688 C 153.335938 299.078125 153.488281 299.070312 153.636719 299.035156 C 153.785156 299 153.921875 298.9375 154.042969 298.84375 C 154.167969 298.753906 154.269531 298.644531 154.347656 298.515625 L 156.003906 295.796875 L 133.261719 281.941406 C 132.492188 282.671875 131.800781 283.46875 131.183594 284.332031 C 131.09375 284.464844 131.035156 284.605469 131.003906 284.761719 C 130.972656 284.917969 130.972656 285.074219 131.007812 285.226562 C 131.042969 285.382812 131.105469 285.523438 131.195312 285.652344 C 131.289062 285.78125 131.402344 285.886719 131.539062 285.96875 Z M 131.539062 285.96875 " fill-opacity="0.1686" fill-rule="nonzero"/><path fill="#fdcd53" d="M 137.589844 279.136719 L 140.796875 285.148438 L 147.429688 284.113281 L 145.75 278.773438 C 144.410156 278.375 143.039062 278.207031 141.640625 278.269531 C 140.242188 278.332031 138.894531 278.621094 137.589844 279.136719 Z M 137.589844 279.136719 " fill-opacity="1" fill-rule="nonzero"/><path fill="#e39eff" d="M 153.960938 275.992188 L 150.371094 281.28125 C 150.1875 281.554688 150.03125 281.847656 149.902344 282.152344 C 149.777344 282.457031 149.679688 282.773438 149.617188 283.097656 C 149.554688 283.421875 149.527344 283.75 149.53125 284.082031 C 149.535156 284.414062 149.570312 284.738281 149.640625 285.0625 C 149.710938 285.386719 149.8125 285.699219 149.949219 286.003906 C 150.082031 286.304688 150.246094 286.589844 150.4375 286.859375 C 150.628906 287.128906 150.84375 287.378906 151.085938 287.605469 C 151.328125 287.828125 151.59375 288.027344 151.875 288.199219 C 152.386719 288.511719 152.933594 288.722656 153.519531 288.832031 C 154.105469 288.941406 154.695312 288.941406 155.28125 288.835938 C 155.871094 288.730469 156.417969 288.527344 156.929688 288.21875 C 157.445312 287.910156 157.882812 287.523438 158.253906 287.054688 L 162.242188 282.007812 C 162.457031 281.734375 162.640625 281.445312 162.792969 281.132812 C 162.945312 280.824219 163.0625 280.5 163.148438 280.164062 C 163.230469 279.832031 163.28125 279.488281 163.292969 279.144531 C 163.304688 278.796875 163.277344 278.453125 163.21875 278.113281 C 163.15625 277.773438 163.058594 277.445312 162.929688 277.125 C 162.796875 276.804688 162.632812 276.5 162.4375 276.214844 C 162.242188 275.929688 162.019531 275.667969 161.769531 275.429688 C 161.515625 275.191406 161.242188 274.984375 160.949219 274.804688 L 160.546875 274.558594 C 160.28125 274.398438 160.003906 274.261719 159.714844 274.15625 C 159.421875 274.046875 159.125 273.964844 158.816406 273.914062 C 158.511719 273.863281 158.203125 273.839844 157.890625 273.847656 C 157.578125 273.855469 157.273438 273.890625 156.96875 273.957031 C 156.664062 274.023438 156.371094 274.117188 156.082031 274.242188 C 155.796875 274.363281 155.527344 274.511719 155.269531 274.683594 C 155.011719 274.859375 154.773438 275.054688 154.550781 275.273438 C 154.332031 275.496094 154.136719 275.734375 153.960938 275.992188 Z M 153.960938 275.992188 " fill-opacity="1" fill-rule="nonzero"/><path fill="#5028af" d="M 167.726562 301.34375 L 192.582031 301.34375 C 192.734375 301.34375 192.882812 301.3125 193.023438 301.253906 C 193.164062 301.195312 193.289062 301.113281 193.398438 301.003906 C 193.507812 300.898438 193.589844 300.773438 193.648438 300.632812 C 193.707031 300.488281 193.734375 300.34375 193.734375 300.191406 L 193.734375 290.699219 C 193.734375 290.230469 193.644531 289.777344 193.464844 289.34375 C 193.285156 288.910156 193.027344 288.523438 192.695312 288.191406 C 192.363281 287.859375 191.980469 287.601562 191.546875 287.421875 C 191.109375 287.242188 190.65625 287.152344 190.1875 287.152344 L 181.121094 287.152344 C 179.421875 287.136719 177.753906 287.355469 176.113281 287.804688 C 174.761719 288.160156 173.503906 288.730469 172.34375 289.511719 C 171.183594 290.292969 170.179688 291.242188 169.335938 292.359375 C 168.296875 293.765625 167.550781 295.316406 167.101562 297.007812 C 166.824219 298.03125 166.648438 299.070312 166.574219 300.128906 C 166.566406 300.289062 166.585938 300.441406 166.640625 300.589844 C 166.695312 300.738281 166.777344 300.871094 166.886719 300.984375 C 166.996094 301.101562 167.125 301.1875 167.269531 301.25 C 167.414062 301.3125 167.566406 301.34375 167.726562 301.34375 Z M 167.726562 301.34375 " fill-opacity="1" fill-rule="nonzero"/><path fill="#ffffff" d="M 167.726562 301.34375 L 192.582031 301.34375 C 192.734375 301.34375 192.882812 301.3125 193.023438 301.253906 C 193.164062 301.195312 193.289062 301.113281 193.398438 301.003906 C 193.507812 300.898438 193.589844 300.773438 193.648438 300.632812 C 193.707031 300.488281 193.734375 300.34375 193.734375 300.191406 L 193.734375 297.003906 L 167.105469 297.003906 C 166.824219 298.027344 166.648438 299.070312 166.574219 300.128906 C 166.566406 300.285156 166.589844 300.441406 166.644531 300.589844 C 166.695312 300.738281 166.777344 300.871094 166.886719 300.984375 C 166.996094 301.097656 167.125 301.1875 167.269531 301.25 C 167.414062 301.3125 167.566406 301.34375 167.726562 301.34375 Z M 167.726562 301.34375 " fill-opacity="0.1686" fill-rule="nonzero"/><path fill="#fdcd53" d="M 169.339844 292.359375 L 175.207031 295.824219 L 180.332031 291.488281 L 176.117188 287.800781 C 174.765625 288.160156 173.507812 288.730469 172.34375 289.511719 C 171.183594 290.292969 170.183594 291.242188 169.339844 292.359375 Z M 169.339844 292.359375 " fill-opacity="1" fill-rule="nonzero"/><path fill="#e39eff" d="M 181.679688 281.15625 L 181.371094 287.542969 C 181.351562 287.871094 181.371094 288.199219 181.421875 288.527344 C 181.472656 288.855469 181.554688 289.175781 181.671875 289.484375 C 181.785156 289.792969 181.933594 290.089844 182.105469 290.371094 C 182.28125 290.652344 182.484375 290.910156 182.714844 291.152344 C 182.941406 291.390625 183.191406 291.605469 183.464844 291.792969 C 183.734375 291.984375 184.023438 292.140625 184.328125 292.273438 C 184.632812 292.402344 184.945312 292.5 185.269531 292.566406 C 185.59375 292.632812 185.921875 292.667969 186.253906 292.667969 C 186.851562 292.667969 187.425781 292.5625 187.984375 292.351562 C 188.542969 292.140625 189.046875 291.835938 189.492188 291.4375 C 189.941406 291.042969 190.304688 290.582031 190.582031 290.054688 C 190.859375 289.523438 191.03125 288.964844 191.105469 288.371094 L 191.882812 281.988281 C 191.921875 281.644531 191.929688 281.300781 191.898438 280.957031 C 191.867188 280.613281 191.800781 280.273438 191.695312 279.945312 C 191.59375 279.613281 191.457031 279.296875 191.289062 278.996094 C 191.117188 278.695312 190.917969 278.414062 190.6875 278.15625 C 190.460938 277.898438 190.207031 277.664062 189.925781 277.460938 C 189.648438 277.253906 189.351562 277.082031 189.035156 276.9375 C 188.71875 276.796875 188.394531 276.691406 188.054688 276.617188 C 187.714844 276.542969 187.375 276.507812 187.027344 276.507812 L 186.5625 276.507812 C 186.25 276.507812 185.941406 276.539062 185.636719 276.597656 C 185.332031 276.65625 185.035156 276.742188 184.746094 276.859375 C 184.457031 276.972656 184.183594 277.117188 183.921875 277.285156 C 183.660156 277.453125 183.417969 277.644531 183.191406 277.859375 C 182.964844 278.070312 182.765625 278.304688 182.582031 278.558594 C 182.402344 278.8125 182.246094 279.078125 182.117188 279.363281 C 181.988281 279.644531 181.886719 279.9375 181.8125 280.238281 C 181.742188 280.542969 181.695312 280.847656 181.679688 281.15625 Z M 181.679688 281.15625 " fill-opacity="1" fill-rule="nonzero"/><path fill="#e39eff" d="M 175.15625 186.703125 L 187.417969 186.703125 L 187.417969 194.785156 L 172.207031 194.785156 L 172.207031 189.652344 C 172.207031 189.261719 172.28125 188.886719 172.429688 188.523438 C 172.582031 188.164062 172.792969 187.84375 173.070312 187.566406 C 173.347656 187.289062 173.664062 187.078125 174.027344 186.925781 C 174.386719 186.777344 174.765625 186.703125 175.15625 186.703125 Z M 175.15625 186.703125 " fill-opacity="1" fill-rule="nonzero"/><path fill="#5028af" d="M 219.746094 194.785156 L 182.664062 194.785156 L 182.664062 184.324219 L 212.140625 184.324219 C 212.140625 184.324219 215.601562 174.34375 220.261719 167.980469 C 222.726562 164.628906 230.207031 186.703125 219.746094 194.785156 Z M 219.746094 194.785156 " fill-opacity="1" fill-rule="nonzero"/><path fill="#6530cb" d="M 241.617188 164.363281 L 253.976562 167.214844 L 251.601562 212.847656 L 221.171875 212.847656 L 219.746094 168.164062 L 230.679688 164.363281 Z M 241.617188 164.363281 " fill-opacity="1" fill-rule="nonzero"/><path fill="#e39eff" d="M 200.828125 190.980469 L 213.089844 190.980469 L 213.089844 199.0625 L 197.875 199.0625 L 197.875 193.929688 C 197.875 193.539062 197.953125 193.164062 198.101562 192.800781 C 198.25 192.441406 198.464844 192.121094 198.742188 191.84375 C 199.019531 191.566406 199.335938 191.355469 199.699219 191.203125 C 200.0625 191.054688 200.4375 190.980469 200.828125 190.980469 Z M 200.828125 190.980469 " fill-opacity="1" fill-rule="nonzero"/><path fill="#e39eff" d="M 236.355469 169.289062 C 236.058594 169.289062 235.765625 169.257812 235.472656 169.203125 C 235.179688 169.144531 234.898438 169.058594 234.621094 168.941406 C 234.347656 168.828125 234.085938 168.691406 233.835938 168.523438 C 233.589844 168.359375 233.363281 168.171875 233.152344 167.960938 C 232.941406 167.75 232.753906 167.519531 232.585938 167.273438 C 232.421875 167.027344 232.28125 166.765625 232.167969 166.488281 C 232.054688 166.214844 231.96875 165.929688 231.910156 165.640625 C 231.851562 165.347656 231.824219 165.054688 231.824219 164.753906 L 231.824219 155.296875 C 231.824219 154.996094 231.851562 154.703125 231.910156 154.410156 C 231.96875 154.117188 232.054688 153.835938 232.167969 153.558594 C 232.28125 153.285156 232.421875 153.023438 232.585938 152.777344 C 232.75 152.527344 232.941406 152.300781 233.148438 152.089844 C 233.359375 151.878906 233.589844 151.691406 233.835938 151.523438 C 234.085938 151.359375 234.347656 151.21875 234.621094 151.105469 C 234.894531 150.992188 235.179688 150.90625 235.472656 150.847656 C 235.765625 150.789062 236.058594 150.761719 236.355469 150.761719 C 236.65625 150.761719 236.949219 150.789062 237.242188 150.847656 C 237.535156 150.90625 237.816406 150.992188 238.09375 151.105469 C 238.367188 151.222656 238.628906 151.359375 238.875 151.527344 C 239.125 151.691406 239.351562 151.878906 239.5625 152.089844 C 239.773438 152.300781 239.960938 152.527344 240.125 152.777344 C 240.292969 153.023438 240.433594 153.285156 240.546875 153.558594 C 240.660156 153.835938 240.746094 154.117188 240.804688 154.410156 C 240.863281 154.703125 240.890625 154.996094 240.890625 155.296875 L 240.890625 164.753906 C 240.890625 165.054688 240.863281 165.347656 240.804688 165.640625 C 240.746094 165.929688 240.660156 166.214844 240.546875 166.488281 C 240.433594 166.765625 240.292969 167.027344 240.125 167.273438 C 239.960938 167.519531 239.773438 167.75 239.5625 167.960938 C 239.351562 168.171875 239.125 168.359375 238.875 168.523438 C 238.628906 168.691406 238.367188 168.828125 238.09375 168.941406 C 237.816406 169.058594 237.535156 169.144531 237.242188 169.203125 C 236.949219 169.257812 236.65625 169.289062 236.355469 169.289062 Z M 236.355469 169.289062 " fill-opacity="1" fill-rule="nonzero"/><path fill="#e39eff" d="M 242.070312 143.46875 L 242.070312 153.71875 C 242.070312 154.234375 242.019531 154.75 241.921875 155.257812 C 241.820312 155.765625 241.667969 156.257812 241.472656 156.734375 C 241.273438 157.214844 241.03125 157.667969 240.742188 158.097656 C 240.457031 158.527344 240.128906 158.925781 239.761719 159.292969 C 239.394531 159.660156 239 159.984375 238.566406 160.273438 C 238.136719 160.5625 237.683594 160.804688 237.203125 161 C 236.726562 161.199219 236.234375 161.347656 235.726562 161.449219 C 235.21875 161.550781 234.703125 161.601562 234.1875 161.601562 C 233.667969 161.601562 233.15625 161.550781 232.648438 161.449219 C 232.140625 161.347656 231.648438 161.199219 231.167969 161 C 230.691406 160.804688 230.238281 160.5625 229.804688 160.273438 C 229.375 159.984375 228.976562 159.660156 228.613281 159.292969 C 228.246094 158.925781 227.917969 158.527344 227.628906 158.097656 C 227.34375 157.667969 227.101562 157.214844 226.902344 156.734375 C 226.703125 156.257812 226.554688 155.765625 226.453125 155.257812 C 226.351562 154.75 226.300781 154.234375 226.300781 153.71875 L 226.300781 143.46875 C 226.300781 142.953125 226.351562 142.4375 226.453125 141.929688 C 226.554688 141.421875 226.703125 140.929688 226.902344 140.453125 C 227.101562 139.972656 227.34375 139.519531 227.628906 139.089844 C 227.917969 138.660156 228.246094 138.261719 228.613281 137.894531 C 228.976562 137.527344 229.375 137.203125 229.804688 136.914062 C 230.238281 136.625 230.691406 136.382812 231.167969 136.183594 C 231.648438 135.988281 232.140625 135.835938 232.648438 135.738281 C 233.15625 135.636719 233.667969 135.585938 234.1875 135.585938 C 234.703125 135.585938 235.21875 135.636719 235.726562 135.738281 C 236.234375 135.835938 236.726562 135.988281 237.203125 136.183594 C 237.683594 136.382812 238.136719 136.625 238.566406 136.914062 C 239 137.203125 239.394531 137.527344 239.761719 137.894531 C 240.128906 138.261719 240.457031 138.660156 240.742188 139.089844 C 241.03125 139.519531 241.273438 139.972656 241.472656 140.453125 C 241.667969 140.929688 241.820312 141.421875 241.921875 141.929688 C 242.019531 142.4375 242.070312 142.953125 242.070312 143.46875 Z M 242.070312 143.46875 " fill-opacity="1" fill-rule="nonzero"/><path fill="#3d0f5b" d="M 238.917969 150.957031 C 238.917969 150.957031 238.128906 146.234375 238.128906 146.230469 C 238.128906 146.871094 232.449219 147.804688 231.828125 147.886719 C 227.425781 148.476562 221.472656 147.117188 220.78125 141.851562 C 219.992188 135.792969 224.621094 130.386719 230.839844 131.175781 C 234.722656 131.667969 238.90625 134.21875 240.300781 137.984375 C 240.390625 138.320312 240.550781 138.625 240.773438 138.894531 C 241.4375 139.542969 243.15625 139.230469 244.066406 140.011719 C 244.621094 140.574219 245.035156 141.222656 245.304688 141.964844 C 245.578125 142.707031 245.679688 143.46875 245.621094 144.257812 C 245.621094 150.171875 245.226562 150.957031 245.226562 150.957031 Z M 238.917969 150.957031 " fill-opacity="1" fill-rule="nonzero"/><path fill="#e39eff" d="M 245.226562 151.746094 C 245.226562 152.164062 245.144531 152.566406 244.984375 152.953125 C 244.824219 153.339844 244.597656 153.683594 244.300781 153.976562 C 244.007812 154.273438 243.664062 154.5 243.277344 154.660156 C 242.890625 154.820312 242.488281 154.902344 242.070312 154.902344 C 241.652344 154.902344 241.25 154.820312 240.863281 154.660156 C 240.476562 154.5 240.136719 154.273438 239.839844 153.976562 C 239.542969 153.683594 239.316406 153.339844 239.15625 152.953125 C 238.996094 152.570312 238.917969 152.167969 238.917969 151.746094 C 238.917969 151.328125 238.996094 150.925781 239.15625 150.539062 C 239.316406 150.15625 239.546875 149.8125 239.839844 149.515625 C 240.136719 149.222656 240.476562 148.992188 240.863281 148.832031 C 241.25 148.675781 241.652344 148.59375 242.070312 148.59375 C 242.488281 148.59375 242.890625 148.675781 243.277344 148.835938 C 243.664062 148.992188 244.007812 149.222656 244.300781 149.515625 C 244.597656 149.8125 244.824219 150.152344 244.984375 150.539062 C 245.144531 150.925781 245.226562 151.328125 245.226562 151.746094 Z M 245.226562 151.746094 " fill-opacity="1" fill-rule="nonzero"/><path fill="#5028af" d="M 253.976562 167.214844 C 261.679688 169.023438 255.875 190.980469 245.417969 199.0625 L 208.335938 199.0625 L 208.335938 188.605469 L 237.8125 188.605469 C 237.8125 188.605469 245.894531 165.3125 253.976562 167.214844 Z M 253.976562 167.214844 " fill-opacity="1" fill-rule="nonzero"/><path fill="#f2ae00" d="M 226.300781 210.875 L 202.464844 213.144531 C 201.796875 213.210938 201.140625 213.324219 200.492188 213.492188 C 199.84375 213.664062 199.214844 213.882812 198.601562 214.152344 C 197.988281 214.421875 197.398438 214.738281 196.835938 215.101562 C 196.277344 215.464844 195.746094 215.871094 195.25 216.316406 C 194.75 216.765625 194.292969 217.25 193.871094 217.773438 C 193.453125 218.292969 193.078125 218.847656 192.746094 219.425781 C 192.414062 220.007812 192.132812 220.613281 191.898438 221.242188 C 191.664062 221.867188 191.480469 222.507812 191.347656 223.164062 L 179.386719 282.617188 L 193.972656 282.617188 L 208.5625 233.066406 L 227.878906 233.011719 C 228.601562 233.007812 229.324219 232.972656 230.046875 232.898438 C 230.765625 232.824219 231.480469 232.71875 232.191406 232.574219 C 232.898438 232.433594 233.601562 232.253906 234.292969 232.042969 C 234.984375 231.832031 235.664062 231.585938 236.332031 231.308594 C 237 231.03125 237.652344 230.71875 238.292969 230.375 C 238.929688 230.035156 239.546875 229.660156 240.148438 229.257812 C 240.75 228.855469 241.332031 228.425781 241.890625 227.964844 C 242.449219 227.503906 242.984375 227.019531 243.496094 226.503906 C 244.003906 225.992188 244.488281 225.457031 244.949219 224.898438 C 245.40625 224.335938 245.835938 223.753906 246.238281 223.152344 C 246.640625 222.550781 247.011719 221.929688 247.351562 221.292969 C 247.691406 220.652344 248 220 248.277344 219.332031 C 248.554688 218.664062 248.796875 217.980469 249.007812 217.289062 C 249.21875 216.597656 249.390625 215.894531 249.53125 215.1875 C 249.675781 214.476562 249.78125 213.761719 249.851562 213.039062 C 249.921875 212.320312 249.957031 211.597656 249.957031 210.875 Z M 226.300781 210.875 " fill-opacity="1" fill-rule="nonzero"/><path fill="#fdcd53" d="M 251.535156 210.875 C 251.535156 210.875 257.054688 232.554688 241.285156 232.949219 C 225.511719 233.34375 197.523438 232.949219 197.523438 232.949219 L 163.222656 282.617188 L 151 275.917969 L 184.378906 223.878906 C 184.894531 223.078125 185.488281 222.34375 186.164062 221.675781 C 186.839844 221.003906 187.582031 220.414062 188.386719 219.910156 C 189.195312 219.402344 190.046875 218.988281 190.941406 218.667969 C 191.839844 218.347656 192.757812 218.132812 193.703125 218.015625 Z M 251.535156 210.875 " fill-opacity="1" fill-rule="nonzero"/><path fill="#f9f9f9" d="M 158.214844 279.542969 C 158.1875 279.542969 158.164062 279.539062 158.140625 279.523438 C 158.054688 279.476562 158.039062 279.410156 158.085938 279.324219 L 158.449219 278.675781 C 158.496094 278.589844 158.5625 278.570312 158.648438 278.621094 C 158.734375 278.667969 158.753906 278.734375 158.707031 278.820312 L 158.34375 279.46875 C 158.316406 279.519531 158.273438 279.542969 158.214844 279.542969 Z M 160.839844 274.871094 C 160.785156 274.871094 160.742188 274.847656 160.710938 274.796875 C 160.683594 274.75 160.683594 274.699219 160.710938 274.652344 C 161.125 273.914062 161.582031 273.109375 162.074219 272.238281 C 162.125 272.152344 162.191406 272.136719 162.277344 272.183594 C 162.363281 272.230469 162.382812 272.296875 162.332031 272.382812 C 161.839844 273.253906 161.382812 274.0625 160.96875 274.800781 C 160.941406 274.847656 160.898438 274.875 160.839844 274.871094 Z M 164.480469 268.453125 C 164.453125 268.453125 164.429688 268.449219 164.40625 268.433594 C 164.320312 268.386719 164.300781 268.320312 164.351562 268.234375 L 165.722656 265.832031 C 165.769531 265.742188 165.835938 265.726562 165.921875 265.773438 C 166.007812 265.824219 166.027344 265.890625 165.980469 265.976562 L 164.609375 268.378906 C 164.582031 268.429688 164.535156 268.457031 164.480469 268.453125 Z M 168.140625 262.054688 C 168.113281 262.054688 168.089844 262.046875 168.066406 262.035156 C 167.980469 261.984375 167.960938 261.917969 168.011719 261.832031 C 168.464844 261.046875 168.921875 260.246094 169.390625 259.4375 C 169.441406 259.351562 169.507812 259.332031 169.59375 259.382812 C 169.679688 259.429688 169.699219 259.5 169.648438 259.582031 C 169.179688 260.390625 168.722656 261.191406 168.265625 261.980469 C 168.238281 262.03125 168.195312 262.054688 168.140625 262.054688 Z M 171.828125 255.671875 C 171.769531 255.671875 171.726562 255.648438 171.699219 255.597656 C 171.671875 255.546875 171.671875 255.5 171.699219 255.449219 C 172.160156 254.65625 172.625 253.859375 173.09375 253.058594 C 173.140625 252.972656 173.210938 252.957031 173.296875 253.003906 C 173.382812 253.054688 173.402344 253.125 173.351562 253.210938 C 172.886719 254.007812 172.421875 254.800781 171.960938 255.597656 C 171.929688 255.648438 171.886719 255.671875 171.828125 255.671875 Z M 175.550781 249.3125 C 175.492188 249.3125 175.453125 249.289062 175.421875 249.238281 C 175.394531 249.191406 175.394531 249.140625 175.425781 249.089844 C 175.894531 248.289062 176.367188 247.496094 176.832031 246.710938 C 176.882812 246.625 176.953125 246.609375 177.035156 246.660156 C 177.121094 246.710938 177.136719 246.777344 177.085938 246.859375 C 176.621094 247.648438 176.152344 248.441406 175.679688 249.242188 C 175.648438 249.289062 175.609375 249.316406 175.550781 249.316406 Z M 179.328125 242.984375 C 179.300781 242.984375 179.273438 242.976562 179.25 242.964844 C 179.164062 242.914062 179.148438 242.847656 179.199219 242.761719 C 179.6875 241.957031 180.164062 241.167969 180.636719 240.394531 C 180.683594 240.300781 180.753906 240.28125 180.84375 240.335938 C 180.933594 240.390625 180.949219 240.464844 180.890625 240.550781 C 180.417969 241.320312 179.941406 242.105469 179.453125 242.914062 C 179.425781 242.960938 179.382812 242.984375 179.328125 242.984375 Z M 183.183594 236.703125 C 183.125 236.703125 183.082031 236.675781 183.054688 236.625 C 183.027344 236.574219 183.027344 236.527344 183.058594 236.476562 C 183.578125 235.65625 184.074219 234.875 184.546875 234.140625 C 184.601562 234.058594 184.667969 234.042969 184.75 234.09375 C 184.835938 234.148438 184.847656 234.214844 184.796875 234.300781 C 184.320312 235.035156 183.824219 235.816406 183.3125 236.632812 C 183.28125 236.679688 183.238281 236.703125 183.183594 236.703125 Z M 187.234375 230.539062 C 187.175781 230.539062 187.128906 230.511719 187.101562 230.457031 C 187.074219 230.40625 187.078125 230.355469 187.113281 230.304688 C 187.789062 229.347656 188.355469 228.601562 188.800781 228.089844 C 188.863281 228.015625 188.933594 228.007812 189.007812 228.074219 C 189.082031 228.136719 189.089844 228.207031 189.023438 228.28125 C 188.585938 228.785156 188.023438 229.523438 187.355469 230.476562 C 187.324219 230.515625 187.285156 230.535156 187.234375 230.535156 Z M 192.753906 225.929688 C 192.671875 225.929688 192.621094 225.886719 192.609375 225.804688 C 192.597656 225.71875 192.632812 225.664062 192.710938 225.640625 C 193.605469 225.382812 194.515625 225.203125 195.441406 225.109375 C 195.539062 225.101562 195.59375 225.144531 195.605469 225.238281 C 195.617188 225.335938 195.574219 225.390625 195.476562 225.402344 C 194.570312 225.496094 193.675781 225.667969 192.800781 225.921875 C 192.785156 225.925781 192.769531 225.929688 192.753906 225.929688 Z M 208.671875 225.183594 L 207.394531 225.183594 C 207.304688 225.175781 207.257812 225.125 207.257812 225.035156 C 207.257812 224.941406 207.304688 224.894531 207.394531 224.886719 L 208.464844 224.886719 C 209.011719 224.886719 209.574219 224.886719 210.152344 224.886719 C 210.246094 224.894531 210.289062 224.941406 210.289062 225.035156 C 210.289062 225.125 210.246094 225.175781 210.152344 225.183594 C 209.648438 225.179688 209.152344 225.179688 208.667969 225.179688 Z M 200.042969 225.171875 C 199.953125 225.164062 199.90625 225.113281 199.90625 225.023438 C 199.90625 224.933594 199.953125 224.882812 200.042969 224.875 C 200.667969 224.867188 201.324219 224.863281 202.011719 224.863281 L 202.804688 224.863281 C 202.902344 224.863281 202.953125 224.914062 202.953125 225.011719 C 202.953125 225.109375 202.902344 225.160156 202.804688 225.160156 L 202.011719 225.160156 C 201.324219 225.160156 200.667969 225.164062 200.046875 225.171875 Z M 214.75 225.125 C 214.660156 225.117188 214.613281 225.070312 214.613281 224.976562 C 214.613281 224.886719 214.660156 224.835938 214.75 224.828125 C 215.636719 224.8125 216.558594 224.789062 217.511719 224.761719 C 217.601562 224.765625 217.652344 224.8125 217.652344 224.90625 C 217.65625 224.996094 217.609375 225.046875 217.519531 225.058594 C 216.566406 225.085938 215.644531 225.109375 214.757812 225.125 Z M 222.097656 224.886719 C 222.003906 224.886719 221.957031 224.839844 221.953125 224.746094 C 221.949219 224.644531 221.996094 224.59375 222.09375 224.589844 C 222.984375 224.550781 223.902344 224.503906 224.847656 224.449219 C 224.949219 224.4375 225.003906 224.484375 225.003906 224.589844 C 225.007812 224.6875 224.960938 224.738281 224.863281 224.746094 C 223.917969 224.796875 222.996094 224.84375 222.101562 224.886719 Z M 229.433594 224.421875 C 229.335938 224.425781 229.28125 224.378906 229.277344 224.28125 C 229.273438 224.183594 229.320312 224.128906 229.417969 224.125 C 230.363281 224.03125 231.28125 223.917969 232.148438 223.785156 C 232.246094 223.773438 232.300781 223.8125 232.316406 223.910156 C 232.332031 224.007812 232.289062 224.066406 232.191406 224.078125 C 231.320312 224.210938 230.394531 224.324219 229.449219 224.425781 Z M 236.660156 223.148438 C 236.578125 223.148438 236.527344 223.105469 236.515625 223.019531 C 236.503906 222.9375 236.539062 222.882812 236.621094 222.859375 C 237.503906 222.617188 238.371094 222.328125 239.21875 221.988281 C 239.3125 221.953125 239.375 221.980469 239.410156 222.070312 C 239.449219 222.164062 239.421875 222.226562 239.328125 222.261719 C 238.46875 222.605469 237.59375 222.898438 236.703125 223.144531 C 236.6875 223.144531 236.675781 223.144531 236.660156 223.144531 Z M 243.21875 219.976562 C 243.171875 219.976562 243.136719 219.960938 243.105469 219.925781 C 243.042969 219.851562 243.046875 219.78125 243.121094 219.71875 C 243.816406 219.132812 244.390625 218.445312 244.847656 217.65625 C 244.894531 217.570312 244.964844 217.550781 245.050781 217.597656 C 245.136719 217.648438 245.15625 217.714844 245.105469 217.800781 C 244.632812 218.617188 244.035156 219.332031 243.3125 219.941406 C 243.289062 219.964844 243.257812 219.976562 243.222656 219.976562 Z M 245.738281 213.4375 C 245.652344 213.4375 245.605469 213.394531 245.59375 213.3125 C 245.453125 212.414062 245.167969 211.5625 244.734375 210.761719 C 244.695312 210.675781 244.714844 210.613281 244.792969 210.566406 C 244.871094 210.519531 244.9375 210.535156 244.988281 210.609375 C 245.445312 211.441406 245.742188 212.328125 245.882812 213.265625 C 245.902344 213.367188 245.859375 213.421875 245.761719 213.4375 Z M 245.738281 213.4375 " fill-opacity="1" fill-rule="nonzero"/><path fill="#2d2d2d" d="M 232.558594 161.6875 C 232.375 161.6875 232.1875 161.675781 232 161.65625 C 228.90625 161.296875 227.214844 158.371094 227.144531 158.25 C 227.09375 158.152344 227.082031 158.054688 227.109375 157.949219 C 227.140625 157.84375 227.203125 157.765625 227.296875 157.710938 C 227.390625 157.65625 227.492188 157.644531 227.597656 157.675781 C 227.703125 157.703125 227.78125 157.765625 227.835938 157.859375 C 227.851562 157.886719 229.402344 160.5625 232.09375 160.871094 C 234.828125 161.183594 238.253906 158.558594 238.289062 158.53125 C 238.375 158.464844 238.472656 158.4375 238.582031 158.453125 C 238.6875 158.464844 238.773438 158.515625 238.839844 158.601562 C 238.910156 158.6875 238.933594 158.785156 238.921875 158.890625 C 238.910156 159 238.859375 159.085938 238.773438 159.152344 C 238.625 159.261719 235.472656 161.6875 232.558594 161.6875 Z M 232.558594 161.6875 " fill-opacity="1" fill-rule="nonzero"/><path fill="#2d2d2d" d="M 226.300781 154.113281 C 226.191406 154.113281 226.101562 154.074219 226.023438 153.996094 C 225.945312 153.917969 225.910156 153.824219 225.910156 153.71875 L 225.921875 145.828125 C 225.921875 145.71875 225.960938 145.625 226.039062 145.550781 C 226.113281 145.472656 226.207031 145.433594 226.316406 145.433594 C 226.425781 145.433594 226.519531 145.472656 226.59375 145.550781 C 226.671875 145.625 226.710938 145.71875 226.710938 145.828125 L 226.695312 153.71875 C 226.691406 153.828125 226.65625 153.917969 226.578125 153.996094 C 226.503906 154.074219 226.410156 154.113281 226.300781 154.113281 Z M 226.300781 154.113281 " fill-opacity="1" fill-rule="nonzero"/><path fill="#fdcd53" d="M 301.128906 136.75 C 300.09375 136.765625 299.070312 136.878906 298.054688 137.097656 C 297.042969 137.3125 296.058594 137.625 295.105469 138.035156 C 294.152344 138.445312 293.25 138.945312 292.394531 139.53125 C 291.539062 140.117188 290.75 140.78125 290.027344 141.523438 C 289.304688 142.265625 288.65625 143.070312 288.09375 143.941406 C 287.527344 144.808594 287.050781 145.722656 286.664062 146.6875 C 286.277344 147.648438 285.988281 148.640625 285.796875 149.65625 C 285.605469 150.675781 285.515625 151.703125 285.527344 152.742188 C 285.535156 153.777344 285.648438 154.804688 285.859375 155.816406 C 286.070312 156.832031 286.378906 157.816406 286.78125 158.769531 C 287.1875 159.726562 287.683594 160.632812 288.265625 161.488281 C 288.847656 162.347656 289.507812 163.136719 290.246094 163.867188 C 290.984375 164.59375 291.789062 165.242188 292.652344 165.8125 C 293.519531 166.382812 294.433594 166.863281 295.394531 167.253906 C 296.351562 167.644531 297.34375 167.9375 298.359375 168.136719 C 299.378906 168.332031 300.40625 168.425781 301.441406 168.421875 C 302.480469 168.417969 303.503906 168.3125 304.523438 168.105469 C 305.539062 167.898438 306.523438 167.59375 307.480469 167.195312 C 308.4375 166.792969 309.34375 166.304688 310.207031 165.726562 C 311.066406 165.148438 311.863281 164.492188 312.59375 163.757812 C 313.324219 163.019531 313.976562 162.222656 314.550781 161.359375 C 315.125 160.496094 315.609375 159.585938 316.007812 158.628906 C 316.402344 157.667969 316.699219 156.683594 316.902344 155.664062 C 317.105469 154.648438 317.203125 153.621094 317.203125 152.585938 C 317.199219 152.0625 317.171875 151.542969 317.117188 151.023438 C 317.0625 150.503906 316.980469 149.984375 316.875 149.472656 C 316.769531 148.960938 316.640625 148.457031 316.484375 147.957031 C 316.328125 147.460938 316.148438 146.96875 315.945312 146.488281 C 315.742188 146.007812 315.515625 145.539062 315.265625 145.078125 C 315.015625 144.621094 314.742188 144.171875 314.449219 143.742188 C 314.15625 143.308594 313.84375 142.890625 313.507812 142.492188 C 313.171875 142.089844 312.820312 141.703125 312.449219 141.339844 C 312.074219 140.972656 311.6875 140.625 311.28125 140.296875 C 310.875 139.96875 310.453125 139.660156 310.015625 139.371094 C 309.578125 139.085938 309.128906 138.820312 308.667969 138.578125 C 308.203125 138.335938 307.730469 138.113281 307.246094 137.917969 C 306.761719 137.722656 306.269531 137.550781 305.769531 137.402344 C 305.265625 137.253906 304.757812 137.128906 304.246094 137.03125 C 303.734375 136.933594 303.214844 136.863281 302.695312 136.8125 C 302.175781 136.765625 301.652344 136.746094 301.128906 136.75 Z M 301.128906 158.804688 C 300.722656 158.800781 300.320312 158.753906 299.921875 158.667969 C 299.523438 158.585938 299.136719 158.460938 298.765625 158.300781 C 298.390625 158.140625 298.035156 157.945312 297.699219 157.714844 C 297.363281 157.484375 297.054688 157.222656 296.769531 156.929688 C 296.484375 156.636719 296.230469 156.320312 296.007812 155.980469 C 295.785156 155.640625 295.601562 155.28125 295.449219 154.902344 C 295.296875 154.523438 295.183594 154.136719 295.109375 153.734375 C 295.03125 153.335938 294.996094 152.929688 295 152.523438 C 295.003906 152.117188 295.046875 151.714844 295.132812 151.316406 C 295.214844 150.917969 295.335938 150.53125 295.496094 150.15625 C 295.652344 149.78125 295.847656 149.425781 296.078125 149.085938 C 296.304688 148.75 296.566406 148.441406 296.855469 148.152344 C 297.144531 147.867188 297.460938 147.613281 297.800781 147.390625 C 298.140625 147.164062 298.5 146.976562 298.878906 146.824219 C 299.253906 146.667969 299.644531 146.554688 300.042969 146.476562 C 300.441406 146.398438 300.847656 146.363281 301.253906 146.363281 C 301.660156 146.367188 302.0625 146.40625 302.464844 146.488281 C 302.863281 146.570312 303.25 146.6875 303.625 146.847656 C 304 147.003906 304.359375 147.195312 304.695312 147.421875 C 305.035156 147.648438 305.347656 147.910156 305.632812 148.195312 C 305.921875 148.484375 306.175781 148.800781 306.402344 149.136719 C 306.628906 149.476562 306.820312 149.835938 306.976562 150.210938 C 307.128906 150.585938 307.246094 150.976562 307.328125 151.375 C 307.40625 151.773438 307.445312 152.175781 307.445312 152.585938 C 307.441406 152.996094 307.398438 153.402344 307.316406 153.804688 C 307.234375 154.210938 307.109375 154.601562 306.949219 154.980469 C 306.789062 155.359375 306.59375 155.71875 306.363281 156.058594 C 306.132812 156.398438 305.871094 156.714844 305.578125 157.003906 C 305.285156 157.292969 304.964844 157.550781 304.621094 157.777344 C 304.277344 158 303.914062 158.191406 303.535156 158.347656 C 303.152344 158.5 302.757812 158.617188 302.355469 158.695312 C 301.949219 158.773438 301.542969 158.808594 301.128906 158.804688 Z M 301.128906 158.804688 " fill-opacity="1" fill-rule="nonzero"/><path fill="#5028af" d="M 23.566406 219.328125 L 12.933594 240.707031 C 12.851562 240.871094 12.792969 241.042969 12.757812 241.222656 C 12.722656 241.398438 12.707031 241.582031 12.71875 241.761719 C 12.730469 241.945312 12.761719 242.121094 12.816406 242.292969 C 12.871094 242.46875 12.949219 242.632812 13.046875 242.785156 C 13.144531 242.9375 13.257812 243.078125 13.390625 243.203125 C 13.523438 243.328125 13.671875 243.433594 13.832031 243.519531 C 13.992188 243.605469 14.160156 243.671875 14.335938 243.714844 C 14.511719 243.757812 14.691406 243.78125 14.875 243.777344 L 36.578125 243.777344 C 36.761719 243.78125 36.941406 243.757812 37.121094 243.714844 C 37.296875 243.671875 37.46875 243.605469 37.628906 243.515625 C 37.789062 243.429688 37.9375 243.320312 38.070312 243.195312 C 38.203125 243.070312 38.316406 242.925781 38.414062 242.773438 C 38.511719 242.617188 38.585938 242.449219 38.640625 242.273438 C 38.695312 242.101562 38.726562 241.921875 38.734375 241.738281 C 38.742188 241.554688 38.726562 241.371094 38.6875 241.191406 C 38.648438 241.011719 38.585938 240.84375 38.503906 240.679688 L 27.4375 219.296875 C 27.246094 218.9375 26.976562 218.652344 26.625 218.441406 C 26.277344 218.234375 25.898438 218.128906 25.492188 218.132812 C 25.085938 218.136719 24.707031 218.246094 24.359375 218.460938 C 24.015625 218.675781 23.75 218.964844 23.566406 219.328125 Z M 23.566406 219.328125 " fill-opacity="1" fill-rule="nonzero"/><path fill="#e39eff" d="M 142.589844 83.394531 L 131.953125 104.773438 C 131.875 104.9375 131.816406 105.109375 131.78125 105.289062 C 131.742188 105.464844 131.730469 105.648438 131.742188 105.828125 C 131.75 106.011719 131.785156 106.1875 131.839844 106.359375 C 131.894531 106.535156 131.972656 106.699219 132.066406 106.851562 C 132.164062 107.003906 132.28125 107.144531 132.414062 107.269531 C 132.546875 107.394531 132.691406 107.5 132.851562 107.585938 C 133.011719 107.671875 133.179688 107.738281 133.359375 107.78125 C 133.535156 107.824219 133.714844 107.847656 133.894531 107.84375 L 155.601562 107.84375 C 155.78125 107.847656 155.964844 107.824219 156.140625 107.78125 C 156.320312 107.738281 156.488281 107.671875 156.652344 107.582031 C 156.8125 107.496094 156.957031 107.386719 157.089844 107.261719 C 157.226562 107.136719 157.339844 106.992188 157.4375 106.839844 C 157.535156 106.683594 157.609375 106.515625 157.664062 106.339844 C 157.71875 106.164062 157.75 105.988281 157.757812 105.804688 C 157.765625 105.621094 157.75 105.4375 157.710938 105.257812 C 157.671875 105.078125 157.609375 104.910156 157.527344 104.746094 L 146.453125 83.363281 C 146.265625 83.003906 145.996094 82.71875 145.644531 82.511719 C 145.296875 82.304688 144.917969 82.199219 144.511719 82.203125 C 144.105469 82.207031 143.730469 82.316406 143.382812 82.527344 C 143.039062 82.742188 142.773438 83.03125 142.589844 83.394531 Z M 142.589844 83.394531 " fill-opacity="1" fill-rule="nonzero"/><g clip-path="url(#5b83576825)"><g clip-path="url(#d2a4741f56)"><path fill="#35185b" d="M 208.328125 201.773438 L 208.328125 302.035156 L 216.523438 302.035156 L 216.523438 201.773438 Z M 208.328125 201.773438 " fill-opacity="1" fill-rule="nonzero"/></g></g><g clip-path="url(#4a8d12e59f)"><g clip-path="url(#2e05f8a3f4)"><path fill="#35185b" d="M 85.730469 201.972656 L 85.730469 302.234375 L 93.929688 302.234375 L 93.929688 201.972656 Z M 85.730469 201.972656 " fill-opacity="1" fill-rule="nonzero"/></g></g><path fill="#5028af" d="M 74.542969 198.226562 L 226.984375 198.226562 C 227.203125 198.226562 227.390625 198.304688 227.546875 198.460938 C 227.703125 198.617188 227.78125 198.804688 227.78125 199.023438 L 227.78125 207.613281 C 227.78125 207.835938 227.703125 208.023438 227.546875 208.175781 C 227.390625 208.332031 227.203125 208.410156 226.984375 208.410156 L 74.542969 208.410156 C 74.320312 208.410156 74.132812 208.332031 73.980469 208.175781 C 73.824219 208.023438 73.746094 207.835938 73.746094 207.613281 L 73.746094 199.023438 C 73.746094 198.804688 73.824219 198.617188 73.980469 198.460938 C 74.132812 198.304688 74.320312 198.226562 74.542969 198.226562 Z M 74.542969 198.226562 " fill-opacity="1" fill-rule="nonzero"/><path fill="#e39eff" d="M 165.308594 151.050781 L 106.515625 150.746094 L 121.136719 194 L 180.847656 194 Z M 165.308594 151.050781 " fill-opacity="0.1176" fill-rule="nonzero"/><path fill="#e39eff" d="M 195.773438 197.652344 L 120.527344 197.652344 L 120.527344 194 L 195.773438 194 Z M 195.773438 197.652344 " fill-opacity="1" fill-rule="nonzero"/><path fill="#e39eff" d="M 147.945312 172.21875 C 147.945312 172.589844 147.910156 172.957031 147.835938 173.320312 C 147.765625 173.683594 147.660156 174.035156 147.515625 174.375 C 147.375 174.71875 147.203125 175.042969 146.996094 175.351562 C 146.789062 175.65625 146.558594 175.941406 146.296875 176.203125 C 146.035156 176.464844 145.75 176.699219 145.441406 176.90625 C 145.132812 177.109375 144.808594 177.285156 144.46875 177.425781 C 144.125 177.566406 143.773438 177.675781 143.410156 177.746094 C 143.046875 177.820312 142.679688 177.855469 142.308594 177.855469 C 141.941406 177.855469 141.574219 177.820312 141.210938 177.746094 C 140.847656 177.675781 140.496094 177.566406 140.152344 177.425781 C 139.8125 177.285156 139.488281 177.109375 139.179688 176.90625 C 138.871094 176.699219 138.585938 176.464844 138.324219 176.203125 C 138.0625 175.941406 137.828125 175.65625 137.625 175.351562 C 137.417969 175.042969 137.246094 174.71875 137.101562 174.375 C 136.960938 174.035156 136.855469 173.683594 136.78125 173.320312 C 136.710938 172.957031 136.675781 172.589844 136.675781 172.21875 C 136.675781 171.851562 136.710938 171.484375 136.78125 171.121094 C 136.855469 170.757812 136.960938 170.40625 137.101562 170.0625 C 137.246094 169.722656 137.417969 169.398438 137.625 169.089844 C 137.828125 168.78125 138.0625 168.496094 138.324219 168.234375 C 138.585938 167.972656 138.871094 167.738281 139.179688 167.535156 C 139.488281 167.328125 139.8125 167.15625 140.152344 167.015625 C 140.496094 166.871094 140.847656 166.765625 141.210938 166.691406 C 141.574219 166.621094 141.941406 166.585938 142.308594 166.585938 C 142.679688 166.585938 143.046875 166.621094 143.410156 166.691406 C 143.773438 166.765625 144.125 166.871094 144.464844 167.015625 C 144.808594 167.15625 145.132812 167.328125 145.441406 167.535156 C 145.75 167.738281 146.035156 167.972656 146.296875 168.234375 C 146.558594 168.496094 146.789062 168.78125 146.996094 169.089844 C 147.203125 169.398438 147.375 169.722656 147.515625 170.0625 C 147.660156 170.40625 147.765625 170.757812 147.835938 171.121094 C 147.910156 171.484375 147.945312 171.851562 147.945312 172.21875 Z M 147.945312 172.21875 " fill-opacity="0.6" fill-rule="nonzero"/><path fill="#fdcd53" d="M 332.101562 214.390625 C 329.664062 222.914062 322.3125 228.289062 315.679688 226.390625 C 309.050781 224.496094 305.648438 216.046875 308.089844 207.523438 C 310.527344 199 321.558594 183.542969 328.191406 185.441406 C 334.824219 187.335938 334.542969 205.863281 332.101562 214.390625 Z M 332.101562 214.390625 " fill-opacity="1" fill-rule="nonzero"/><path fill="#5028af" d="M 315.375 252.707031 C 314.984375 250.742188 314.679688 218.597656 320.460938 206.367188 L 321.054688 206.644531 C 315.324219 218.765625 315.628906 250.628906 316.015625 252.578125 Z M 315.375 252.707031 " fill-opacity="1" fill-rule="nonzero"/><path fill="#fdcd53" d="M 290.117188 231.921875 C 293.667969 237.074219 299.769531 239.125 303.746094 236.5 C 307.71875 233.871094 308.0625 227.5625 304.511719 222.40625 C 300.960938 217.25 290.136719 209.265625 286.164062 211.894531 C 282.1875 214.523438 286.570312 226.765625 290.117188 231.921875 Z M 290.117188 231.921875 " fill-opacity="1" fill-rule="nonzero"/><path fill="#5028af" d="M 309.355469 253.972656 C 309.171875 252.601562 302.171875 231.421875 295.632812 224.570312 L 296.105469 224.117188 C 302.894531 231.230469 309.8125 252.449219 310.003906 253.886719 Z M 309.355469 253.972656 " fill-opacity="1" fill-rule="nonzero"/><path fill="#fdcd53" d="M 339.136719 237.808594 C 335.808594 242.964844 330.09375 245.015625 326.367188 242.386719 C 322.640625 239.761719 322.316406 233.449219 325.644531 228.292969 C 328.96875 223.140625 339.117188 215.15625 342.839844 217.785156 C 346.566406 220.410156 342.460938 232.652344 339.136719 237.808594 Z M 339.136719 237.808594 " fill-opacity="1" fill-rule="nonzero"/><path fill="#5028af" d="M 321.128906 259.859375 L 320.480469 259.777344 C 320.660156 258.339844 327.140625 237.128906 333.503906 230.015625 L 333.992188 230.445312 C 327.863281 237.304688 321.300781 258.488281 321.128906 259.859375 Z M 321.128906 259.859375 " fill-opacity="1" fill-rule="nonzero"/><path fill="#6530cb" d="M 330.816406 300.96875 L 302.894531 300.96875 L 298.242188 249.039062 L 333.726562 249.039062 Z M 330.816406 300.96875 " fill-opacity="1" fill-rule="nonzero"/></svg>