<svg xmlns="http://www.w3.org/2000/svg" xmlns:xlink="http://www.w3.org/1999/xlink" width="1080" zoomAndPan="magnify" viewBox="0 0 810 809.999993" height="1080" preserveAspectRatio="xMidYMid meet" version="1.0"><defs><clipPath id="3ea0d6144f"><path d="M 25.484375 25.484375 L 784.484375 25.484375 L 784.484375 784.484375 L 25.484375 784.484375 Z M 25.484375 25.484375 " clip-rule="nonzero"/></clipPath></defs><rect x="-81" width="972" fill="#ffffff" y="-80.999999" height="971.999992" fill-opacity="1"/><rect x="-81" width="972" fill="#ffffff" y="-80.999999" height="971.999992" fill-opacity="1"/><g clip-path="url(#3ea0d6144f)"><path fill="#d80f0f" d="M 405.023438 784.558594 C 195.410156 784.558594 25.484375 614.632812 25.484375 405.023438 C 25.484375 195.402344 195.410156 25.480469 405.023438 25.480469 C 614.632812 25.480469 784.558594 195.402344 784.558594 405.023438 C 784.558594 614.632812 614.632812 784.558594 405.023438 784.558594 " fill-opacity="1" fill-rule="nonzero"/></g><path fill="#ffffff" d="M 631.660156 553.628906 L 482.398438 404.628906 L 631.316406 255.457031 L 553.628906 178.058594 L 404.917969 327.285156 L 255.78125 178.402344 L 178.382812 256.097656 L 327.644531 404.835938 L 178.726562 554.269531 L 256.089844 631.335938 L 405.125 482.042969 L 554.59375 630.992188 L 631.660156 553.628906 " fill-opacity="1" fill-rule="nonzero"/></svg>