<svg xmlns="http://www.w3.org/2000/svg" xmlns:xlink="http://www.w3.org/1999/xlink" width="500" zoomAndPan="magnify" viewBox="0 0 375 374.999991" height="500" preserveAspectRatio="xMidYMid meet" version="1.0"><defs><clipPath id="3959b11f5b"><path d="M 194 302 L 223 302 L 223 317.449219 L 194 317.449219 Z M 194 302 " clip-rule="nonzero"/></clipPath><clipPath id="9b142bc0df"><path d="M 194 313 L 223 313 L 223 317.449219 L 194 317.449219 Z M 194 313 " clip-rule="nonzero"/></clipPath><clipPath id="97d86138b4"><path d="M 141 302 L 170 302 L 170 317.449219 L 141 317.449219 Z M 141 302 " clip-rule="nonzero"/></clipPath><clipPath id="0050914e46"><path d="M 141 312 L 170 312 L 170 317.449219 L 141 317.449219 Z M 141 312 " clip-rule="nonzero"/></clipPath></defs><path fill="#e39eff" d="M 341.71875 315.585938 L 19.214844 316.597656 C 19.214844 316.597656 0.300781 276.402344 14.824219 238.910156 C 29.34375 201.414062 47.917969 203.441406 84.726562 194.660156 C 121.535156 185.878906 81.351562 138.925781 90.808594 101.433594 C 100.261719 63.941406 142.128906 42.664062 189.753906 66.644531 C 237.375 90.628906 219.46875 158.859375 297.140625 173.382812 C 374.8125 187.90625 341.71875 315.585938 341.71875 315.585938 Z M 341.71875 315.585938 " fill-opacity="0.2078" fill-rule="nonzero"/><g clip-path="url(#3959b11f5b)"><path fill="#5028af" d="M 221.601562 317.632812 L 195.832031 317.632812 C 195.671875 317.632812 195.519531 317.601562 195.371094 317.542969 C 195.226562 317.480469 195.097656 317.394531 194.984375 317.285156 C 194.871094 317.171875 194.785156 317.042969 194.726562 316.894531 C 194.664062 316.75 194.636719 316.597656 194.636719 316.4375 L 194.636719 306.59375 C 194.636719 306.105469 194.726562 305.636719 194.914062 305.1875 C 195.101562 304.734375 195.367188 304.339844 195.710938 303.992188 C 196.058594 303.648438 196.453125 303.382812 196.90625 303.195312 C 197.355469 303.007812 197.824219 302.917969 198.3125 302.917969 L 207.714844 302.917969 C 209.476562 302.898438 211.207031 303.125 212.902344 303.589844 C 214.304688 303.960938 215.609375 304.550781 216.8125 305.363281 C 218.019531 306.171875 219.058594 307.15625 219.929688 308.316406 C 221.011719 309.773438 221.785156 311.382812 222.246094 313.136719 C 222.535156 314.199219 222.71875 315.277344 222.800781 316.375 C 222.808594 316.539062 222.785156 316.699219 222.730469 316.851562 C 222.671875 317.007812 222.585938 317.144531 222.472656 317.265625 C 222.359375 317.382812 222.226562 317.476562 222.078125 317.539062 C 221.925781 317.605469 221.765625 317.636719 221.601562 317.632812 Z M 221.601562 317.632812 " fill-opacity="1" fill-rule="nonzero"/></g><g clip-path="url(#9b142bc0df)"><path fill="#ffffff" d="M 221.601562 317.632812 L 195.832031 317.632812 C 195.671875 317.632812 195.519531 317.601562 195.371094 317.542969 C 195.226562 317.480469 195.097656 317.394531 194.984375 317.285156 C 194.871094 317.171875 194.785156 317.042969 194.726562 316.894531 C 194.664062 316.75 194.636719 316.597656 194.636719 316.4375 L 194.636719 313.136719 L 222.246094 313.136719 C 222.535156 314.195312 222.71875 315.277344 222.796875 316.371094 C 222.808594 316.539062 222.785156 316.695312 222.730469 316.851562 C 222.671875 317.007812 222.585938 317.144531 222.472656 317.261719 C 222.359375 317.382812 222.226562 317.472656 222.078125 317.539062 C 221.925781 317.601562 221.765625 317.636719 221.601562 317.632812 Z M 221.601562 317.632812 " fill-opacity="0.1686" fill-rule="nonzero"/></g><path fill="#fdcd53" d="M 219.929688 308.316406 L 213.847656 311.910156 L 208.535156 307.414062 L 212.902344 303.589844 C 214.304688 303.960938 215.609375 304.550781 216.8125 305.363281 C 218.019531 306.171875 219.058594 307.15625 219.929688 308.316406 Z M 219.929688 308.316406 " fill-opacity="1" fill-rule="nonzero"/><path fill="#e39eff" d="M 207.132812 296.699219 L 207.457031 303.320312 C 207.472656 303.664062 207.457031 304.003906 207.402344 304.34375 C 207.351562 304.683594 207.265625 305.011719 207.144531 305.335938 C 207.023438 305.65625 206.875 305.960938 206.691406 306.253906 C 206.511719 306.542969 206.300781 306.816406 206.066406 307.0625 C 205.828125 307.3125 205.570312 307.535156 205.285156 307.730469 C 205.003906 307.925781 204.707031 308.089844 204.390625 308.226562 C 204.074219 308.363281 203.75 308.464844 203.414062 308.53125 C 203.078125 308.601562 202.738281 308.636719 202.394531 308.636719 C 201.773438 308.636719 201.175781 308.527344 200.597656 308.308594 C 200.019531 308.089844 199.496094 307.773438 199.035156 307.363281 C 198.570312 306.953125 198.195312 306.472656 197.90625 305.925781 C 197.617188 305.375 197.4375 304.796875 197.363281 304.179688 L 196.554688 297.558594 C 196.511719 297.203125 196.503906 296.847656 196.539062 296.488281 C 196.570312 296.132812 196.640625 295.78125 196.746094 295.441406 C 196.851562 295.097656 196.992188 294.769531 197.167969 294.457031 C 197.347656 294.144531 197.554688 293.855469 197.789062 293.585938 C 198.027344 293.316406 198.292969 293.074219 198.582031 292.863281 C 198.871094 292.652344 199.179688 292.46875 199.503906 292.324219 C 199.832031 292.175781 200.171875 292.066406 200.523438 291.988281 C 200.871094 291.914062 201.226562 291.875 201.585938 291.875 L 202.070312 291.875 C 202.394531 291.875 202.710938 291.90625 203.03125 291.96875 C 203.347656 292.027344 203.652344 292.117188 203.953125 292.238281 C 204.253906 292.359375 204.539062 292.503906 204.808594 292.679688 C 205.082031 292.855469 205.332031 293.050781 205.566406 293.273438 C 205.800781 293.496094 206.011719 293.738281 206.199219 294.003906 C 206.386719 294.265625 206.546875 294.542969 206.679688 294.835938 C 206.8125 295.128906 206.917969 295.433594 206.996094 295.746094 C 207.070312 296.058594 207.117188 296.378906 207.132812 296.699219 Z M 207.132812 296.699219 " fill-opacity="1" fill-rule="nonzero"/><g clip-path="url(#97d86138b4)"><path fill="#6530cb" d="M 142.53125 317.429688 L 168.300781 317.429688 C 168.460938 317.429688 168.613281 317.398438 168.757812 317.339844 C 168.90625 317.277344 169.035156 317.191406 169.148438 317.078125 C 169.257812 316.96875 169.347656 316.839844 169.40625 316.691406 C 169.46875 316.546875 169.496094 316.390625 169.496094 316.234375 L 169.496094 306.394531 C 169.496094 305.90625 169.402344 305.4375 169.21875 304.988281 C 169.03125 304.535156 168.765625 304.140625 168.421875 303.792969 C 168.074219 303.449219 167.679688 303.183594 167.226562 302.996094 C 166.777344 302.808594 166.308594 302.714844 165.820312 302.714844 L 156.417969 302.714844 C 154.65625 302.699219 152.925781 302.925781 151.230469 303.390625 C 149.828125 303.761719 148.523438 304.355469 147.320312 305.164062 C 146.113281 305.972656 145.074219 306.957031 144.203125 308.117188 C 143.121094 309.578125 142.347656 311.183594 141.886719 312.9375 C 141.59375 314 141.410156 315.078125 141.332031 316.175781 C 141.324219 316.339844 141.347656 316.5 141.40625 316.652344 C 141.460938 316.808594 141.546875 316.941406 141.660156 317.0625 C 141.773438 317.179688 141.90625 317.273438 142.058594 317.335938 C 142.207031 317.398438 142.367188 317.429688 142.53125 317.429688 Z M 142.53125 317.429688 " fill-opacity="1" fill-rule="nonzero"/></g><g clip-path="url(#0050914e46)"><path fill="#ffffff" d="M 142.53125 317.429688 L 168.300781 317.429688 C 168.460938 317.429688 168.613281 317.398438 168.757812 317.339844 C 168.90625 317.277344 169.035156 317.191406 169.148438 317.078125 C 169.257812 316.96875 169.347656 316.839844 169.40625 316.691406 C 169.46875 316.546875 169.496094 316.390625 169.496094 316.234375 L 169.496094 312.933594 L 141.886719 312.933594 C 141.59375 313.992188 141.410156 315.074219 141.332031 316.167969 C 141.324219 316.335938 141.347656 316.492188 141.402344 316.648438 C 141.460938 316.804688 141.542969 316.941406 141.65625 317.058594 C 141.773438 317.179688 141.902344 317.269531 142.054688 317.335938 C 142.207031 317.398438 142.367188 317.429688 142.53125 317.429688 Z M 142.53125 317.429688 " fill-opacity="0.1686" fill-rule="nonzero"/></g><path fill="#fdcd53" d="M 144.203125 308.109375 L 150.285156 311.703125 L 155.597656 307.203125 L 151.230469 303.382812 C 149.828125 303.753906 148.523438 304.34375 147.320312 305.152344 C 146.113281 305.964844 145.074219 306.949219 144.203125 308.109375 Z M 144.203125 308.109375 " fill-opacity="1" fill-rule="nonzero"/><path fill="#e39eff" d="M 157.597656 295.757812 L 156.273438 302.253906 C 156.207031 302.589844 156.171875 302.929688 156.171875 303.273438 C 156.171875 303.617188 156.207031 303.957031 156.277344 304.292969 C 156.347656 304.628906 156.449219 304.953125 156.585938 305.269531 C 156.722656 305.585938 156.886719 305.882812 157.085938 306.164062 C 157.28125 306.445312 157.503906 306.707031 157.753906 306.941406 C 158 307.179688 158.273438 307.386719 158.5625 307.570312 C 158.855469 307.75 159.160156 307.902344 159.484375 308.019531 C 159.804688 308.140625 160.136719 308.222656 160.476562 308.277344 C 161.085938 308.371094 161.695312 308.351562 162.300781 308.222656 C 162.90625 308.09375 163.46875 307.863281 163.988281 307.527344 C 164.507812 307.191406 164.953125 306.773438 165.320312 306.273438 C 165.6875 305.777344 165.957031 305.230469 166.121094 304.632812 L 167.921875 298.210938 C 168.019531 297.863281 168.078125 297.511719 168.101562 297.152344 C 168.125 296.796875 168.105469 296.441406 168.054688 296.085938 C 168 295.730469 167.910156 295.386719 167.78125 295.050781 C 167.65625 294.714844 167.496094 294.394531 167.300781 294.09375 C 167.105469 293.792969 166.882812 293.515625 166.628906 293.261719 C 166.375 293.007812 166.097656 292.785156 165.796875 292.589844 C 165.496094 292.394531 165.179688 292.234375 164.84375 292.105469 C 164.507812 291.976562 164.164062 291.886719 163.808594 291.832031 L 163.332031 291.757812 C 163.011719 291.710938 162.691406 291.691406 162.371094 291.703125 C 162.046875 291.714844 161.730469 291.757812 161.414062 291.832031 C 161.101562 291.90625 160.796875 292.007812 160.503906 292.136719 C 160.207031 292.269531 159.929688 292.425781 159.664062 292.609375 C 159.398438 292.796875 159.15625 293.003906 158.929688 293.234375 C 158.707031 293.464844 158.503906 293.714844 158.328125 293.984375 C 158.152344 294.253906 158 294.539062 157.878906 294.835938 C 157.753906 295.132812 157.660156 295.441406 157.597656 295.757812 Z M 157.597656 295.757812 " fill-opacity="1" fill-rule="nonzero"/><path fill="#5028af" d="M 199.539062 160.226562 L 211.394531 297.191406 L 192.183594 297.191406 L 182.371094 203.972656 L 180.53125 160.023438 Z M 199.539062 160.226562 " fill-opacity="1" fill-rule="nonzero"/><path fill="#6530cb" d="M 165.203125 160.226562 L 153.351562 297.191406 L 172.5625 297.191406 L 182.371094 203.972656 L 182.371094 160.226562 Z M 165.203125 160.226562 " fill-opacity="1" fill-rule="nonzero"/><path fill="#fdcd53" d="M 201.992188 118.113281 L 199.539062 160.636719 C 179.101562 166.359375 165.203125 160.636719 165.203125 160.636719 L 162.753906 118.113281 L 175.53125 113.855469 L 177.46875 113.210938 L 187.28125 113.210938 L 189.625 113.992188 Z M 201.992188 118.113281 " fill-opacity="1" fill-rule="nonzero"/><path fill="#3d065c" d="M 172.972656 129.152344 L 193.820312 129.152344 L 193.820312 150.003906 L 172.972656 150.003906 Z M 172.972656 129.152344 " fill-opacity="1" fill-rule="nonzero"/><path fill="#f2ae00" d="M 206.613281 151.234375 L 179.101562 151.234375 L 179.101562 139.785156 L 182.371094 139.753906 L 200.757812 139.582031 L 201.996094 118.117188 L 212.894531 141.351562 C 213.019531 141.613281 213.125 141.882812 213.214844 142.160156 C 213.304688 142.4375 213.375 142.71875 213.429688 143.003906 C 213.484375 143.289062 213.519531 143.578125 213.539062 143.871094 C 213.558594 144.160156 213.558594 144.449219 213.539062 144.738281 C 213.519531 145.03125 213.484375 145.320312 213.429688 145.605469 C 213.375 145.890625 213.300781 146.171875 213.210938 146.449219 C 213.121094 146.722656 213.015625 146.992188 212.890625 147.257812 C 212.765625 147.519531 212.625 147.773438 212.46875 148.019531 C 212.3125 148.265625 212.144531 148.5 211.957031 148.722656 C 211.769531 148.949219 211.574219 149.160156 211.359375 149.359375 C 211.148438 149.558594 210.925781 149.742188 210.6875 149.914062 C 210.453125 150.082031 210.207031 150.238281 209.953125 150.378906 C 209.699219 150.519531 209.4375 150.640625 209.164062 150.75 C 208.894531 150.855469 208.617188 150.945312 208.335938 151.015625 C 208.054688 151.089844 207.769531 151.144531 207.480469 151.179688 C 207.191406 151.214844 206.902344 151.234375 206.613281 151.234375 Z M 206.613281 151.234375 " fill-opacity="1" fill-rule="nonzero"/><path fill="#e39eff" d="M 179.101562 142.644531 C 179.101562 142.644531 172.972656 140.191406 173.378906 143.871094 C 173.378906 143.871094 171.746094 143.054688 171.746094 145.507812 C 171.746094 147.960938 171.234375 150.003906 173.941406 150.003906 L 179.101562 150.003906 Z M 179.101562 142.644531 " fill-opacity="1" fill-rule="nonzero"/><path fill="#f2ae00" d="M 164.152344 138.585938 L 157.8125 149.230469 C 157.652344 149.496094 157.480469 149.75 157.289062 149.996094 C 157.101562 150.238281 156.898438 150.472656 156.679688 150.691406 C 156.460938 150.910156 156.230469 151.113281 155.988281 151.304688 C 155.742188 151.492188 155.488281 151.667969 155.226562 151.828125 C 154.960938 151.984375 154.6875 152.128906 154.40625 152.253906 C 154.121094 152.378906 153.832031 152.484375 153.539062 152.574219 C 153.242188 152.664062 152.941406 152.734375 152.636719 152.785156 C 152.332031 152.839844 152.027344 152.871094 151.71875 152.886719 C 151.410156 152.898438 151.101562 152.894531 150.792969 152.871094 C 150.488281 152.847656 150.183594 152.804688 149.878906 152.742188 C 149.578125 152.683594 149.277344 152.601562 148.988281 152.503906 C 148.695312 152.40625 148.410156 152.289062 148.128906 152.15625 C 147.851562 152.023438 147.582031 151.871094 147.324219 151.707031 C 147.0625 151.539062 146.8125 151.355469 146.578125 151.160156 C 146.339844 150.960938 146.117188 150.75 145.90625 150.523438 C 145.691406 150.300781 145.496094 150.0625 145.316406 149.8125 L 131.675781 131.074219 L 129.027344 127.4375 L 136.914062 120.917969 L 139.832031 124.476562 L 150.976562 138.070312 L 162.976562 118.175781 Z M 164.152344 138.585938 " fill-opacity="1" fill-rule="nonzero"/><path fill="#e39eff" d="M 136.183594 121.386719 C 136.183594 121.386719 132.503906 115.253906 129.234375 113.207031 C 125.960938 111.164062 130.050781 118.113281 130.050781 118.113281 C 130.050781 118.113281 123.714844 120.039062 129.746094 126.851562 Z M 136.183594 121.386719 " fill-opacity="1" fill-rule="nonzero"/><path fill="#2d2d2d" d="M 182.261719 205.84375 C 182.148438 205.84375 182.050781 205.804688 181.972656 205.722656 C 181.894531 205.644531 181.855469 205.546875 181.855469 205.433594 L 181.964844 185.972656 L 178.847656 183.4375 C 178.753906 183.371094 178.699219 183.277344 178.6875 183.160156 C 178.671875 183.046875 178.703125 182.945312 178.773438 182.851562 C 178.847656 182.761719 178.941406 182.714844 179.058594 182.703125 C 179.175781 182.695312 179.277344 182.726562 179.363281 182.804688 L 182.785156 185.585938 L 182.671875 205.4375 C 182.671875 205.550781 182.632812 205.648438 182.550781 205.726562 C 182.472656 205.804688 182.375 205.84375 182.261719 205.84375 Z M 182.261719 205.84375 " fill-opacity="1" fill-rule="nonzero"/><path fill="#f9f9f9" d="M 157.519531 294.644531 L 157.507812 294.644531 C 157.40625 294.636719 157.355469 294.582031 157.363281 294.480469 L 157.578125 291.628906 C 157.585938 291.53125 157.640625 291.484375 157.742188 291.488281 C 157.84375 291.496094 157.890625 291.550781 157.882812 291.652344 L 157.671875 294.503906 C 157.664062 294.597656 157.613281 294.644531 157.519531 294.644531 Z M 158.085938 287.042969 L 158.074219 287.042969 C 157.972656 287.03125 157.925781 286.976562 157.933594 286.875 L 158.144531 284.027344 C 158.15625 283.925781 158.210938 283.878906 158.308594 283.882812 C 158.410156 283.894531 158.457031 283.949219 158.453125 284.050781 L 158.238281 286.898438 C 158.230469 286.992188 158.179688 287.039062 158.085938 287.042969 Z M 158.652344 279.4375 L 158.640625 279.4375 C 158.539062 279.429688 158.492188 279.375 158.5 279.273438 L 158.714844 276.421875 C 158.726562 276.328125 158.78125 276.285156 158.878906 276.292969 C 158.972656 276.300781 159.019531 276.351562 159.019531 276.445312 L 158.804688 279.296875 C 158.796875 279.390625 158.746094 279.4375 158.652344 279.4375 Z M 159.222656 271.832031 L 159.210938 271.832031 C 159.109375 271.824219 159.058594 271.769531 159.066406 271.667969 L 159.28125 268.816406 C 159.289062 268.714844 159.34375 268.667969 159.445312 268.675781 C 159.546875 268.683594 159.59375 268.738281 159.585938 268.839844 L 159.375 271.691406 C 159.367188 271.785156 159.316406 271.832031 159.222656 271.832031 Z M 159.789062 264.226562 L 159.78125 264.226562 C 159.679688 264.21875 159.632812 264.164062 159.640625 264.0625 L 159.851562 261.210938 C 159.859375 261.109375 159.914062 261.0625 160.015625 261.070312 C 160.121094 261.078125 160.167969 261.132812 160.160156 261.234375 L 159.945312 264.085938 C 159.9375 264.183594 159.886719 264.230469 159.789062 264.226562 Z M 160.355469 256.621094 L 160.34375 256.621094 C 160.242188 256.613281 160.195312 256.558594 160.203125 256.457031 L 160.417969 253.609375 C 160.425781 253.507812 160.480469 253.460938 160.582031 253.464844 C 160.683594 253.472656 160.730469 253.527344 160.722656 253.628906 L 160.507812 256.480469 C 160.503906 256.574219 160.453125 256.621094 160.355469 256.621094 Z M 160.921875 249.019531 L 160.914062 249.019531 C 160.808594 249.011719 160.761719 248.957031 160.769531 248.851562 L 160.984375 246.003906 C 160.992188 245.902344 161.046875 245.855469 161.148438 245.859375 C 161.25 245.867188 161.296875 245.925781 161.289062 246.027344 L 161.078125 248.875 C 161.070312 248.972656 161.019531 249.019531 160.921875 249.019531 Z M 161.492188 241.414062 L 161.480469 241.414062 C 161.378906 241.40625 161.332031 241.351562 161.339844 241.25 L 161.550781 238.398438 C 161.558594 238.296875 161.613281 238.25 161.714844 238.257812 C 161.816406 238.265625 161.863281 238.320312 161.859375 238.421875 L 161.644531 241.273438 C 161.636719 241.367188 161.585938 241.414062 161.492188 241.414062 Z M 162.058594 233.808594 L 162.046875 233.808594 C 161.945312 233.800781 161.898438 233.746094 161.90625 233.644531 L 162.121094 230.792969 C 162.128906 230.695312 162.183594 230.648438 162.285156 230.652344 C 162.386719 230.660156 162.433594 230.714844 162.425781 230.816406 L 162.210938 233.667969 C 162.203125 233.761719 162.152344 233.808594 162.058594 233.808594 Z M 162.628906 226.207031 L 162.613281 226.207031 C 162.515625 226.195312 162.464844 226.140625 162.472656 226.039062 L 162.6875 223.191406 C 162.695312 223.089844 162.75 223.042969 162.851562 223.046875 C 162.953125 223.054688 163 223.109375 162.992188 223.214844 L 162.78125 226.0625 C 162.773438 226.15625 162.722656 226.203125 162.632812 226.203125 Z M 163.195312 218.601562 L 163.183594 218.601562 C 163.082031 218.59375 163.035156 218.539062 163.042969 218.4375 L 163.253906 215.585938 C 163.261719 215.484375 163.316406 215.4375 163.417969 215.445312 C 163.519531 215.453125 163.566406 215.507812 163.558594 215.609375 L 163.347656 218.457031 C 163.339844 218.554688 163.289062 218.601562 163.195312 218.601562 Z M 163.761719 210.996094 L 163.75 210.996094 C 163.648438 210.988281 163.601562 210.933594 163.609375 210.832031 L 163.824219 207.980469 C 163.832031 207.882812 163.886719 207.832031 163.988281 207.839844 C 164.089844 207.847656 164.136719 207.902344 164.128906 208.003906 L 163.914062 210.855469 C 163.90625 210.949219 163.855469 210.996094 163.761719 210.996094 Z M 164.332031 203.390625 L 164.320312 203.390625 C 164.214844 203.382812 164.167969 203.332031 164.175781 203.226562 L 164.390625 200.375 C 164.398438 200.277344 164.453125 200.230469 164.554688 200.234375 C 164.65625 200.242188 164.703125 200.296875 164.695312 200.398438 L 164.484375 203.25 C 164.476562 203.34375 164.425781 203.390625 164.332031 203.390625 Z M 164.898438 195.785156 L 164.886719 195.785156 C 164.785156 195.777344 164.738281 195.722656 164.746094 195.621094 L 164.957031 192.773438 C 164.96875 192.671875 165.023438 192.625 165.121094 192.628906 C 165.222656 192.636719 165.273438 192.691406 165.265625 192.796875 L 165.050781 195.644531 C 165.042969 195.738281 164.992188 195.785156 164.898438 195.785156 Z M 165.464844 188.183594 L 165.453125 188.183594 C 165.351562 188.175781 165.304688 188.121094 165.3125 188.019531 L 165.527344 185.167969 C 165.535156 185.070312 165.589844 185.019531 165.691406 185.027344 C 165.792969 185.035156 165.839844 185.089844 165.832031 185.191406 L 165.617188 188.042969 C 165.609375 188.132812 165.558594 188.179688 165.464844 188.183594 Z M 166.035156 180.578125 L 166.019531 180.578125 C 165.921875 180.570312 165.871094 180.515625 165.878906 180.414062 L 166.09375 177.5625 C 166.101562 177.464844 166.160156 177.414062 166.257812 177.421875 C 166.359375 177.429688 166.40625 177.484375 166.398438 177.585938 L 166.1875 180.4375 C 166.179688 180.53125 166.128906 180.578125 166.035156 180.578125 Z M 166.601562 172.972656 L 166.585938 172.972656 C 166.484375 172.964844 166.4375 172.910156 166.441406 172.808594 L 166.65625 169.957031 C 166.667969 169.859375 166.722656 169.8125 166.820312 169.816406 C 166.921875 169.824219 166.96875 169.878906 166.960938 169.980469 L 166.75 172.832031 C 166.742188 172.921875 166.691406 172.96875 166.601562 172.972656 Z M 167.167969 165.367188 L 167.15625 165.367188 C 167.054688 165.359375 167.007812 165.304688 167.015625 165.203125 L 167.226562 162.351562 C 167.238281 162.253906 167.292969 162.207031 167.394531 162.210938 C 167.496094 162.21875 167.542969 162.273438 167.535156 162.375 L 167.320312 165.226562 C 167.3125 165.320312 167.261719 165.367188 167.167969 165.367188 Z M 167.167969 165.367188 " fill-opacity="1" fill-rule="nonzero"/><path fill="#f9f9f9" d="M 206.910156 294.070312 C 206.816406 294.070312 206.765625 294.023438 206.757812 293.929688 L 206.527344 291.078125 C 206.519531 290.976562 206.566406 290.921875 206.667969 290.914062 C 206.773438 290.898438 206.828125 290.945312 206.832031 291.054688 L 207.0625 293.902344 C 207.070312 294.007812 207.023438 294.0625 206.921875 294.070312 Z M 206.300781 286.46875 C 206.203125 286.46875 206.152344 286.421875 206.144531 286.328125 L 205.917969 283.476562 C 205.910156 283.375 205.957031 283.320312 206.058594 283.3125 C 206.164062 283.300781 206.21875 283.347656 206.222656 283.453125 L 206.453125 286.304688 C 206.460938 286.40625 206.414062 286.460938 206.3125 286.46875 Z M 205.6875 278.871094 C 205.59375 278.867188 205.542969 278.820312 205.535156 278.730469 L 205.304688 275.878906 C 205.296875 275.777344 205.34375 275.722656 205.445312 275.710938 C 205.550781 275.699219 205.605469 275.746094 205.613281 275.851562 L 205.84375 278.703125 C 205.847656 278.804688 205.800781 278.859375 205.699219 278.867188 Z M 205.078125 271.269531 C 204.984375 271.269531 204.933594 271.222656 204.925781 271.125 L 204.695312 268.277344 C 204.6875 268.175781 204.734375 268.121094 204.835938 268.109375 C 204.941406 268.097656 204.996094 268.144531 205 268.25 L 205.230469 271.101562 C 205.238281 271.203125 205.191406 271.257812 205.089844 271.265625 Z M 204.464844 263.667969 C 204.371094 263.667969 204.320312 263.621094 204.3125 263.527344 L 204.085938 260.675781 C 204.074219 260.574219 204.121094 260.519531 204.226562 260.507812 C 204.328125 260.5 204.382812 260.546875 204.390625 260.648438 L 204.621094 263.5 C 204.628906 263.601562 204.582031 263.65625 204.480469 263.667969 Z M 203.855469 256.066406 C 203.761719 256.066406 203.710938 256.019531 203.703125 255.925781 L 203.472656 253.074219 C 203.464844 252.972656 203.511719 252.914062 203.613281 252.90625 C 203.71875 252.894531 203.773438 252.941406 203.777344 253.046875 L 204.007812 255.898438 C 204.015625 256 203.96875 256.054688 203.867188 256.0625 Z M 203.246094 248.464844 C 203.148438 248.464844 203.097656 248.417969 203.09375 248.324219 L 202.863281 245.472656 C 202.855469 245.371094 202.902344 245.316406 203.003906 245.308594 C 203.105469 245.296875 203.164062 245.34375 203.167969 245.449219 L 203.398438 248.296875 C 203.40625 248.398438 203.359375 248.457031 203.257812 248.464844 Z M 202.632812 240.863281 C 202.539062 240.863281 202.488281 240.816406 202.480469 240.722656 L 202.25 237.871094 C 202.242188 237.769531 202.292969 237.714844 202.390625 237.707031 C 202.5 237.695312 202.554688 237.742188 202.558594 237.847656 L 202.785156 240.699219 C 202.792969 240.800781 202.746094 240.855469 202.644531 240.863281 Z M 202.023438 233.261719 C 201.929688 233.261719 201.878906 233.214844 201.871094 233.121094 L 201.640625 230.269531 C 201.632812 230.167969 201.679688 230.113281 201.78125 230.105469 C 201.886719 230.089844 201.945312 230.136719 201.945312 230.246094 L 202.175781 233.097656 C 202.183594 233.199219 202.136719 233.253906 202.035156 233.261719 Z M 201.414062 225.660156 C 201.316406 225.660156 201.265625 225.613281 201.261719 225.519531 L 201.03125 222.667969 C 201.023438 222.566406 201.070312 222.511719 201.171875 222.503906 C 201.273438 222.492188 201.332031 222.539062 201.335938 222.644531 L 201.566406 225.496094 C 201.574219 225.597656 201.527344 225.652344 201.425781 225.660156 Z M 200.800781 218.058594 C 200.707031 218.058594 200.65625 218.011719 200.648438 217.917969 L 200.417969 215.066406 C 200.410156 214.964844 200.457031 214.910156 200.558594 214.902344 C 200.664062 214.890625 200.71875 214.9375 200.726562 215.042969 L 200.953125 217.894531 C 200.960938 217.996094 200.914062 218.050781 200.8125 218.058594 Z M 200.191406 210.457031 C 200.097656 210.457031 200.046875 210.410156 200.039062 210.316406 L 199.808594 207.464844 C 199.800781 207.363281 199.847656 207.308594 199.949219 207.300781 C 200.054688 207.289062 200.109375 207.335938 200.113281 207.441406 L 200.34375 210.292969 C 200.351562 210.394531 200.304688 210.449219 200.203125 210.457031 Z M 199.582031 202.855469 C 199.484375 202.855469 199.433594 202.808594 199.425781 202.714844 L 199.199219 199.863281 C 199.1875 199.761719 199.234375 199.707031 199.335938 199.699219 C 199.441406 199.6875 199.496094 199.734375 199.503906 199.839844 L 199.734375 202.691406 C 199.742188 202.792969 199.695312 202.847656 199.59375 202.855469 Z M 198.96875 195.253906 C 198.875 195.253906 198.824219 195.207031 198.816406 195.113281 L 198.585938 192.265625 C 198.578125 192.164062 198.625 192.105469 198.726562 192.097656 C 198.832031 192.085938 198.886719 192.136719 198.890625 192.238281 L 199.121094 195.089844 C 199.128906 195.191406 199.082031 195.246094 198.980469 195.253906 Z M 198.359375 187.652344 C 198.261719 187.65625 198.210938 187.605469 198.203125 187.511719 L 197.976562 184.660156 C 197.96875 184.558594 198.015625 184.503906 198.117188 184.496094 C 198.21875 184.488281 198.273438 184.535156 198.28125 184.636719 L 198.511719 187.488281 C 198.519531 187.589844 198.472656 187.644531 198.371094 187.652344 Z M 197.746094 180.054688 C 197.652344 180.054688 197.601562 180.003906 197.59375 179.910156 L 197.367188 177.0625 C 197.355469 176.957031 197.402344 176.902344 197.507812 176.894531 C 197.613281 176.882812 197.667969 176.929688 197.671875 177.035156 L 197.902344 179.886719 C 197.90625 179.988281 197.859375 180.042969 197.761719 180.050781 Z M 197.136719 172.453125 C 197.042969 172.449219 196.992188 172.402344 196.984375 172.308594 L 196.753906 169.460938 C 196.746094 169.359375 196.792969 169.300781 196.894531 169.292969 C 197 169.28125 197.054688 169.328125 197.058594 169.433594 L 197.289062 172.285156 C 197.296875 172.386719 197.25 172.445312 197.148438 172.453125 Z M 196.523438 164.851562 C 196.429688 164.851562 196.378906 164.804688 196.371094 164.707031 L 196.144531 161.859375 C 196.136719 161.757812 196.183594 161.703125 196.285156 161.695312 C 196.386719 161.679688 196.445312 161.726562 196.449219 161.835938 L 196.679688 164.683594 C 196.6875 164.785156 196.640625 164.839844 196.539062 164.847656 Z M 196.523438 164.851562 " fill-opacity="1" fill-rule="nonzero"/><path fill="#f9f9f9" d="M 179.128906 146.503906 C 179.027344 146.503906 178.976562 146.453125 178.976562 146.351562 C 178.976562 146.25 179.027344 146.195312 179.128906 146.195312 C 179.375 146.195312 204 146.132812 206.785156 142.953125 C 209.542969 139.804688 202.304688 127.957031 202.234375 127.839844 C 202.171875 127.75 202.1875 127.679688 202.277344 127.621094 C 202.371094 127.566406 202.441406 127.585938 202.492188 127.679688 C 202.796875 128.171875 209.917969 139.835938 207.015625 143.15625 C 204.140625 146.441406 180.148438 146.503906 179.128906 146.503906 Z M 179.128906 146.503906 " fill-opacity="1" fill-rule="nonzero"/><path fill="#f9f9f9" d="M 182.699219 120.125 C 182.523438 120.125 182.34375 120.121094 182.15625 120.105469 C 176.378906 119.695312 175.484375 113.902344 175.476562 113.84375 C 175.460938 113.742188 175.503906 113.683594 175.605469 113.671875 C 175.707031 113.65625 175.765625 113.699219 175.78125 113.800781 C 175.789062 113.855469 176.648438 119.410156 182.179688 119.800781 C 187.707031 120.195312 188.90625 114.191406 188.917969 114.132812 C 188.933594 114.023438 188.996094 113.984375 189.101562 114.007812 C 189.199219 114.027344 189.242188 114.085938 189.222656 114.1875 C 189.207031 114.25 188.027344 120.125 182.699219 120.125 Z M 182.699219 120.125 " fill-opacity="1" fill-rule="nonzero"/><path fill="#e39eff" d="M 182.191406 118.015625 C 181.882812 118.015625 181.578125 117.984375 181.273438 117.925781 C 180.96875 117.863281 180.675781 117.777344 180.390625 117.65625 C 180.105469 117.539062 179.835938 117.394531 179.578125 117.222656 C 179.320312 117.050781 179.085938 116.855469 178.867188 116.636719 C 178.648438 116.421875 178.453125 116.183594 178.28125 115.925781 C 178.109375 115.667969 177.964844 115.398438 177.847656 115.113281 C 177.730469 114.828125 177.640625 114.535156 177.578125 114.230469 C 177.519531 113.929688 177.488281 113.621094 177.488281 113.3125 L 177.488281 103.5 C 177.488281 103.191406 177.519531 102.886719 177.578125 102.585938 C 177.640625 102.28125 177.726562 101.988281 177.847656 101.703125 C 177.964844 101.417969 178.109375 101.144531 178.28125 100.886719 C 178.453125 100.632812 178.648438 100.394531 178.867188 100.175781 C 179.082031 99.957031 179.320312 99.761719 179.578125 99.589844 C 179.835938 99.417969 180.105469 99.273438 180.390625 99.15625 C 180.675781 99.039062 180.96875 98.949219 181.273438 98.890625 C 181.578125 98.828125 181.882812 98.800781 182.191406 98.800781 C 182.5 98.800781 182.804688 98.832031 183.109375 98.890625 C 183.410156 98.949219 183.703125 99.039062 183.988281 99.15625 C 184.273438 99.277344 184.546875 99.421875 184.800781 99.59375 C 185.058594 99.765625 185.296875 99.957031 185.515625 100.175781 C 185.734375 100.394531 185.925781 100.632812 186.097656 100.890625 C 186.269531 101.144531 186.414062 101.417969 186.535156 101.703125 C 186.652344 101.988281 186.742188 102.28125 186.800781 102.585938 C 186.859375 102.886719 186.890625 103.191406 186.890625 103.5 L 186.890625 113.3125 C 186.890625 113.621094 186.859375 113.929688 186.800781 114.230469 C 186.742188 114.535156 186.652344 114.828125 186.535156 115.113281 C 186.414062 115.398438 186.269531 115.667969 186.097656 115.925781 C 185.925781 116.183594 185.734375 116.421875 185.515625 116.640625 C 185.296875 116.855469 185.058594 117.050781 184.800781 117.222656 C 184.546875 117.394531 184.273438 117.539062 183.988281 117.65625 C 183.703125 117.777344 183.410156 117.867188 183.109375 117.925781 C 182.804688 117.984375 182.5 118.015625 182.191406 118.015625 Z M 182.191406 118.015625 " fill-opacity="1" fill-rule="nonzero"/><path fill="#e39eff" d="M 188.117188 91.234375 L 188.117188 101.867188 C 188.125 102.40625 188.074219 102.941406 187.976562 103.472656 C 187.875 104.003906 187.722656 104.519531 187.519531 105.023438 C 187.316406 105.523438 187.066406 106 186.769531 106.449219 C 186.472656 106.902344 186.132812 107.320312 185.753906 107.703125 C 185.375 108.089844 184.960938 108.433594 184.511719 108.734375 C 184.0625 109.035156 183.589844 109.292969 183.089844 109.5 C 182.59375 109.707031 182.078125 109.863281 181.546875 109.972656 C 181.019531 110.078125 180.484375 110.128906 179.941406 110.128906 C 179.402344 110.128906 178.867188 110.078125 178.335938 109.972656 C 177.808594 109.863281 177.292969 109.707031 176.792969 109.5 C 176.296875 109.292969 175.820312 109.035156 175.375 108.734375 C 174.925781 108.433594 174.511719 108.089844 174.128906 107.703125 C 173.75 107.320312 173.410156 106.902344 173.113281 106.449219 C 172.816406 106 172.566406 105.523438 172.363281 105.023438 C 172.160156 104.519531 172.011719 104.003906 171.910156 103.472656 C 171.808594 102.941406 171.761719 102.40625 171.765625 101.867188 L 171.765625 91.234375 C 171.773438 90.703125 171.832031 90.175781 171.9375 89.652344 C 172.046875 89.132812 172.207031 88.625 172.414062 88.132812 C 172.621094 87.640625 172.875 87.175781 173.175781 86.734375 C 173.472656 86.292969 173.8125 85.886719 174.191406 85.511719 C 174.570312 85.132812 174.984375 84.800781 175.425781 84.503906 C 175.871094 84.210938 176.339844 83.960938 176.832031 83.757812 C 177.328125 83.558594 177.835938 83.402344 178.359375 83.300781 C 178.882812 83.195312 179.410156 83.144531 179.941406 83.144531 C 180.476562 83.144531 181.003906 83.195312 181.527344 83.300781 C 182.050781 83.402344 182.558594 83.558594 183.050781 83.757812 C 183.542969 83.960938 184.011719 84.210938 184.457031 84.503906 C 184.902344 84.800781 185.3125 85.132812 185.691406 85.511719 C 186.070312 85.886719 186.410156 86.292969 186.710938 86.734375 C 187.007812 87.175781 187.261719 87.640625 187.472656 88.132812 C 187.679688 88.625 187.835938 89.132812 187.945312 89.652344 C 188.054688 90.175781 188.113281 90.703125 188.117188 91.234375 Z M 188.117188 91.234375 " fill-opacity="1" fill-rule="nonzero"/><path fill="#3d0f5b" d="M 184.847656 99.003906 C 184.847656 99.003906 184.03125 94.101562 184.03125 94.097656 C 184.03125 94.765625 178.140625 95.734375 177.496094 95.816406 C 172.9375 96.429688 166.757812 95.019531 166.042969 89.554688 C 165.222656 83.277344 170.019531 77.664062 176.46875 78.484375 C 180.492188 78.996094 184.835938 81.640625 186.277344 85.546875 C 186.371094 85.898438 186.535156 86.210938 186.769531 86.488281 C 187.457031 87.160156 189.238281 86.835938 190.183594 87.648438 C 190.757812 88.230469 191.1875 88.90625 191.46875 89.675781 C 191.75 90.445312 191.859375 91.238281 191.796875 92.050781 C 191.796875 98.1875 191.386719 99.003906 191.386719 99.003906 Z M 184.847656 99.003906 " fill-opacity="1" fill-rule="nonzero"/><path fill="#e39eff" d="M 191.386719 99.820312 C 191.386719 100.253906 191.304688 100.671875 191.140625 101.074219 C 190.972656 101.472656 190.738281 101.828125 190.429688 102.132812 C 190.125 102.441406 189.769531 102.675781 189.371094 102.84375 C 188.96875 103.007812 188.550781 103.09375 188.117188 103.09375 C 187.683594 103.09375 187.265625 103.007812 186.867188 102.84375 C 186.464844 102.675781 186.113281 102.441406 185.804688 102.132812 C 185.5 101.828125 185.261719 101.472656 185.097656 101.074219 C 184.929688 100.671875 184.847656 100.253906 184.847656 99.820312 C 184.847656 99.386719 184.929688 98.972656 185.097656 98.570312 C 185.261719 98.167969 185.5 97.816406 185.804688 97.507812 C 186.113281 97.203125 186.464844 96.964844 186.867188 96.800781 C 187.265625 96.632812 187.683594 96.550781 188.117188 96.550781 C 188.550781 96.550781 188.96875 96.632812 189.367188 96.800781 C 189.769531 96.964844 190.125 97.203125 190.429688 97.507812 C 190.738281 97.816406 190.972656 98.167969 191.140625 98.570312 C 191.304688 98.972656 191.386719 99.386719 191.386719 99.820312 Z M 191.386719 99.820312 " fill-opacity="1" fill-rule="nonzero"/><path fill="#2d2d2d" d="M 178.253906 110.128906 C 178.058594 110.128906 177.863281 110.121094 177.671875 110.097656 C 174.460938 109.730469 172.707031 106.695312 172.636719 106.5625 C 172.582031 106.464844 172.570312 106.363281 172.601562 106.253906 C 172.632812 106.144531 172.695312 106.0625 172.792969 106.007812 C 172.890625 105.953125 172.992188 105.941406 173.101562 105.96875 C 173.210938 106 173.292969 106.0625 173.347656 106.160156 C 173.363281 106.1875 174.976562 108.964844 177.765625 109.289062 C 180.597656 109.613281 184.152344 106.886719 184.1875 106.859375 C 184.277344 106.800781 184.375 106.777344 184.480469 106.796875 C 184.585938 106.8125 184.671875 106.863281 184.738281 106.949219 C 184.804688 107.03125 184.832031 107.128906 184.824219 107.234375 C 184.8125 107.34375 184.769531 107.433594 184.691406 107.503906 C 184.542969 107.617188 181.277344 110.128906 178.253906 110.128906 Z M 178.253906 110.128906 " fill-opacity="1" fill-rule="nonzero"/><path fill="#2d2d2d" d="M 171.765625 102.273438 C 171.652344 102.273438 171.558594 102.234375 171.476562 102.15625 C 171.398438 102.074219 171.359375 101.976562 171.359375 101.863281 L 171.375 93.679688 C 171.375 93.566406 171.414062 93.472656 171.492188 93.390625 C 171.574219 93.3125 171.667969 93.273438 171.78125 93.273438 C 171.894531 93.273438 171.992188 93.3125 172.070312 93.394531 C 172.152344 93.472656 172.191406 93.570312 172.191406 93.683594 L 172.175781 101.867188 C 172.175781 101.980469 172.136719 102.074219 172.054688 102.15625 C 171.976562 102.234375 171.878906 102.273438 171.765625 102.273438 Z M 171.765625 102.273438 " fill-opacity="1" fill-rule="nonzero"/><path fill="#fdcd53" d="M 270.898438 146.890625 C 270.363281 146.898438 269.828125 146.933594 269.296875 146.996094 C 268.761719 147.054688 268.234375 147.140625 267.710938 147.253906 C 267.1875 147.363281 266.667969 147.503906 266.15625 147.664062 C 265.644531 147.828125 265.144531 148.015625 264.652344 148.226562 C 264.160156 148.4375 263.679688 148.675781 263.207031 148.933594 C 262.738281 149.191406 262.285156 149.472656 261.839844 149.777344 C 261.398438 150.082031 260.972656 150.40625 260.5625 150.75 C 260.152344 151.097656 259.761719 151.460938 259.386719 151.84375 C 259.011719 152.230469 258.65625 152.628906 258.320312 153.050781 C 257.988281 153.46875 257.671875 153.902344 257.378906 154.351562 C 257.085938 154.800781 256.816406 155.261719 256.570312 155.738281 C 256.324219 156.214844 256.097656 156.703125 255.898438 157.199219 C 255.699219 157.695312 255.523438 158.203125 255.375 158.71875 C 255.226562 159.234375 255.101562 159.753906 255 160.28125 C 254.902344 160.808594 254.828125 161.339844 254.78125 161.871094 C 254.734375 162.40625 254.714844 162.941406 254.71875 163.480469 C 254.722656 164.015625 254.753906 164.550781 254.8125 165.082031 C 254.871094 165.617188 254.953125 166.144531 255.0625 166.671875 C 255.171875 167.195312 255.308594 167.714844 255.46875 168.226562 C 255.628906 168.738281 255.8125 169.238281 256.023438 169.734375 C 256.230469 170.226562 256.464844 170.710938 256.722656 171.179688 C 256.976562 171.652344 257.257812 172.109375 257.558594 172.550781 C 257.859375 172.996094 258.183594 173.421875 258.527344 173.835938 C 258.871094 174.246094 259.230469 174.640625 259.613281 175.019531 C 259.996094 175.394531 260.394531 175.75 260.8125 176.089844 C 261.230469 176.425781 261.660156 176.742188 262.109375 177.035156 C 262.558594 177.332031 263.019531 177.605469 263.492188 177.855469 C 263.96875 178.105469 264.453125 178.328125 264.949219 178.53125 C 265.445312 178.734375 265.953125 178.910156 266.464844 179.0625 C 266.980469 179.21875 267.5 179.34375 268.027344 179.445312 C 268.550781 179.546875 269.082031 179.625 269.617188 179.671875 C 270.152344 179.722656 270.683594 179.746094 271.222656 179.742188 C 271.757812 179.742188 272.292969 179.710938 272.824219 179.65625 C 273.359375 179.601562 273.890625 179.519531 274.414062 179.414062 C 274.941406 179.308594 275.457031 179.175781 275.972656 179.019531 C 276.484375 178.859375 276.988281 178.675781 277.480469 178.46875 C 277.976562 178.261719 278.460938 178.03125 278.933594 177.777344 C 279.402344 177.523438 279.863281 177.246094 280.308594 176.949219 C 280.753906 176.648438 281.179688 176.328125 281.59375 175.988281 C 282.007812 175.644531 282.402344 175.285156 282.78125 174.90625 C 283.160156 174.523438 283.519531 174.125 283.859375 173.710938 C 284.199219 173.296875 284.515625 172.863281 284.8125 172.417969 C 285.109375 171.972656 285.386719 171.511719 285.636719 171.039062 C 285.890625 170.566406 286.117188 170.082031 286.320312 169.585938 C 286.527344 169.089844 286.707031 168.585938 286.863281 168.070312 C 287.015625 167.558594 287.144531 167.039062 287.25 166.511719 C 287.355469 165.984375 287.433594 165.457031 287.484375 164.921875 C 287.539062 164.386719 287.5625 163.855469 287.5625 163.316406 C 287.558594 162.777344 287.53125 162.234375 287.472656 161.695312 C 287.414062 161.15625 287.332031 160.621094 287.222656 160.089844 C 287.113281 159.5625 286.976562 159.035156 286.816406 158.519531 C 286.65625 158 286.46875 157.492188 286.257812 156.996094 C 286.046875 156.496094 285.8125 156.007812 285.554688 155.53125 C 285.292969 155.054688 285.011719 154.59375 284.707031 154.144531 C 284.402344 153.695312 284.078125 153.265625 283.730469 152.847656 C 283.386719 152.429688 283.019531 152.03125 282.632812 151.652344 C 282.246094 151.273438 281.84375 150.910156 281.421875 150.570312 C 281 150.230469 280.5625 149.910156 280.109375 149.613281 C 279.65625 149.316406 279.191406 149.039062 278.710938 148.789062 C 278.230469 148.535156 277.742188 148.308594 277.238281 148.105469 C 276.738281 147.902344 276.226562 147.722656 275.707031 147.570312 C 275.1875 147.417969 274.660156 147.289062 274.128906 147.1875 C 273.597656 147.085938 273.0625 147.007812 272.519531 146.960938 C 271.980469 146.910156 271.441406 146.886719 270.898438 146.890625 Z M 270.898438 169.769531 C 270.476562 169.761719 270.058594 169.714844 269.644531 169.628906 C 269.234375 169.539062 268.832031 169.410156 268.445312 169.246094 C 268.058594 169.078125 267.6875 168.875 267.339844 168.636719 C 266.992188 168.398438 266.671875 168.125 266.375 167.824219 C 266.082031 167.519531 265.820312 167.191406 265.589844 166.839844 C 265.359375 166.484375 265.164062 166.113281 265.007812 165.71875 C 264.851562 165.328125 264.730469 164.925781 264.652344 164.507812 C 264.574219 164.09375 264.539062 163.675781 264.542969 163.253906 C 264.546875 162.832031 264.59375 162.414062 264.679688 162 C 264.765625 161.585938 264.890625 161.183594 265.054688 160.796875 C 265.21875 160.40625 265.421875 160.039062 265.660156 159.6875 C 265.898438 159.339844 266.164062 159.015625 266.464844 158.71875 C 266.765625 158.421875 267.09375 158.160156 267.445312 157.925781 C 267.800781 157.695312 268.171875 157.5 268.5625 157.339844 C 268.953125 157.179688 269.355469 157.0625 269.769531 156.980469 C 270.1875 156.902344 270.605469 156.863281 271.027344 156.863281 C 271.449219 156.867188 271.867188 156.910156 272.28125 156.992188 C 272.695312 157.078125 273.097656 157.199219 273.484375 157.363281 C 273.875 157.527344 274.246094 157.726562 274.597656 157.960938 C 274.945312 158.199219 275.269531 158.464844 275.570312 158.765625 C 275.867188 159.066406 276.132812 159.390625 276.367188 159.742188 C 276.601562 160.09375 276.796875 160.464844 276.957031 160.855469 C 277.121094 161.246094 277.242188 161.648438 277.324219 162.0625 C 277.40625 162.476562 277.445312 162.894531 277.445312 163.316406 C 277.445312 163.746094 277.398438 164.167969 277.3125 164.585938 C 277.226562 165.003906 277.101562 165.410156 276.933594 165.800781 C 276.765625 166.195312 276.5625 166.566406 276.324219 166.921875 C 276.085938 167.273438 275.8125 167.601562 275.507812 167.898438 C 275.203125 168.199219 274.875 168.464844 274.519531 168.699219 C 274.160156 168.933594 273.785156 169.132812 273.390625 169.292969 C 272.996094 169.453125 272.585938 169.574219 272.167969 169.652344 C 271.75 169.734375 271.324219 169.773438 270.898438 169.769531 Z M 270.898438 169.769531 " fill-opacity="1" fill-rule="nonzero"/><path fill="#e39eff" d="M 11.515625 218.597656 L 0.492188 240.773438 C 0.40625 240.945312 0.347656 241.121094 0.308594 241.308594 C 0.269531 241.492188 0.257812 241.679688 0.265625 241.867188 C 0.277344 242.058594 0.308594 242.242188 0.367188 242.421875 C 0.425781 242.601562 0.503906 242.769531 0.605469 242.929688 C 0.707031 243.089844 0.824219 243.234375 0.964844 243.363281 C 1.101562 243.492188 1.253906 243.601562 1.421875 243.691406 C 1.585938 243.78125 1.761719 243.851562 1.945312 243.894531 C 2.128906 243.941406 2.316406 243.960938 2.503906 243.957031 L 25.003906 243.957031 C 25.195312 243.960938 25.382812 243.941406 25.570312 243.894531 C 25.753906 243.847656 25.929688 243.78125 26.097656 243.6875 C 26.265625 243.597656 26.417969 243.484375 26.558594 243.355469 C 26.695312 243.222656 26.816406 243.078125 26.917969 242.914062 C 27.019531 242.753906 27.097656 242.582031 27.152344 242.398438 C 27.207031 242.214844 27.238281 242.03125 27.246094 241.839844 C 27.253906 241.648438 27.238281 241.460938 27.195312 241.273438 C 27.15625 241.085938 27.089844 240.910156 27.003906 240.738281 L 15.527344 218.566406 C 15.332031 218.191406 15.050781 217.898438 14.691406 217.679688 C 14.328125 217.464844 13.933594 217.355469 13.511719 217.359375 C 13.089844 217.363281 12.699219 217.476562 12.339844 217.699219 C 11.980469 217.921875 11.707031 218.222656 11.515625 218.597656 Z M 11.515625 218.597656 " fill-opacity="1" fill-rule="nonzero"/><path fill="#e39eff" d="M 61.613281 101.3125 C 61.613281 102.179688 61.527344 103.035156 61.359375 103.882812 C 61.191406 104.730469 60.941406 105.554688 60.609375 106.351562 C 60.277344 107.152344 59.871094 107.910156 59.394531 108.628906 C 58.914062 109.347656 58.367188 110.011719 57.753906 110.625 C 57.144531 111.234375 56.480469 111.78125 55.761719 112.261719 C 55.042969 112.742188 54.285156 113.148438 53.484375 113.476562 C 52.6875 113.808594 51.863281 114.058594 51.015625 114.226562 C 50.167969 114.394531 49.3125 114.480469 48.445312 114.480469 C 47.582031 114.480469 46.726562 114.394531 45.878906 114.226562 C 45.03125 114.058594 44.207031 113.808594 43.410156 113.476562 C 42.609375 113.148438 41.851562 112.742188 41.132812 112.261719 C 40.414062 111.78125 39.75 111.234375 39.140625 110.625 C 38.527344 110.011719 37.980469 109.347656 37.5 108.628906 C 37.019531 107.910156 36.617188 107.152344 36.285156 106.351562 C 35.953125 105.554688 35.703125 104.730469 35.535156 103.882812 C 35.367188 103.035156 35.28125 102.179688 35.28125 101.3125 C 35.28125 100.449219 35.367188 99.59375 35.535156 98.746094 C 35.703125 97.898438 35.953125 97.074219 36.285156 96.273438 C 36.617188 95.476562 37.019531 94.71875 37.5 94 C 37.980469 93.277344 38.527344 92.613281 39.140625 92.003906 C 39.75 91.390625 40.414062 90.84375 41.132812 90.367188 C 41.851562 89.886719 42.609375 89.480469 43.410156 89.148438 C 44.207031 88.816406 45.03125 88.566406 45.878906 88.398438 C 46.726562 88.230469 47.582031 88.144531 48.445312 88.144531 C 49.3125 88.144531 50.167969 88.230469 51.015625 88.398438 C 51.863281 88.566406 52.6875 88.816406 53.484375 89.148438 C 54.285156 89.480469 55.042969 89.886719 55.761719 90.367188 C 56.480469 90.84375 57.144531 91.390625 57.753906 92.003906 C 58.367188 92.613281 58.914062 93.277344 59.394531 94 C 59.871094 94.71875 60.277344 95.476562 60.609375 96.273438 C 60.941406 97.074219 61.191406 97.898438 61.359375 98.746094 C 61.527344 99.59375 61.613281 100.449219 61.613281 101.3125 Z M 61.613281 101.3125 " fill-opacity="1" fill-rule="nonzero"/><path fill="#5028af" d="M 90.863281 101.964844 C 90.863281 102.828125 90.78125 103.683594 90.613281 104.53125 C 90.441406 105.378906 90.195312 106.203125 89.863281 107.003906 C 89.53125 107.800781 89.125 108.558594 88.644531 109.277344 C 88.167969 109.996094 87.621094 110.664062 87.007812 111.273438 C 86.398438 111.886719 85.734375 112.429688 85.015625 112.910156 C 84.296875 113.390625 83.535156 113.796875 82.738281 114.128906 C 81.941406 114.457031 81.117188 114.707031 80.269531 114.878906 C 79.421875 115.046875 78.566406 115.128906 77.699219 115.128906 C 76.835938 115.128906 75.980469 115.046875 75.132812 114.878906 C 74.285156 114.707031 73.460938 114.457031 72.664062 114.128906 C 71.863281 113.796875 71.105469 113.390625 70.386719 112.910156 C 69.667969 112.429688 69.003906 111.886719 68.390625 111.273438 C 67.78125 110.664062 67.234375 109.996094 66.753906 109.277344 C 66.273438 108.558594 65.871094 107.800781 65.539062 107.003906 C 65.207031 106.203125 64.957031 105.378906 64.789062 104.53125 C 64.621094 103.683594 64.535156 102.828125 64.535156 101.964844 C 64.535156 101.097656 64.621094 100.242188 64.789062 99.394531 C 64.957031 98.546875 65.207031 97.722656 65.539062 96.925781 C 65.871094 96.125 66.273438 95.367188 66.753906 94.648438 C 67.234375 93.929688 67.78125 93.265625 68.390625 92.652344 C 69.003906 92.042969 69.667969 91.496094 70.386719 91.015625 C 71.105469 90.535156 71.863281 90.128906 72.664062 89.796875 C 73.460938 89.46875 74.285156 89.21875 75.132812 89.050781 C 75.980469 88.878906 76.835938 88.796875 77.699219 88.796875 C 78.566406 88.796875 79.421875 88.878906 80.269531 89.050781 C 81.117188 89.21875 81.941406 89.46875 82.738281 89.796875 C 83.535156 90.128906 84.296875 90.535156 85.015625 91.015625 C 85.734375 91.496094 86.398438 92.042969 87.007812 92.652344 C 87.621094 93.265625 88.167969 93.929688 88.644531 94.648438 C 89.125 95.367188 89.53125 96.125 89.863281 96.925781 C 90.195312 97.722656 90.441406 98.546875 90.613281 99.394531 C 90.78125 100.242188 90.863281 101.097656 90.863281 101.964844 Z M 90.863281 101.964844 " fill-opacity="1" fill-rule="nonzero"/><path fill="#fdcd53" d="M 120.703125 102.371094 C 120.703125 103.234375 120.621094 104.09375 120.449219 104.941406 C 120.28125 105.789062 120.03125 106.613281 119.703125 107.410156 C 119.371094 108.210938 118.964844 108.96875 118.484375 109.6875 C 118.003906 110.40625 117.460938 111.070312 116.847656 111.683594 C 116.238281 112.292969 115.570312 112.839844 114.855469 113.320312 C 114.136719 113.800781 113.375 114.207031 112.578125 114.535156 C 111.777344 114.867188 110.957031 115.117188 110.109375 115.285156 C 109.261719 115.453125 108.40625 115.539062 107.539062 115.539062 C 106.675781 115.539062 105.820312 115.453125 104.972656 115.285156 C 104.125 115.117188 103.300781 114.867188 102.503906 114.535156 C 101.703125 114.207031 100.945312 113.800781 100.226562 113.320312 C 99.507812 112.839844 98.84375 112.292969 98.230469 111.683594 C 97.621094 111.070312 97.074219 110.40625 96.59375 109.6875 C 96.113281 108.96875 95.707031 108.210938 95.378906 107.410156 C 95.046875 106.613281 94.796875 105.789062 94.628906 104.941406 C 94.460938 104.09375 94.375 103.234375 94.375 102.371094 C 94.375 101.507812 94.460938 100.652344 94.628906 99.804688 C 94.796875 98.953125 95.046875 98.132812 95.378906 97.332031 C 95.707031 96.535156 96.113281 95.773438 96.59375 95.054688 C 97.074219 94.335938 97.621094 93.671875 98.230469 93.0625 C 98.84375 92.449219 99.507812 91.902344 100.226562 91.421875 C 100.945312 90.945312 101.703125 90.539062 102.503906 90.207031 C 103.300781 89.875 104.125 89.625 104.972656 89.457031 C 105.820312 89.289062 106.675781 89.203125 107.539062 89.203125 C 108.40625 89.203125 109.261719 89.289062 110.109375 89.457031 C 110.957031 89.625 111.777344 89.875 112.578125 90.207031 C 113.375 90.539062 114.136719 90.945312 114.855469 91.421875 C 115.570312 91.902344 116.238281 92.449219 116.847656 93.0625 C 117.460938 93.671875 118.003906 94.335938 118.484375 95.054688 C 118.964844 95.773438 119.371094 96.535156 119.703125 97.332031 C 120.03125 98.132812 120.28125 98.953125 120.449219 99.804688 C 120.621094 100.652344 120.703125 101.507812 120.703125 102.371094 Z M 120.703125 102.371094 " fill-opacity="1" fill-rule="nonzero"/><path fill="#ffffff" d="M 45.621094 106 L 42.136719 101.996094 C 41.910156 101.746094 41.796875 101.453125 41.796875 101.113281 C 41.796875 100.777344 41.910156 100.484375 42.136719 100.234375 C 42.261719 100.105469 42.40625 100.003906 42.574219 99.933594 C 42.738281 99.863281 42.914062 99.832031 43.09375 99.835938 C 43.273438 99.839844 43.445312 99.878906 43.609375 99.953125 C 43.773438 100.03125 43.914062 100.136719 44.035156 100.273438 L 46.882812 103.542969 L 52.46875 96.738281 C 52.585938 96.597656 52.722656 96.488281 52.882812 96.40625 C 53.046875 96.324219 53.214844 96.28125 53.398438 96.273438 C 53.578125 96.261719 53.753906 96.292969 53.921875 96.355469 C 54.089844 96.421875 54.238281 96.519531 54.367188 96.648438 C 54.597656 96.890625 54.71875 97.179688 54.726562 97.519531 C 54.738281 97.855469 54.632812 98.152344 54.414062 98.40625 L 48.210938 105.960938 C 48.054688 106.152344 47.863281 106.304688 47.636719 106.414062 C 47.414062 106.523438 47.175781 106.578125 46.925781 106.582031 C 46.675781 106.585938 46.4375 106.535156 46.210938 106.433594 C 45.980469 106.332031 45.785156 106.1875 45.621094 106 Z M 45.621094 106 " fill-opacity="1" fill-rule="nonzero"/><path fill="#ffffff" d="M 82.46875 97.195312 L 83.511719 98.4375 C 83.601562 98.542969 83.636719 98.660156 83.625 98.796875 C 83.613281 98.929688 83.554688 99.039062 83.453125 99.125 L 74.089844 106.984375 C 73.988281 107.070312 73.867188 107.109375 73.734375 107.097656 C 73.597656 107.085938 73.488281 107.027344 73.402344 106.925781 L 72.359375 105.679688 C 72.273438 105.578125 72.234375 105.457031 72.246094 105.324219 C 72.257812 105.191406 72.316406 105.078125 72.417969 104.992188 L 81.78125 97.132812 C 81.886719 97.046875 82.003906 97.011719 82.136719 97.023438 C 82.273438 97.035156 82.382812 97.089844 82.46875 97.195312 Z M 82.46875 97.195312 " fill-opacity="1" fill-rule="nonzero"/><path fill="#ffffff" d="M 83.363281 105.90625 L 82.265625 107.105469 C 82.175781 107.207031 82.0625 107.257812 81.929688 107.265625 C 81.796875 107.273438 81.679688 107.230469 81.578125 107.140625 L 72.542969 98.898438 C 72.445312 98.808594 72.390625 98.695312 72.386719 98.5625 C 72.378906 98.425781 72.421875 98.308594 72.511719 98.210938 L 73.605469 97.007812 C 73.695312 96.910156 73.808594 96.855469 73.945312 96.851562 C 74.078125 96.84375 74.195312 96.886719 74.296875 96.976562 L 83.332031 105.214844 C 83.429688 105.308594 83.484375 105.421875 83.488281 105.554688 C 83.496094 105.691406 83.453125 105.808594 83.363281 105.90625 Z M 83.363281 105.90625 " fill-opacity="1" fill-rule="nonzero"/><path fill="#ffffff" d="M 102.730469 97.957031 L 111.722656 97.957031 L 111.722656 107.769531 L 107.226562 105.316406 L 102.730469 107.769531 Z M 102.730469 97.957031 " fill-opacity="1" fill-rule="nonzero"/><path fill="#e39eff" d="M 258.050781 314.335938 L 341.851562 314.25 C 341.851562 314.25 335.582031 301.644531 326.195312 302.96875 C 316.804688 304.296875 316.476562 311.660156 300.441406 302.839844 C 284.402344 294.015625 286.398438 289.496094 273.386719 296.179688 C 260.378906 302.859375 261.914062 293.441406 248.902344 300.121094 C 235.894531 306.804688 231.070312 314.214844 231.070312 314.214844 Z M 258.050781 314.335938 " fill-opacity="1" fill-rule="nonzero"/><path fill="#5028af" d="M 284.214844 314.460938 L 368.011719 314.378906 C 368.011719 314.378906 361.746094 301.769531 352.359375 303.097656 C 342.96875 304.425781 342.640625 311.789062 326.601562 302.964844 C 310.566406 294.144531 312.5625 289.625 299.550781 296.304688 C 286.542969 302.988281 288.078125 293.566406 275.066406 300.25 C 262.058594 306.933594 257.230469 314.34375 257.230469 314.34375 Z M 284.214844 314.460938 " fill-opacity="1" fill-rule="nonzero"/><path fill="#e39eff" d="M 347.375 283.136719 C 345.910156 288.476562 341.355469 291.886719 337.199219 290.746094 C 333.046875 289.605469 330.867188 284.351562 332.328125 279.007812 C 333.789062 273.664062 340.578125 263.9375 344.734375 265.074219 C 348.886719 266.214844 348.839844 277.792969 347.375 283.136719 Z M 347.375 283.136719 " fill-opacity="1" fill-rule="nonzero"/><path fill="#5028af" d="M 337.1875 307.1875 C 336.925781 305.964844 336.519531 285.882812 340.050781 278.199219 L 340.417969 278.371094 C 336.925781 285.984375 337.324219 305.890625 337.582031 307.105469 Z M 337.1875 307.1875 " fill-opacity="1" fill-rule="nonzero"/><path fill="#e39eff" d="M 321.273438 294.371094 C 323.523438 297.566406 327.347656 298.808594 329.8125 297.140625 C 332.277344 295.472656 332.449219 291.53125 330.199219 288.328125 C 327.945312 285.128906 321.132812 280.21875 318.667969 281.886719 C 316.203125 283.554688 319.019531 291.171875 321.273438 294.371094 Z M 321.273438 294.371094 " fill-opacity="1" fill-rule="nonzero"/><path fill="#5028af" d="M 333.433594 308.015625 C 333.3125 307.160156 328.796875 293.976562 324.664062 289.738281 L 324.957031 289.453125 C 329.246094 293.851562 333.710938 307.0625 333.839844 307.957031 Z M 333.433594 308.015625 " fill-opacity="1" fill-rule="nonzero"/><path fill="#e39eff" d="M 356.800781 295.214844 C 354.757812 298.460938 351.203125 299.777344 348.859375 298.15625 C 346.515625 296.539062 346.273438 292.601562 348.316406 289.359375 C 350.355469 286.113281 356.640625 281.058594 358.984375 282.675781 C 361.328125 284.292969 358.84375 291.972656 356.800781 295.214844 Z M 356.800781 295.214844 " fill-opacity="1" fill-rule="nonzero"/><path fill="#5028af" d="M 345.707031 309.109375 L 345.300781 309.066406 C 345.402344 308.167969 349.308594 294.871094 353.234375 290.382812 L 353.539062 290.652344 C 349.757812 294.972656 345.804688 308.253906 345.707031 309.109375 Z M 345.707031 309.109375 " fill-opacity="1" fill-rule="nonzero"/><path fill="#e39eff" d="M 85.292969 201.304688 C 85.292969 201.304688 64.878906 193.417969 68.125 171.144531 C 68.125 171.140625 86.6875 177.175781 85.292969 201.304688 Z M 85.292969 201.304688 " fill-opacity="1" fill-rule="nonzero"/><path fill="#e39eff" d="M 88.742188 201.492188 C 88.742188 201.492188 86.5625 179.710938 107.898438 172.554688 C 107.898438 172.554688 110.898438 191.839844 88.742188 201.492188 Z M 88.742188 201.492188 " fill-opacity="1" fill-rule="nonzero"/><path fill="#e39eff" d="M 86.652344 201.597656 C 86.652344 201.597656 73.691406 183.960938 88.410156 166.929688 C 88.410156 166.933594 100.808594 182.003906 86.652344 201.597656 Z M 86.652344 201.597656 " fill-opacity="1" fill-rule="nonzero"/><path fill="#6530cb" d="M 101.8125 316.921875 L 72.90625 316.921875 L 68.089844 197.652344 L 104.824219 197.652344 Z M 101.8125 316.921875 " fill-opacity="1" fill-rule="nonzero"/></svg>