<svg xmlns="http://www.w3.org/2000/svg" xmlns:xlink="http://www.w3.org/1999/xlink" width="500" zoomAndPan="magnify" viewBox="0 0 375 374.999991" height="500" preserveAspectRatio="xMidYMid meet" version="1.0"><defs><clipPath id="ef4b04712a"><path d="M 109.765625 109.765625 L 265.015625 109.765625 L 265.015625 265.015625 L 109.765625 265.015625 Z M 109.765625 109.765625 " clip-rule="nonzero"/></clipPath></defs><rect x="-37.5" width="450" fill="#ffffff" y="-37.499999" height="449.999989" fill-opacity="1"/><rect x="-37.5" width="450" fill="#ffffff" y="-37.499999" height="449.999989" fill-opacity="1"/><rect x="-37.5" width="450" fill="#380e8b" y="-37.499999" height="449.999989" fill-opacity="1"/><g clip-path="url(#ef4b04712a)"><path fill="#ffffff" d="M 206.796875 129.171875 C 174.652344 129.171875 148.578125 155.234375 148.578125 187.382812 C 148.578125 208.816406 165.953125 226.195312 187.390625 226.195312 C 208.824219 226.195312 226.195312 208.816406 226.203125 187.382812 C 226.203125 173.105469 214.621094 161.511719 200.328125 161.511719 C 186.039062 161.511719 174.449219 173.105469 174.449219 187.386719 C 174.449219 194.539062 180.242188 200.324219 187.390625 200.324219 C 194.535156 200.324219 200.328125 194.539062 200.328125 187.386719 L 187.390625 187.386719 C 187.390625 180.234375 193.183594 174.449219 200.328125 174.449219 C 207.472656 174.449219 213.261719 180.234375 213.261719 187.386719 C 213.261719 201.683594 201.679688 213.261719 187.390625 213.261719 C 173.101562 213.261719 161.515625 201.683594 161.515625 187.390625 C 161.515625 165.960938 178.894531 148.578125 200.328125 148.578125 C 221.765625 148.578125 239.132812 165.953125 239.140625 187.382812 L 239.140625 187.375 L 239.140625 187.390625 L 239.140625 187.382812 C 239.132812 215.960938 215.96875 239.132812 187.390625 239.132812 C 158.808594 239.132812 135.636719 215.960938 135.636719 187.382812 L 135.636719 187.390625 L 135.636719 187.375 L 135.636719 187.382812 C 135.636719 148.089844 167.503906 116.230469 206.796875 116.230469 C 211.886719 116.230469 216.847656 116.789062 221.632812 117.804688 C 211.292969 112.707031 199.695312 109.765625 187.390625 109.765625 C 144.519531 109.765625 109.765625 144.519531 109.765625 187.390625 C 109.765625 230.257812 144.519531 265.015625 187.390625 265.015625 C 230.257812 265.015625 265.015625 230.257812 265.015625 187.390625 C 265.015625 185.378906 264.863281 183.410156 264.710938 181.4375 C 261.730469 152.082031 236.941406 129.171875 206.796875 129.171875 Z M 206.796875 129.171875 " fill-opacity="1" fill-rule="nonzero"/></g></svg>