<svg xmlns="http://www.w3.org/2000/svg" xmlns:xlink="http://www.w3.org/1999/xlink" width="500" zoomAndPan="magnify" viewBox="0 0 375 149.999998" height="200" preserveAspectRatio="xMidYMid meet" version="1.0"><defs><g/></defs><g fill="#ffffff" fill-opacity="1"><g transform="translate(97.974337, 99.54223)"><g><path d="M 4.203125 0 L 4.203125 -46.734375 L 37.546875 -46.734375 L 37.546875 -37.28125 L 16.21875 -37.28125 L 16.21875 -28.484375 L 36.171875 -28.484375 L 36.171875 -19.03125 L 16.21875 -19.03125 L 16.21875 -9.453125 L 37.546875 -9.453125 L 37.546875 0 Z M 4.203125 0 "/></g></g></g><g fill="#ffffff" fill-opacity="1"><g transform="translate(137.612212, 99.54223)"><g><path d="M 17 0.53125 C 10.351562 0.53125 5.101562 -0.804688 1.25 -3.484375 L 4.265625 -11.546875 C 6.054688 -10.328125 8.085938 -9.378906 10.359375 -8.703125 C 12.640625 -8.023438 14.875 -7.6875 17.0625 -7.6875 C 18.414062 -7.6875 19.460938 -7.878906 20.203125 -8.265625 C 20.953125 -8.660156 21.328125 -9.207031 21.328125 -9.90625 C 21.328125 -10.519531 21.050781 -11.015625 20.5 -11.390625 C 19.957031 -11.765625 18.921875 -12.101562 17.390625 -12.40625 L 12.015625 -13.65625 C 8.597656 -14.351562 6.132812 -15.457031 4.625 -16.96875 C 3.113281 -18.476562 2.359375 -20.566406 2.359375 -23.234375 C 2.359375 -25.378906 2.992188 -27.28125 4.265625 -28.9375 C 5.535156 -30.601562 7.296875 -31.90625 9.546875 -32.84375 C 11.804688 -33.789062 14.398438 -34.265625 17.328125 -34.265625 C 19.734375 -34.265625 22.09375 -33.910156 24.40625 -33.203125 C 26.726562 -32.503906 28.898438 -31.523438 30.921875 -30.265625 L 27.765625 -22.390625 C 26.015625 -23.523438 24.21875 -24.394531 22.375 -25 C 20.539062 -25.613281 18.816406 -25.921875 17.203125 -25.921875 C 15.890625 -25.921875 14.859375 -25.710938 14.109375 -25.296875 C 13.367188 -24.890625 13 -24.289062 13 -23.5 C 13 -23.019531 13.21875 -22.632812 13.65625 -22.34375 C 14.09375 -22.0625 14.921875 -21.769531 16.140625 -21.46875 L 21.734375 -20.21875 C 25.273438 -19.382812 27.820312 -18.164062 29.375 -16.5625 C 30.925781 -14.96875 31.703125 -12.796875 31.703125 -10.046875 C 31.703125 -6.765625 30.398438 -4.179688 27.796875 -2.296875 C 25.191406 -0.410156 21.59375 0.53125 17 0.53125 Z M 17 0.53125 "/></g></g></g><g fill="#ffffff" fill-opacity="1"><g transform="translate(170.884393, 99.54223)"><g><path d="M 23.234375 -9.0625 C 24.023438 -9.0625 25.078125 -9.191406 26.390625 -9.453125 L 26.390625 -0.453125 C 24.765625 0.203125 22.707031 0.53125 20.21875 0.53125 C 15.707031 0.53125 12.28125 -0.738281 9.9375 -3.28125 C 7.601562 -5.820312 6.4375 -9.34375 6.4375 -13.84375 L 6.4375 -24.609375 L 0.203125 -24.609375 L 0.203125 -33.34375 L 6.4375 -33.34375 L 6.4375 -40.890625 L 18.3125 -44.703125 L 18.3125 -33.34375 L 26.328125 -33.34375 L 26.328125 -24.609375 L 18.3125 -24.609375 L 18.3125 -13.84375 C 18.3125 -12.269531 18.78125 -11.078125 19.71875 -10.265625 C 20.664062 -9.460938 21.835938 -9.0625 23.234375 -9.0625 Z M 23.234375 -9.0625 "/></g></g></g><g fill="#ffffff" fill-opacity="1"><g transform="translate(198.184655, 99.54223)"><g><path d="M 34.328125 -15.484375 L 13.390625 -15.484375 C 13.609375 -12.910156 14.351562 -11.050781 15.625 -9.90625 C 16.894531 -8.769531 18.753906 -8.203125 21.203125 -8.203125 C 22.867188 -8.203125 24.53125 -8.472656 26.1875 -9.015625 C 27.851562 -9.566406 29.363281 -10.328125 30.71875 -11.296875 L 33.734375 -3.40625 C 32.078125 -2.1875 30.066406 -1.222656 27.703125 -0.515625 C 25.335938 0.179688 22.972656 0.53125 20.609375 0.53125 C 16.804688 0.53125 13.503906 -0.164062 10.703125 -1.5625 C 7.898438 -2.96875 5.753906 -4.972656 4.265625 -7.578125 C 2.773438 -10.179688 2.03125 -13.253906 2.03125 -16.796875 C 2.03125 -20.171875 2.738281 -23.179688 4.15625 -25.828125 C 5.582031 -28.472656 7.550781 -30.539062 10.0625 -32.03125 C 12.582031 -33.519531 15.460938 -34.265625 18.703125 -34.265625 C 21.859375 -34.265625 24.613281 -33.5625 26.96875 -32.15625 C 29.332031 -30.757812 31.148438 -28.757812 32.421875 -26.15625 C 33.691406 -23.550781 34.328125 -20.519531 34.328125 -17.0625 Z M 19.03125 -26.125 C 16.101562 -26.125 14.265625 -24.414062 13.515625 -21 L 24.15625 -21 C 23.71875 -24.414062 22.007812 -26.125 19.03125 -26.125 Z M 19.03125 -26.125 "/></g></g></g><g fill="#ffffff" fill-opacity="1"><g transform="translate(234.475607, 99.54223)"><g><path d="M 25.53125 -34.265625 C 28.414062 -34.265625 30.972656 -33.550781 33.203125 -32.125 C 35.441406 -30.707031 37.179688 -28.6875 38.421875 -26.0625 C 39.671875 -23.4375 40.296875 -20.414062 40.296875 -17 C 40.296875 -13.539062 39.660156 -10.488281 38.390625 -7.84375 C 37.128906 -5.195312 35.378906 -3.140625 33.140625 -1.671875 C 30.910156 -0.203125 28.375 0.53125 25.53125 0.53125 C 23.300781 0.53125 21.265625 0.0820312 19.421875 -0.8125 C 17.585938 -1.71875 16.210938 -2.957031 15.296875 -4.53125 L 15.296875 0 L 3.546875 0 L 3.546875 -48.3125 L 15.421875 -48.3125 L 15.421875 -29.34375 C 16.390625 -30.832031 17.769531 -32.023438 19.5625 -32.921875 C 21.351562 -33.816406 23.34375 -34.265625 25.53125 -34.265625 Z M 21.921875 -8.34375 C 24.023438 -8.34375 25.632812 -9.082031 26.75 -10.5625 C 27.863281 -12.050781 28.421875 -14.195312 28.421875 -17 C 28.421875 -19.664062 27.875 -21.707031 26.78125 -23.125 C 25.6875 -24.550781 24.066406 -25.265625 21.921875 -25.265625 C 19.773438 -25.265625 18.132812 -24.539062 17 -23.09375 C 15.863281 -21.65625 15.296875 -19.582031 15.296875 -16.875 C 15.296875 -14.070312 15.863281 -11.945312 17 -10.5 C 18.132812 -9.0625 19.773438 -8.34375 21.921875 -8.34375 Z M 21.921875 -8.34375 "/></g></g></g><g fill="#ffffff" fill-opacity="1"><g transform="translate(276.804125, 99.54223)"><g><path d="M 38.65625 -33.34375 L 38.65625 0 L 26.984375 0 L 26.984375 -4.53125 C 26.015625 -2.957031 24.609375 -1.71875 22.765625 -0.8125 C 20.929688 0.0820312 18.921875 0.53125 16.734375 0.53125 C 13.890625 0.53125 11.351562 -0.164062 9.125 -1.5625 C 6.894531 -2.96875 5.15625 -4.972656 3.90625 -7.578125 C 2.65625 -10.179688 2.03125 -13.191406 2.03125 -16.609375 C 2.03125 -20.066406 2.664062 -23.128906 3.9375 -25.796875 C 5.207031 -28.460938 6.957031 -30.539062 9.1875 -32.03125 C 11.414062 -33.519531 13.929688 -34.265625 16.734375 -34.265625 C 18.921875 -34.265625 20.921875 -33.789062 22.734375 -32.84375 C 24.554688 -31.90625 25.972656 -30.648438 26.984375 -29.078125 L 26.984375 -33.34375 Z M 20.421875 -8.34375 C 22.515625 -8.34375 24.128906 -9.0625 25.265625 -10.5 C 26.410156 -11.945312 26.984375 -14.023438 26.984375 -16.734375 C 26.984375 -19.492188 26.410156 -21.601562 25.265625 -23.0625 C 24.128906 -24.53125 22.515625 -25.265625 20.421875 -25.265625 C 18.359375 -25.265625 16.734375 -24.507812 15.546875 -23 C 14.367188 -21.5 13.78125 -19.367188 13.78125 -16.609375 C 13.78125 -13.941406 14.347656 -11.894531 15.484375 -10.46875 C 16.628906 -9.050781 18.273438 -8.34375 20.421875 -8.34375 Z M 20.421875 -8.34375 "/></g></g></g><g fill="#ffffff" fill-opacity="1"><g transform="translate(319.001391, 99.54223)"><g><path d="M 25.859375 -34.265625 C 29.796875 -34.265625 32.738281 -33.070312 34.6875 -30.6875 C 36.632812 -28.300781 37.609375 -24.703125 37.609375 -19.890625 L 37.609375 0 L 25.734375 0 L 25.734375 -19.359375 C 25.734375 -21.421875 25.378906 -22.898438 24.671875 -23.796875 C 23.972656 -24.691406 22.882812 -25.140625 21.40625 -25.140625 C 19.601562 -25.140625 18.15625 -24.535156 17.0625 -23.328125 C 15.96875 -22.128906 15.421875 -20.546875 15.421875 -18.578125 L 15.421875 0 L 3.546875 0 L 3.546875 -23.765625 C 3.546875 -27.347656 3.367188 -30.539062 3.015625 -33.34375 L 14.171875 -33.34375 L 14.765625 -28.421875 C 16.035156 -30.304688 17.609375 -31.75 19.484375 -32.75 C 21.367188 -33.757812 23.492188 -34.265625 25.859375 -34.265625 Z M 25.859375 -34.265625 "/></g></g></g><g fill="#ff5757" fill-opacity="1"><g transform="translate(15.000002, 107.980068)"><g><path d="M 40.859375 -35.625 C 40.242188 -32.894531 36.316406 -30.960938 29.078125 -29.828125 C 21.835938 -28.691406 17.332031 -26.859375 15.5625 -24.328125 C 12.988281 -20.554688 14.351562 -16.019531 19.65625 -10.71875 C 27.613281 -5.34375 33.015625 -2.65625 35.859375 -2.65625 C 37.929688 -3.15625 39.21875 -3.691406 39.71875 -4.265625 L 40.984375 -6.109375 C 41.328125 -7.910156 41.40625 -9.910156 41.21875 -12.109375 C 39.945312 -16.410156 39.769531 -19.253906 40.6875 -20.640625 L 40.859375 -20.859375 C 41.054688 -21.128906 41.328125 -21.285156 41.671875 -21.328125 L 45.9375 -21.328125 C 51.195312 -21.328125 54.0625 -18.097656 54.53125 -11.640625 C 55.101562 -8.992188 54.523438 -5.304688 52.796875 -0.578125 L 49.6875 4.03125 C 44.300781 9.101562 38.84375 11.640625 33.3125 11.640625 C 28.238281 11.640625 22.398438 9.796875 15.796875 6.109375 C 10.140625 2.691406 7.445312 0.769531 7.71875 0.34375 C 4.644531 -1.15625 1.726562 -4.613281 -1.03125 -10.03125 C -2.53125 -16.632812 -1.800781 -22.09375 1.15625 -26.40625 C 3.957031 -30.507812 10.394531 -34.984375 20.46875 -39.828125 C 19.65625 -40.253906 18.691406 -40.753906 17.578125 -41.328125 C 12.203125 -44.972656 9.820312 -49.046875 10.4375 -53.546875 L 10.484375 -54.015625 C 11.710938 -63.347656 21.992188 -72.953125 41.328125 -82.828125 C 49.128906 -86.210938 54.816406 -87.90625 58.390625 -87.90625 C 60.234375 -87.90625 61.925781 -85.0625 63.46875 -79.375 L 63.34375 -78.671875 C 63.226562 -77.710938 60.234375 -77.175781 54.359375 -77.0625 C 50.929688 -76.289062 46.453125 -74.289062 40.921875 -71.0625 C 32.546875 -66.144531 28.128906 -61.84375 27.671875 -58.15625 C 26.398438 -52.164062 28.429688 -47.59375 33.765625 -44.4375 C 39.109375 -41.289062 41.472656 -38.351562 40.859375 -35.625 Z M 40.859375 -35.625 "/></g></g></g></svg>