<svg xmlns="http://www.w3.org/2000/svg" xmlns:xlink="http://www.w3.org/1999/xlink" width="500" zoomAndPan="magnify" viewBox="0 0 375 149.999998" height="200" preserveAspectRatio="xMidYMid meet" version="1.0"><defs><g/></defs><g fill="#ffffff" fill-opacity="1"><g transform="translate(107.005587, 88.601152)"><g><path d="M 2.375 0 L 2.375 -26.421875 L 21.234375 -26.421875 L 21.234375 -21.078125 L 9.171875 -21.078125 L 9.171875 -16.109375 L 20.453125 -16.109375 L 20.453125 -10.765625 L 9.171875 -10.765625 L 9.171875 -5.34375 L 21.234375 -5.34375 L 21.234375 0 Z M 2.375 0 "/></g></g></g><g fill="#ffffff" fill-opacity="1"><g transform="translate(129.414937, 88.601152)"><g><path d="M 9.609375 0.296875 C 5.847656 0.296875 2.878906 -0.457031 0.703125 -1.96875 L 2.40625 -6.53125 C 3.425781 -5.84375 4.578125 -5.304688 5.859375 -4.921875 C 7.148438 -4.535156 8.414062 -4.34375 9.65625 -4.34375 C 10.414062 -4.34375 11.003906 -4.453125 11.421875 -4.671875 C 11.847656 -4.898438 12.0625 -5.210938 12.0625 -5.609375 C 12.0625 -5.953125 11.90625 -6.226562 11.59375 -6.4375 C 11.289062 -6.644531 10.703125 -6.835938 9.828125 -7.015625 L 6.796875 -7.71875 C 4.859375 -8.113281 3.460938 -8.738281 2.609375 -9.59375 C 1.765625 -10.445312 1.34375 -11.628906 1.34375 -13.140625 C 1.34375 -14.347656 1.695312 -15.421875 2.40625 -16.359375 C 3.125 -17.304688 4.117188 -18.046875 5.390625 -18.578125 C 6.671875 -19.109375 8.140625 -19.375 9.796875 -19.375 C 11.160156 -19.375 12.492188 -19.175781 13.796875 -18.78125 C 15.109375 -18.382812 16.335938 -17.828125 17.484375 -17.109375 L 15.703125 -12.65625 C 14.710938 -13.300781 13.695312 -13.796875 12.65625 -14.140625 C 11.613281 -14.484375 10.632812 -14.65625 9.71875 -14.65625 C 8.976562 -14.65625 8.394531 -14.535156 7.96875 -14.296875 C 7.550781 -14.066406 7.34375 -13.726562 7.34375 -13.28125 C 7.34375 -13.007812 7.46875 -12.789062 7.71875 -12.625 C 7.96875 -12.46875 8.4375 -12.304688 9.125 -12.140625 L 12.28125 -11.4375 C 14.289062 -10.957031 15.734375 -10.265625 16.609375 -9.359375 C 17.484375 -8.460938 17.921875 -7.234375 17.921875 -5.671875 C 17.921875 -3.816406 17.1875 -2.359375 15.71875 -1.296875 C 14.25 -0.234375 12.210938 0.296875 9.609375 0.296875 Z M 9.609375 0.296875 "/></g></g></g><g fill="#ffffff" fill-opacity="1"><g transform="translate(148.22543, 88.601152)"><g><path d="M 13.140625 -5.125 C 13.585938 -5.125 14.179688 -5.195312 14.921875 -5.34375 L 14.921875 -0.265625 C 14.003906 0.109375 12.84375 0.296875 11.4375 0.296875 C 8.882812 0.296875 6.945312 -0.421875 5.625 -1.859375 C 4.300781 -3.296875 3.640625 -5.285156 3.640625 -7.828125 L 3.640625 -13.921875 L 0.109375 -13.921875 L 0.109375 -18.859375 L 3.640625 -18.859375 L 3.640625 -23.125 L 10.359375 -25.265625 L 10.359375 -18.859375 L 14.875 -18.859375 L 14.875 -13.921875 L 10.359375 -13.921875 L 10.359375 -7.828125 C 10.359375 -6.941406 10.625 -6.269531 11.15625 -5.8125 C 11.6875 -5.351562 12.347656 -5.125 13.140625 -5.125 Z M 13.140625 -5.125 "/></g></g></g><g fill="#ffffff" fill-opacity="1"><g transform="translate(163.659686, 88.601152)"><g><path d="M 19.40625 -8.765625 L 7.578125 -8.765625 C 7.691406 -7.296875 8.109375 -6.238281 8.828125 -5.59375 C 9.546875 -4.957031 10.597656 -4.640625 11.984375 -4.640625 C 12.921875 -4.640625 13.859375 -4.789062 14.796875 -5.09375 C 15.742188 -5.40625 16.601562 -5.835938 17.375 -6.390625 L 19.078125 -1.9375 C 18.140625 -1.238281 17 -0.691406 15.65625 -0.296875 C 14.320312 0.0976562 12.988281 0.296875 11.65625 0.296875 C 9.5 0.296875 7.628906 -0.0976562 6.046875 -0.890625 C 4.460938 -1.679688 3.25 -2.8125 2.40625 -4.28125 C 1.570312 -5.757812 1.15625 -7.5 1.15625 -9.5 C 1.15625 -11.40625 1.554688 -13.101562 2.359375 -14.59375 C 3.160156 -16.09375 4.269531 -17.265625 5.6875 -18.109375 C 7.113281 -18.953125 8.742188 -19.375 10.578125 -19.375 C 12.359375 -19.375 13.914062 -18.976562 15.25 -18.1875 C 16.582031 -17.394531 17.609375 -16.257812 18.328125 -14.78125 C 19.046875 -13.3125 19.40625 -11.601562 19.40625 -9.65625 Z M 10.765625 -14.765625 C 9.109375 -14.765625 8.066406 -13.800781 7.640625 -11.875 L 13.65625 -11.875 C 13.40625 -13.800781 12.441406 -14.765625 10.765625 -14.765625 Z M 10.765625 -14.765625 "/></g></g></g><g fill="#ffffff" fill-opacity="1"><g transform="translate(184.176847, 88.601152)"><g><path d="M 14.4375 -19.375 C 16.070312 -19.375 17.519531 -18.96875 18.78125 -18.15625 C 20.039062 -17.351562 21.019531 -16.207031 21.71875 -14.71875 C 22.425781 -13.238281 22.78125 -11.535156 22.78125 -9.609375 C 22.78125 -7.660156 22.421875 -5.9375 21.703125 -4.4375 C 20.992188 -2.9375 20.003906 -1.769531 18.734375 -0.9375 C 17.472656 -0.113281 16.039062 0.296875 14.4375 0.296875 C 13.175781 0.296875 12.023438 0.046875 10.984375 -0.453125 C 9.941406 -0.960938 9.160156 -1.664062 8.640625 -2.5625 L 8.640625 0 L 2 0 L 2 -27.3125 L 8.71875 -27.3125 L 8.71875 -16.59375 C 9.257812 -17.425781 10.035156 -18.097656 11.046875 -18.609375 C 12.066406 -19.117188 13.195312 -19.375 14.4375 -19.375 Z M 12.390625 -4.71875 C 13.578125 -4.71875 14.484375 -5.132812 15.109375 -5.96875 C 15.742188 -6.8125 16.0625 -8.023438 16.0625 -9.609375 C 16.0625 -11.117188 15.753906 -12.273438 15.140625 -13.078125 C 14.523438 -13.878906 13.609375 -14.28125 12.390625 -14.28125 C 11.179688 -14.28125 10.253906 -13.875 9.609375 -13.0625 C 8.960938 -12.25 8.640625 -11.070312 8.640625 -9.53125 C 8.640625 -7.945312 8.960938 -6.75 9.609375 -5.9375 C 10.253906 -5.125 11.179688 -4.71875 12.390625 -4.71875 Z M 12.390625 -4.71875 "/></g></g></g><g fill="#ffffff" fill-opacity="1"><g transform="translate(208.107357, 88.601152)"><g><path d="M 21.859375 -18.859375 L 21.859375 0 L 15.25 0 L 15.25 -2.5625 C 14.707031 -1.664062 13.914062 -0.960938 12.875 -0.453125 C 11.832031 0.046875 10.695312 0.296875 9.46875 0.296875 C 7.851562 0.296875 6.414062 -0.0976562 5.15625 -0.890625 C 3.894531 -1.679688 2.910156 -2.8125 2.203125 -4.28125 C 1.503906 -5.757812 1.15625 -7.460938 1.15625 -9.390625 C 1.15625 -11.347656 1.507812 -13.078125 2.21875 -14.578125 C 2.9375 -16.085938 3.925781 -17.265625 5.1875 -18.109375 C 6.457031 -18.953125 7.882812 -19.375 9.46875 -19.375 C 10.695312 -19.375 11.828125 -19.109375 12.859375 -18.578125 C 13.890625 -18.046875 14.6875 -17.332031 15.25 -16.4375 L 15.25 -18.859375 Z M 11.546875 -4.71875 C 12.734375 -4.71875 13.644531 -5.125 14.28125 -5.9375 C 14.925781 -6.75 15.25 -7.925781 15.25 -9.46875 C 15.25 -11.019531 14.925781 -12.207031 14.28125 -13.03125 C 13.644531 -13.863281 12.734375 -14.28125 11.546875 -14.28125 C 10.378906 -14.28125 9.460938 -13.851562 8.796875 -13 C 8.128906 -12.15625 7.796875 -10.953125 7.796875 -9.390625 C 7.796875 -7.878906 8.113281 -6.722656 8.75 -5.921875 C 9.394531 -5.117188 10.328125 -4.71875 11.546875 -4.71875 Z M 11.546875 -4.71875 "/></g></g></g><g fill="#ffffff" fill-opacity="1"><g transform="translate(231.963664, 88.601152)"><g><path d="M 14.625 -19.375 C 16.851562 -19.375 18.515625 -18.695312 19.609375 -17.34375 C 20.710938 -16 21.265625 -13.96875 21.265625 -11.25 L 21.265625 0 L 14.546875 0 L 14.546875 -10.953125 C 14.546875 -12.109375 14.347656 -12.941406 13.953125 -13.453125 C 13.554688 -13.960938 12.9375 -14.21875 12.09375 -14.21875 C 11.082031 -14.21875 10.265625 -13.875 9.640625 -13.1875 C 9.023438 -12.507812 8.71875 -11.613281 8.71875 -10.5 L 8.71875 0 L 2 0 L 2 -13.4375 C 2 -15.46875 1.898438 -17.273438 1.703125 -18.859375 L 8.015625 -18.859375 L 8.34375 -16.0625 C 9.0625 -17.132812 9.953125 -17.953125 11.015625 -18.515625 C 12.085938 -19.085938 13.289062 -19.375 14.625 -19.375 Z M 14.625 -19.375 "/></g></g></g><g fill="#ff5757" fill-opacity="1"><g transform="translate(38.602453, 98.726151)"><g><path d="M 29.734375 -25.921875 C 29.285156 -23.929688 26.425781 -22.523438 21.15625 -21.703125 C 15.882812 -20.878906 12.609375 -19.546875 11.328125 -17.703125 C 9.453125 -14.960938 10.441406 -11.660156 14.296875 -7.796875 C 20.085938 -3.878906 24.019531 -1.921875 26.09375 -1.921875 C 27.601562 -2.285156 28.539062 -2.679688 28.90625 -3.109375 L 29.828125 -4.453125 C 30.078125 -5.765625 30.128906 -7.21875 29.984375 -8.8125 C 29.066406 -11.9375 28.941406 -14.003906 29.609375 -15.015625 L 29.734375 -15.1875 C 29.878906 -15.382812 30.078125 -15.492188 30.328125 -15.515625 L 33.4375 -15.515625 C 37.257812 -15.515625 39.34375 -13.164062 39.6875 -8.46875 C 40.101562 -6.539062 39.679688 -3.859375 38.421875 -0.421875 L 36.15625 2.9375 C 32.238281 6.625 28.269531 8.46875 24.25 8.46875 C 20.550781 8.46875 16.300781 7.128906 11.5 4.453125 C 7.382812 1.960938 5.425781 0.5625 5.625 0.25 C 3.382812 -0.84375 1.257812 -3.359375 -0.75 -7.296875 C -1.84375 -12.109375 -1.3125 -16.078125 0.84375 -19.203125 C 2.882812 -22.203125 7.566406 -25.460938 14.890625 -28.984375 C 14.304688 -29.296875 13.609375 -29.660156 12.796875 -30.078125 C 8.878906 -32.734375 7.144531 -35.695312 7.59375 -38.96875 L 7.640625 -39.296875 C 8.523438 -46.097656 16.003906 -53.09375 30.078125 -60.28125 C 35.753906 -62.738281 39.890625 -63.96875 42.484375 -63.96875 C 43.828125 -63.96875 45.0625 -61.898438 46.1875 -57.765625 L 46.09375 -57.25 C 46.007812 -56.550781 43.828125 -56.160156 39.546875 -56.078125 C 37.066406 -55.515625 33.8125 -54.0625 29.78125 -51.71875 C 23.6875 -48.132812 20.472656 -45.003906 20.140625 -42.328125 C 19.210938 -37.960938 20.691406 -34.632812 24.578125 -32.34375 C 28.460938 -30.050781 30.179688 -27.910156 29.734375 -25.921875 Z M 29.734375 -25.921875 "/></g></g></g></svg>