<svg xmlns="http://www.w3.org/2000/svg" xmlns:xlink="http://www.w3.org/1999/xlink" width="500" zoomAndPan="magnify" viewBox="0 0 375 374.999991" height="500" preserveAspectRatio="xMidYMid meet" version="1.0"><defs><filter x="0%" y="0%" width="100%" height="100%" id="8f46466164"><feColorMatrix values="0 0 0 0 1 0 0 0 0 1 0 0 0 0 1 0 0 0 1 0" color-interpolation-filters="sRGB"/></filter><clipPath id="7a77318ab2"><path d="M 287 306 L 307 306 L 307 325 L 287 325 Z M 287 306 " clip-rule="nonzero"/></clipPath><clipPath id="1e84913cd7"><path d="M 270.65625 128.058594 C 273.492188 130.890625 276.179688 133.855469 278.722656 136.953125 C 281.265625 140.050781 283.652344 143.265625 285.878906 146.597656 C 288.105469 149.929688 290.164062 153.363281 292.054688 156.898438 C 293.941406 160.429688 295.652344 164.050781 297.1875 167.75 C 298.722656 171.453125 300.070312 175.222656 301.234375 179.054688 C 302.398438 182.890625 303.371094 186.773438 304.152344 190.703125 C 304.933594 194.632812 305.523438 198.59375 305.914062 202.578125 C 306.308594 206.566406 306.503906 210.566406 306.503906 214.570312 C 306.503906 218.578125 306.308594 222.578125 305.914062 226.5625 C 305.523438 230.550781 304.933594 234.511719 304.152344 238.441406 C 303.371094 242.371094 302.398438 246.253906 301.234375 250.089844 C 300.070312 253.921875 298.722656 257.691406 297.1875 261.394531 C 295.652344 265.09375 293.941406 268.714844 292.054688 272.246094 C 290.164062 275.78125 288.105469 279.214844 285.878906 282.546875 C 283.652344 285.878906 281.265625 289.09375 278.722656 292.191406 C 276.179688 295.289062 273.492188 298.253906 270.65625 301.085938 C 267.824219 303.917969 264.855469 306.605469 261.757812 309.148438 C 258.660156 311.691406 255.445312 314.074219 252.113281 316.300781 C 248.777344 318.527344 245.34375 320.585938 241.808594 322.472656 C 238.273438 324.363281 234.65625 326.074219 230.953125 327.609375 C 227.25 329.140625 223.480469 330.488281 219.644531 331.652344 C 215.808594 332.816406 211.925781 333.789062 207.992188 334.570312 C 204.0625 335.351562 200.101562 335.941406 196.113281 336.332031 C 192.125 336.726562 188.125 336.921875 184.117188 336.921875 C 180.109375 336.921875 176.109375 336.726562 172.121094 336.332031 C 168.132812 335.941406 164.171875 335.351562 160.242188 334.570312 C 156.308594 333.789062 152.425781 332.816406 148.589844 331.652344 C 144.753906 330.488281 140.984375 329.140625 137.28125 327.609375 C 133.578125 326.074219 129.960938 324.363281 126.425781 322.472656 C 122.890625 320.585938 119.457031 318.527344 116.125 316.300781 C 112.789062 314.074219 109.574219 311.691406 106.476562 309.148438 C 103.378906 306.605469 100.410156 303.917969 97.578125 301.085938 C 94.742188 298.253906 92.054688 295.289062 89.511719 292.191406 C 86.96875 289.09375 84.582031 285.878906 82.355469 282.546875 C 80.128906 279.214844 78.070312 275.78125 76.183594 272.246094 C 74.292969 268.714844 72.582031 265.09375 71.046875 261.394531 C 69.511719 257.691406 68.164062 253.921875 67 250.089844 C 65.835938 246.253906 64.863281 242.371094 64.082031 238.441406 C 63.300781 234.511719 62.714844 230.550781 62.320312 226.5625 C 61.925781 222.578125 61.730469 218.578125 61.730469 214.570312 C 61.730469 210.566406 61.925781 206.566406 62.320312 202.578125 C 62.714844 198.59375 63.300781 194.632812 64.082031 190.703125 C 64.863281 186.773438 65.835938 182.890625 67 179.054688 C 68.164062 175.222656 69.511719 171.453125 71.046875 167.75 C 72.582031 164.050781 74.292969 160.429688 76.183594 156.898438 C 78.070312 153.363281 80.128906 149.929688 82.355469 146.597656 C 84.582031 143.265625 86.96875 140.050781 89.511719 136.953125 C 92.054688 133.855469 94.742188 130.890625 97.578125 128.058594 C 100.410156 125.222656 103.378906 122.535156 106.476562 119.996094 C 109.574219 117.453125 112.789062 115.070312 116.125 112.84375 C 119.457031 110.617188 122.890625 108.558594 126.425781 106.667969 C 129.960938 104.78125 133.578125 103.070312 137.28125 101.535156 C 140.984375 100.003906 144.753906 98.652344 148.589844 97.492188 C 152.425781 96.328125 156.308594 95.355469 160.242188 94.574219 C 164.171875 93.792969 168.132812 93.203125 172.121094 92.8125 C 176.109375 92.417969 180.109375 92.222656 184.117188 92.222656 C 188.125 92.222656 192.125 92.417969 196.113281 92.8125 C 200.101562 93.203125 204.0625 93.792969 207.992188 94.574219 C 211.925781 95.355469 215.808594 96.328125 219.644531 97.492188 C 223.480469 98.652344 227.25 100.003906 230.953125 101.535156 C 234.65625 103.070312 238.273438 104.78125 241.808594 106.667969 C 245.34375 108.558594 248.777344 110.617188 252.113281 112.84375 C 255.445312 115.070312 258.660156 117.453125 261.757812 119.996094 C 264.855469 122.535156 267.824219 125.222656 270.65625 128.058594 Z M 270.65625 128.058594 " clip-rule="nonzero"/></clipPath><clipPath id="f51c4cbc9e"><path d="M 204 265 L 298 265 L 298 325 L 204 325 Z M 204 265 " clip-rule="nonzero"/></clipPath><clipPath id="62c6b41a4e"><path d="M 270.65625 128.058594 C 273.492188 130.890625 276.179688 133.855469 278.722656 136.953125 C 281.265625 140.050781 283.652344 143.265625 285.878906 146.597656 C 288.105469 149.929688 290.164062 153.363281 292.054688 156.898438 C 293.941406 160.429688 295.652344 164.050781 297.1875 167.75 C 298.722656 171.453125 300.070312 175.222656 301.234375 179.054688 C 302.398438 182.890625 303.371094 186.773438 304.152344 190.703125 C 304.933594 194.632812 305.523438 198.59375 305.914062 202.578125 C 306.308594 206.566406 306.503906 210.566406 306.503906 214.570312 C 306.503906 218.578125 306.308594 222.578125 305.914062 226.5625 C 305.523438 230.550781 304.933594 234.511719 304.152344 238.441406 C 303.371094 242.371094 302.398438 246.253906 301.234375 250.089844 C 300.070312 253.921875 298.722656 257.691406 297.1875 261.394531 C 295.652344 265.09375 293.941406 268.714844 292.054688 272.246094 C 290.164062 275.78125 288.105469 279.214844 285.878906 282.546875 C 283.652344 285.878906 281.265625 289.09375 278.722656 292.191406 C 276.179688 295.289062 273.492188 298.253906 270.65625 301.085938 C 267.824219 303.917969 264.855469 306.605469 261.757812 309.148438 C 258.660156 311.691406 255.445312 314.074219 252.113281 316.300781 C 248.777344 318.527344 245.34375 320.585938 241.808594 322.472656 C 238.273438 324.363281 234.65625 326.074219 230.953125 327.609375 C 227.25 329.140625 223.480469 330.488281 219.644531 331.652344 C 215.808594 332.816406 211.925781 333.789062 207.992188 334.570312 C 204.0625 335.351562 200.101562 335.941406 196.113281 336.332031 C 192.125 336.726562 188.125 336.921875 184.117188 336.921875 C 180.109375 336.921875 176.109375 336.726562 172.121094 336.332031 C 168.132812 335.941406 164.171875 335.351562 160.242188 334.570312 C 156.308594 333.789062 152.425781 332.816406 148.589844 331.652344 C 144.753906 330.488281 140.984375 329.140625 137.28125 327.609375 C 133.578125 326.074219 129.960938 324.363281 126.425781 322.472656 C 122.890625 320.585938 119.457031 318.527344 116.125 316.300781 C 112.789062 314.074219 109.574219 311.691406 106.476562 309.148438 C 103.378906 306.605469 100.410156 303.917969 97.578125 301.085938 C 94.742188 298.253906 92.054688 295.289062 89.511719 292.191406 C 86.96875 289.09375 84.582031 285.878906 82.355469 282.546875 C 80.128906 279.214844 78.070312 275.78125 76.183594 272.246094 C 74.292969 268.714844 72.582031 265.09375 71.046875 261.394531 C 69.511719 257.691406 68.164062 253.921875 67 250.089844 C 65.835938 246.253906 64.863281 242.371094 64.082031 238.441406 C 63.300781 234.511719 62.714844 230.550781 62.320312 226.5625 C 61.925781 222.578125 61.730469 218.578125 61.730469 214.570312 C 61.730469 210.566406 61.925781 206.566406 62.320312 202.578125 C 62.714844 198.59375 63.300781 194.632812 64.082031 190.703125 C 64.863281 186.773438 65.835938 182.890625 67 179.054688 C 68.164062 175.222656 69.511719 171.453125 71.046875 167.75 C 72.582031 164.050781 74.292969 160.429688 76.183594 156.898438 C 78.070312 153.363281 80.128906 149.929688 82.355469 146.597656 C 84.582031 143.265625 86.96875 140.050781 89.511719 136.953125 C 92.054688 133.855469 94.742188 130.890625 97.578125 128.058594 C 100.410156 125.222656 103.378906 122.535156 106.476562 119.996094 C 109.574219 117.453125 112.789062 115.070312 116.125 112.84375 C 119.457031 110.617188 122.890625 108.558594 126.425781 106.667969 C 129.960938 104.78125 133.578125 103.070312 137.28125 101.535156 C 140.984375 100.003906 144.753906 98.652344 148.589844 97.492188 C 152.425781 96.328125 156.308594 95.355469 160.242188 94.574219 C 164.171875 93.792969 168.132812 93.203125 172.121094 92.8125 C 176.109375 92.417969 180.109375 92.222656 184.117188 92.222656 C 188.125 92.222656 192.125 92.417969 196.113281 92.8125 C 200.101562 93.203125 204.0625 93.792969 207.992188 94.574219 C 211.925781 95.355469 215.808594 96.328125 219.644531 97.492188 C 223.480469 98.652344 227.25 100.003906 230.953125 101.535156 C 234.65625 103.070312 238.273438 104.78125 241.808594 106.667969 C 245.34375 108.558594 248.777344 110.617188 252.113281 112.84375 C 255.445312 115.070312 258.660156 117.453125 261.757812 119.996094 C 264.855469 122.535156 267.824219 125.222656 270.65625 128.058594 Z M 270.65625 128.058594 " clip-rule="nonzero"/></clipPath><clipPath id="3fca8566b6"><path d="M 141 258 L 217 258 L 217 337 L 141 337 Z M 141 258 " clip-rule="nonzero"/></clipPath><clipPath id="92a634170d"><path d="M 270.65625 128.058594 C 273.492188 130.890625 276.179688 133.855469 278.722656 136.953125 C 281.265625 140.050781 283.652344 143.265625 285.878906 146.597656 C 288.105469 149.929688 290.164062 153.363281 292.054688 156.898438 C 293.941406 160.429688 295.652344 164.050781 297.1875 167.75 C 298.722656 171.453125 300.070312 175.222656 301.234375 179.054688 C 302.398438 182.890625 303.371094 186.773438 304.152344 190.703125 C 304.933594 194.632812 305.523438 198.59375 305.914062 202.578125 C 306.308594 206.566406 306.503906 210.566406 306.503906 214.570312 C 306.503906 218.578125 306.308594 222.578125 305.914062 226.5625 C 305.523438 230.550781 304.933594 234.511719 304.152344 238.441406 C 303.371094 242.371094 302.398438 246.253906 301.234375 250.089844 C 300.070312 253.921875 298.722656 257.691406 297.1875 261.394531 C 295.652344 265.09375 293.941406 268.714844 292.054688 272.246094 C 290.164062 275.78125 288.105469 279.214844 285.878906 282.546875 C 283.652344 285.878906 281.265625 289.09375 278.722656 292.191406 C 276.179688 295.289062 273.492188 298.253906 270.65625 301.085938 C 267.824219 303.917969 264.855469 306.605469 261.757812 309.148438 C 258.660156 311.691406 255.445312 314.074219 252.113281 316.300781 C 248.777344 318.527344 245.34375 320.585938 241.808594 322.472656 C 238.273438 324.363281 234.65625 326.074219 230.953125 327.609375 C 227.25 329.140625 223.480469 330.488281 219.644531 331.652344 C 215.808594 332.816406 211.925781 333.789062 207.992188 334.570312 C 204.0625 335.351562 200.101562 335.941406 196.113281 336.332031 C 192.125 336.726562 188.125 336.921875 184.117188 336.921875 C 180.109375 336.921875 176.109375 336.726562 172.121094 336.332031 C 168.132812 335.941406 164.171875 335.351562 160.242188 334.570312 C 156.308594 333.789062 152.425781 332.816406 148.589844 331.652344 C 144.753906 330.488281 140.984375 329.140625 137.28125 327.609375 C 133.578125 326.074219 129.960938 324.363281 126.425781 322.472656 C 122.890625 320.585938 119.457031 318.527344 116.125 316.300781 C 112.789062 314.074219 109.574219 311.691406 106.476562 309.148438 C 103.378906 306.605469 100.410156 303.917969 97.578125 301.085938 C 94.742188 298.253906 92.054688 295.289062 89.511719 292.191406 C 86.96875 289.09375 84.582031 285.878906 82.355469 282.546875 C 80.128906 279.214844 78.070312 275.78125 76.183594 272.246094 C 74.292969 268.714844 72.582031 265.09375 71.046875 261.394531 C 69.511719 257.691406 68.164062 253.921875 67 250.089844 C 65.835938 246.253906 64.863281 242.371094 64.082031 238.441406 C 63.300781 234.511719 62.714844 230.550781 62.320312 226.5625 C 61.925781 222.578125 61.730469 218.578125 61.730469 214.570312 C 61.730469 210.566406 61.925781 206.566406 62.320312 202.578125 C 62.714844 198.59375 63.300781 194.632812 64.082031 190.703125 C 64.863281 186.773438 65.835938 182.890625 67 179.054688 C 68.164062 175.222656 69.511719 171.453125 71.046875 167.75 C 72.582031 164.050781 74.292969 160.429688 76.183594 156.898438 C 78.070312 153.363281 80.128906 149.929688 82.355469 146.597656 C 84.582031 143.265625 86.96875 140.050781 89.511719 136.953125 C 92.054688 133.855469 94.742188 130.890625 97.578125 128.058594 C 100.410156 125.222656 103.378906 122.535156 106.476562 119.996094 C 109.574219 117.453125 112.789062 115.070312 116.125 112.84375 C 119.457031 110.617188 122.890625 108.558594 126.425781 106.667969 C 129.960938 104.78125 133.578125 103.070312 137.28125 101.535156 C 140.984375 100.003906 144.753906 98.652344 148.589844 97.492188 C 152.425781 96.328125 156.308594 95.355469 160.242188 94.574219 C 164.171875 93.792969 168.132812 93.203125 172.121094 92.8125 C 176.109375 92.417969 180.109375 92.222656 184.117188 92.222656 C 188.125 92.222656 192.125 92.417969 196.113281 92.8125 C 200.101562 93.203125 204.0625 93.792969 207.992188 94.574219 C 211.925781 95.355469 215.808594 96.328125 219.644531 97.492188 C 223.480469 98.652344 227.25 100.003906 230.953125 101.535156 C 234.65625 103.070312 238.273438 104.78125 241.808594 106.667969 C 245.34375 108.558594 248.777344 110.617188 252.113281 112.84375 C 255.445312 115.070312 258.660156 117.453125 261.757812 119.996094 C 264.855469 122.535156 267.824219 125.222656 270.65625 128.058594 Z M 270.65625 128.058594 " clip-rule="nonzero"/></clipPath><clipPath id="cdeedc33e1"><path d="M 231 316 L 265 316 L 265 334 L 231 334 Z M 231 316 " clip-rule="nonzero"/></clipPath><clipPath id="eecf80fd24"><path d="M 270.65625 128.058594 C 273.492188 130.890625 276.179688 133.855469 278.722656 136.953125 C 281.265625 140.050781 283.652344 143.265625 285.878906 146.597656 C 288.105469 149.929688 290.164062 153.363281 292.054688 156.898438 C 293.941406 160.429688 295.652344 164.050781 297.1875 167.75 C 298.722656 171.453125 300.070312 175.222656 301.234375 179.054688 C 302.398438 182.890625 303.371094 186.773438 304.152344 190.703125 C 304.933594 194.632812 305.523438 198.59375 305.914062 202.578125 C 306.308594 206.566406 306.503906 210.566406 306.503906 214.570312 C 306.503906 218.578125 306.308594 222.578125 305.914062 226.5625 C 305.523438 230.550781 304.933594 234.511719 304.152344 238.441406 C 303.371094 242.371094 302.398438 246.253906 301.234375 250.089844 C 300.070312 253.921875 298.722656 257.691406 297.1875 261.394531 C 295.652344 265.09375 293.941406 268.714844 292.054688 272.246094 C 290.164062 275.78125 288.105469 279.214844 285.878906 282.546875 C 283.652344 285.878906 281.265625 289.09375 278.722656 292.191406 C 276.179688 295.289062 273.492188 298.253906 270.65625 301.085938 C 267.824219 303.917969 264.855469 306.605469 261.757812 309.148438 C 258.660156 311.691406 255.445312 314.074219 252.113281 316.300781 C 248.777344 318.527344 245.34375 320.585938 241.808594 322.472656 C 238.273438 324.363281 234.65625 326.074219 230.953125 327.609375 C 227.25 329.140625 223.480469 330.488281 219.644531 331.652344 C 215.808594 332.816406 211.925781 333.789062 207.992188 334.570312 C 204.0625 335.351562 200.101562 335.941406 196.113281 336.332031 C 192.125 336.726562 188.125 336.921875 184.117188 336.921875 C 180.109375 336.921875 176.109375 336.726562 172.121094 336.332031 C 168.132812 335.941406 164.171875 335.351562 160.242188 334.570312 C 156.308594 333.789062 152.425781 332.816406 148.589844 331.652344 C 144.753906 330.488281 140.984375 329.140625 137.28125 327.609375 C 133.578125 326.074219 129.960938 324.363281 126.425781 322.472656 C 122.890625 320.585938 119.457031 318.527344 116.125 316.300781 C 112.789062 314.074219 109.574219 311.691406 106.476562 309.148438 C 103.378906 306.605469 100.410156 303.917969 97.578125 301.085938 C 94.742188 298.253906 92.054688 295.289062 89.511719 292.191406 C 86.96875 289.09375 84.582031 285.878906 82.355469 282.546875 C 80.128906 279.214844 78.070312 275.78125 76.183594 272.246094 C 74.292969 268.714844 72.582031 265.09375 71.046875 261.394531 C 69.511719 257.691406 68.164062 253.921875 67 250.089844 C 65.835938 246.253906 64.863281 242.371094 64.082031 238.441406 C 63.300781 234.511719 62.714844 230.550781 62.320312 226.5625 C 61.925781 222.578125 61.730469 218.578125 61.730469 214.570312 C 61.730469 210.566406 61.925781 206.566406 62.320312 202.578125 C 62.714844 198.59375 63.300781 194.632812 64.082031 190.703125 C 64.863281 186.773438 65.835938 182.890625 67 179.054688 C 68.164062 175.222656 69.511719 171.453125 71.046875 167.75 C 72.582031 164.050781 74.292969 160.429688 76.183594 156.898438 C 78.070312 153.363281 80.128906 149.929688 82.355469 146.597656 C 84.582031 143.265625 86.96875 140.050781 89.511719 136.953125 C 92.054688 133.855469 94.742188 130.890625 97.578125 128.058594 C 100.410156 125.222656 103.378906 122.535156 106.476562 119.996094 C 109.574219 117.453125 112.789062 115.070312 116.125 112.84375 C 119.457031 110.617188 122.890625 108.558594 126.425781 106.667969 C 129.960938 104.78125 133.578125 103.070312 137.28125 101.535156 C 140.984375 100.003906 144.753906 98.652344 148.589844 97.492188 C 152.425781 96.328125 156.308594 95.355469 160.242188 94.574219 C 164.171875 93.792969 168.132812 93.203125 172.121094 92.8125 C 176.109375 92.417969 180.109375 92.222656 184.117188 92.222656 C 188.125 92.222656 192.125 92.417969 196.113281 92.8125 C 200.101562 93.203125 204.0625 93.792969 207.992188 94.574219 C 211.925781 95.355469 215.808594 96.328125 219.644531 97.492188 C 223.480469 98.652344 227.25 100.003906 230.953125 101.535156 C 234.65625 103.070312 238.273438 104.78125 241.808594 106.667969 C 245.34375 108.558594 248.777344 110.617188 252.113281 112.84375 C 255.445312 115.070312 258.660156 117.453125 261.757812 119.996094 C 264.855469 122.535156 267.824219 125.222656 270.65625 128.058594 Z M 270.65625 128.058594 " clip-rule="nonzero"/></clipPath><clipPath id="aba7fe6b95"><path d="M 134 264 L 242 264 L 242 334 L 134 334 Z M 134 264 " clip-rule="nonzero"/></clipPath><clipPath id="d0af55dced"><path d="M 270.65625 128.058594 C 273.492188 130.890625 276.179688 133.855469 278.722656 136.953125 C 281.265625 140.050781 283.652344 143.265625 285.878906 146.597656 C 288.105469 149.929688 290.164062 153.363281 292.054688 156.898438 C 293.941406 160.429688 295.652344 164.050781 297.1875 167.75 C 298.722656 171.453125 300.070312 175.222656 301.234375 179.054688 C 302.398438 182.890625 303.371094 186.773438 304.152344 190.703125 C 304.933594 194.632812 305.523438 198.59375 305.914062 202.578125 C 306.308594 206.566406 306.503906 210.566406 306.503906 214.570312 C 306.503906 218.578125 306.308594 222.578125 305.914062 226.5625 C 305.523438 230.550781 304.933594 234.511719 304.152344 238.441406 C 303.371094 242.371094 302.398438 246.253906 301.234375 250.089844 C 300.070312 253.921875 298.722656 257.691406 297.1875 261.394531 C 295.652344 265.09375 293.941406 268.714844 292.054688 272.246094 C 290.164062 275.78125 288.105469 279.214844 285.878906 282.546875 C 283.652344 285.878906 281.265625 289.09375 278.722656 292.191406 C 276.179688 295.289062 273.492188 298.253906 270.65625 301.085938 C 267.824219 303.917969 264.855469 306.605469 261.757812 309.148438 C 258.660156 311.691406 255.445312 314.074219 252.113281 316.300781 C 248.777344 318.527344 245.34375 320.585938 241.808594 322.472656 C 238.273438 324.363281 234.65625 326.074219 230.953125 327.609375 C 227.25 329.140625 223.480469 330.488281 219.644531 331.652344 C 215.808594 332.816406 211.925781 333.789062 207.992188 334.570312 C 204.0625 335.351562 200.101562 335.941406 196.113281 336.332031 C 192.125 336.726562 188.125 336.921875 184.117188 336.921875 C 180.109375 336.921875 176.109375 336.726562 172.121094 336.332031 C 168.132812 335.941406 164.171875 335.351562 160.242188 334.570312 C 156.308594 333.789062 152.425781 332.816406 148.589844 331.652344 C 144.753906 330.488281 140.984375 329.140625 137.28125 327.609375 C 133.578125 326.074219 129.960938 324.363281 126.425781 322.472656 C 122.890625 320.585938 119.457031 318.527344 116.125 316.300781 C 112.789062 314.074219 109.574219 311.691406 106.476562 309.148438 C 103.378906 306.605469 100.410156 303.917969 97.578125 301.085938 C 94.742188 298.253906 92.054688 295.289062 89.511719 292.191406 C 86.96875 289.09375 84.582031 285.878906 82.355469 282.546875 C 80.128906 279.214844 78.070312 275.78125 76.183594 272.246094 C 74.292969 268.714844 72.582031 265.09375 71.046875 261.394531 C 69.511719 257.691406 68.164062 253.921875 67 250.089844 C 65.835938 246.253906 64.863281 242.371094 64.082031 238.441406 C 63.300781 234.511719 62.714844 230.550781 62.320312 226.5625 C 61.925781 222.578125 61.730469 218.578125 61.730469 214.570312 C 61.730469 210.566406 61.925781 206.566406 62.320312 202.578125 C 62.714844 198.59375 63.300781 194.632812 64.082031 190.703125 C 64.863281 186.773438 65.835938 182.890625 67 179.054688 C 68.164062 175.222656 69.511719 171.453125 71.046875 167.75 C 72.582031 164.050781 74.292969 160.429688 76.183594 156.898438 C 78.070312 153.363281 80.128906 149.929688 82.355469 146.597656 C 84.582031 143.265625 86.96875 140.050781 89.511719 136.953125 C 92.054688 133.855469 94.742188 130.890625 97.578125 128.058594 C 100.410156 125.222656 103.378906 122.535156 106.476562 119.996094 C 109.574219 117.453125 112.789062 115.070312 116.125 112.84375 C 119.457031 110.617188 122.890625 108.558594 126.425781 106.667969 C 129.960938 104.78125 133.578125 103.070312 137.28125 101.535156 C 140.984375 100.003906 144.753906 98.652344 148.589844 97.492188 C 152.425781 96.328125 156.308594 95.355469 160.242188 94.574219 C 164.171875 93.792969 168.132812 93.203125 172.121094 92.8125 C 176.109375 92.417969 180.109375 92.222656 184.117188 92.222656 C 188.125 92.222656 192.125 92.417969 196.113281 92.8125 C 200.101562 93.203125 204.0625 93.792969 207.992188 94.574219 C 211.925781 95.355469 215.808594 96.328125 219.644531 97.492188 C 223.480469 98.652344 227.25 100.003906 230.953125 101.535156 C 234.65625 103.070312 238.273438 104.78125 241.808594 106.667969 C 245.34375 108.558594 248.777344 110.617188 252.113281 112.84375 C 255.445312 115.070312 258.660156 117.453125 261.757812 119.996094 C 264.855469 122.535156 267.824219 125.222656 270.65625 128.058594 Z M 270.65625 128.058594 " clip-rule="nonzero"/></clipPath><clipPath id="e8e8157dec"><path d="M 170 227 L 191 227 L 191 268 L 170 268 Z M 170 227 " clip-rule="nonzero"/></clipPath><clipPath id="37240d66ba"><path d="M 270.65625 128.058594 C 273.492188 130.890625 276.179688 133.855469 278.722656 136.953125 C 281.265625 140.050781 283.652344 143.265625 285.878906 146.597656 C 288.105469 149.929688 290.164062 153.363281 292.054688 156.898438 C 293.941406 160.429688 295.652344 164.050781 297.1875 167.75 C 298.722656 171.453125 300.070312 175.222656 301.234375 179.054688 C 302.398438 182.890625 303.371094 186.773438 304.152344 190.703125 C 304.933594 194.632812 305.523438 198.59375 305.914062 202.578125 C 306.308594 206.566406 306.503906 210.566406 306.503906 214.570312 C 306.503906 218.578125 306.308594 222.578125 305.914062 226.5625 C 305.523438 230.550781 304.933594 234.511719 304.152344 238.441406 C 303.371094 242.371094 302.398438 246.253906 301.234375 250.089844 C 300.070312 253.921875 298.722656 257.691406 297.1875 261.394531 C 295.652344 265.09375 293.941406 268.714844 292.054688 272.246094 C 290.164062 275.78125 288.105469 279.214844 285.878906 282.546875 C 283.652344 285.878906 281.265625 289.09375 278.722656 292.191406 C 276.179688 295.289062 273.492188 298.253906 270.65625 301.085938 C 267.824219 303.917969 264.855469 306.605469 261.757812 309.148438 C 258.660156 311.691406 255.445312 314.074219 252.113281 316.300781 C 248.777344 318.527344 245.34375 320.585938 241.808594 322.472656 C 238.273438 324.363281 234.65625 326.074219 230.953125 327.609375 C 227.25 329.140625 223.480469 330.488281 219.644531 331.652344 C 215.808594 332.816406 211.925781 333.789062 207.992188 334.570312 C 204.0625 335.351562 200.101562 335.941406 196.113281 336.332031 C 192.125 336.726562 188.125 336.921875 184.117188 336.921875 C 180.109375 336.921875 176.109375 336.726562 172.121094 336.332031 C 168.132812 335.941406 164.171875 335.351562 160.242188 334.570312 C 156.308594 333.789062 152.425781 332.816406 148.589844 331.652344 C 144.753906 330.488281 140.984375 329.140625 137.28125 327.609375 C 133.578125 326.074219 129.960938 324.363281 126.425781 322.472656 C 122.890625 320.585938 119.457031 318.527344 116.125 316.300781 C 112.789062 314.074219 109.574219 311.691406 106.476562 309.148438 C 103.378906 306.605469 100.410156 303.917969 97.578125 301.085938 C 94.742188 298.253906 92.054688 295.289062 89.511719 292.191406 C 86.96875 289.09375 84.582031 285.878906 82.355469 282.546875 C 80.128906 279.214844 78.070312 275.78125 76.183594 272.246094 C 74.292969 268.714844 72.582031 265.09375 71.046875 261.394531 C 69.511719 257.691406 68.164062 253.921875 67 250.089844 C 65.835938 246.253906 64.863281 242.371094 64.082031 238.441406 C 63.300781 234.511719 62.714844 230.550781 62.320312 226.5625 C 61.925781 222.578125 61.730469 218.578125 61.730469 214.570312 C 61.730469 210.566406 61.925781 206.566406 62.320312 202.578125 C 62.714844 198.59375 63.300781 194.632812 64.082031 190.703125 C 64.863281 186.773438 65.835938 182.890625 67 179.054688 C 68.164062 175.222656 69.511719 171.453125 71.046875 167.75 C 72.582031 164.050781 74.292969 160.429688 76.183594 156.898438 C 78.070312 153.363281 80.128906 149.929688 82.355469 146.597656 C 84.582031 143.265625 86.96875 140.050781 89.511719 136.953125 C 92.054688 133.855469 94.742188 130.890625 97.578125 128.058594 C 100.410156 125.222656 103.378906 122.535156 106.476562 119.996094 C 109.574219 117.453125 112.789062 115.070312 116.125 112.84375 C 119.457031 110.617188 122.890625 108.558594 126.425781 106.667969 C 129.960938 104.78125 133.578125 103.070312 137.28125 101.535156 C 140.984375 100.003906 144.753906 98.652344 148.589844 97.492188 C 152.425781 96.328125 156.308594 95.355469 160.242188 94.574219 C 164.171875 93.792969 168.132812 93.203125 172.121094 92.8125 C 176.109375 92.417969 180.109375 92.222656 184.117188 92.222656 C 188.125 92.222656 192.125 92.417969 196.113281 92.8125 C 200.101562 93.203125 204.0625 93.792969 207.992188 94.574219 C 211.925781 95.355469 215.808594 96.328125 219.644531 97.492188 C 223.480469 98.652344 227.25 100.003906 230.953125 101.535156 C 234.65625 103.070312 238.273438 104.78125 241.808594 106.667969 C 245.34375 108.558594 248.777344 110.617188 252.113281 112.84375 C 255.445312 115.070312 258.660156 117.453125 261.757812 119.996094 C 264.855469 122.535156 267.824219 125.222656 270.65625 128.058594 Z M 270.65625 128.058594 " clip-rule="nonzero"/></clipPath><clipPath id="ec61f39c90"><path d="M 167 194 L 203 194 L 203 251 L 167 251 Z M 167 194 " clip-rule="nonzero"/></clipPath><clipPath id="9a8d667850"><path d="M 270.65625 128.058594 C 273.492188 130.890625 276.179688 133.855469 278.722656 136.953125 C 281.265625 140.050781 283.652344 143.265625 285.878906 146.597656 C 288.105469 149.929688 290.164062 153.363281 292.054688 156.898438 C 293.941406 160.429688 295.652344 164.050781 297.1875 167.75 C 298.722656 171.453125 300.070312 175.222656 301.234375 179.054688 C 302.398438 182.890625 303.371094 186.773438 304.152344 190.703125 C 304.933594 194.632812 305.523438 198.59375 305.914062 202.578125 C 306.308594 206.566406 306.503906 210.566406 306.503906 214.570312 C 306.503906 218.578125 306.308594 222.578125 305.914062 226.5625 C 305.523438 230.550781 304.933594 234.511719 304.152344 238.441406 C 303.371094 242.371094 302.398438 246.253906 301.234375 250.089844 C 300.070312 253.921875 298.722656 257.691406 297.1875 261.394531 C 295.652344 265.09375 293.941406 268.714844 292.054688 272.246094 C 290.164062 275.78125 288.105469 279.214844 285.878906 282.546875 C 283.652344 285.878906 281.265625 289.09375 278.722656 292.191406 C 276.179688 295.289062 273.492188 298.253906 270.65625 301.085938 C 267.824219 303.917969 264.855469 306.605469 261.757812 309.148438 C 258.660156 311.691406 255.445312 314.074219 252.113281 316.300781 C 248.777344 318.527344 245.34375 320.585938 241.808594 322.472656 C 238.273438 324.363281 234.65625 326.074219 230.953125 327.609375 C 227.25 329.140625 223.480469 330.488281 219.644531 331.652344 C 215.808594 332.816406 211.925781 333.789062 207.992188 334.570312 C 204.0625 335.351562 200.101562 335.941406 196.113281 336.332031 C 192.125 336.726562 188.125 336.921875 184.117188 336.921875 C 180.109375 336.921875 176.109375 336.726562 172.121094 336.332031 C 168.132812 335.941406 164.171875 335.351562 160.242188 334.570312 C 156.308594 333.789062 152.425781 332.816406 148.589844 331.652344 C 144.753906 330.488281 140.984375 329.140625 137.28125 327.609375 C 133.578125 326.074219 129.960938 324.363281 126.425781 322.472656 C 122.890625 320.585938 119.457031 318.527344 116.125 316.300781 C 112.789062 314.074219 109.574219 311.691406 106.476562 309.148438 C 103.378906 306.605469 100.410156 303.917969 97.578125 301.085938 C 94.742188 298.253906 92.054688 295.289062 89.511719 292.191406 C 86.96875 289.09375 84.582031 285.878906 82.355469 282.546875 C 80.128906 279.214844 78.070312 275.78125 76.183594 272.246094 C 74.292969 268.714844 72.582031 265.09375 71.046875 261.394531 C 69.511719 257.691406 68.164062 253.921875 67 250.089844 C 65.835938 246.253906 64.863281 242.371094 64.082031 238.441406 C 63.300781 234.511719 62.714844 230.550781 62.320312 226.5625 C 61.925781 222.578125 61.730469 218.578125 61.730469 214.570312 C 61.730469 210.566406 61.925781 206.566406 62.320312 202.578125 C 62.714844 198.59375 63.300781 194.632812 64.082031 190.703125 C 64.863281 186.773438 65.835938 182.890625 67 179.054688 C 68.164062 175.222656 69.511719 171.453125 71.046875 167.75 C 72.582031 164.050781 74.292969 160.429688 76.183594 156.898438 C 78.070312 153.363281 80.128906 149.929688 82.355469 146.597656 C 84.582031 143.265625 86.96875 140.050781 89.511719 136.953125 C 92.054688 133.855469 94.742188 130.890625 97.578125 128.058594 C 100.410156 125.222656 103.378906 122.535156 106.476562 119.996094 C 109.574219 117.453125 112.789062 115.070312 116.125 112.84375 C 119.457031 110.617188 122.890625 108.558594 126.425781 106.667969 C 129.960938 104.78125 133.578125 103.070312 137.28125 101.535156 C 140.984375 100.003906 144.753906 98.652344 148.589844 97.492188 C 152.425781 96.328125 156.308594 95.355469 160.242188 94.574219 C 164.171875 93.792969 168.132812 93.203125 172.121094 92.8125 C 176.109375 92.417969 180.109375 92.222656 184.117188 92.222656 C 188.125 92.222656 192.125 92.417969 196.113281 92.8125 C 200.101562 93.203125 204.0625 93.792969 207.992188 94.574219 C 211.925781 95.355469 215.808594 96.328125 219.644531 97.492188 C 223.480469 98.652344 227.25 100.003906 230.953125 101.535156 C 234.65625 103.070312 238.273438 104.78125 241.808594 106.667969 C 245.34375 108.558594 248.777344 110.617188 252.113281 112.84375 C 255.445312 115.070312 258.660156 117.453125 261.757812 119.996094 C 264.855469 122.535156 267.824219 125.222656 270.65625 128.058594 Z M 270.65625 128.058594 " clip-rule="nonzero"/></clipPath><clipPath id="d5b62ac06e"><path d="M 160 184 L 215 184 L 215 228 L 160 228 Z M 160 184 " clip-rule="nonzero"/></clipPath><clipPath id="fade371670"><path d="M 270.65625 128.058594 C 273.492188 130.890625 276.179688 133.855469 278.722656 136.953125 C 281.265625 140.050781 283.652344 143.265625 285.878906 146.597656 C 288.105469 149.929688 290.164062 153.363281 292.054688 156.898438 C 293.941406 160.429688 295.652344 164.050781 297.1875 167.75 C 298.722656 171.453125 300.070312 175.222656 301.234375 179.054688 C 302.398438 182.890625 303.371094 186.773438 304.152344 190.703125 C 304.933594 194.632812 305.523438 198.59375 305.914062 202.578125 C 306.308594 206.566406 306.503906 210.566406 306.503906 214.570312 C 306.503906 218.578125 306.308594 222.578125 305.914062 226.5625 C 305.523438 230.550781 304.933594 234.511719 304.152344 238.441406 C 303.371094 242.371094 302.398438 246.253906 301.234375 250.089844 C 300.070312 253.921875 298.722656 257.691406 297.1875 261.394531 C 295.652344 265.09375 293.941406 268.714844 292.054688 272.246094 C 290.164062 275.78125 288.105469 279.214844 285.878906 282.546875 C 283.652344 285.878906 281.265625 289.09375 278.722656 292.191406 C 276.179688 295.289062 273.492188 298.253906 270.65625 301.085938 C 267.824219 303.917969 264.855469 306.605469 261.757812 309.148438 C 258.660156 311.691406 255.445312 314.074219 252.113281 316.300781 C 248.777344 318.527344 245.34375 320.585938 241.808594 322.472656 C 238.273438 324.363281 234.65625 326.074219 230.953125 327.609375 C 227.25 329.140625 223.480469 330.488281 219.644531 331.652344 C 215.808594 332.816406 211.925781 333.789062 207.992188 334.570312 C 204.0625 335.351562 200.101562 335.941406 196.113281 336.332031 C 192.125 336.726562 188.125 336.921875 184.117188 336.921875 C 180.109375 336.921875 176.109375 336.726562 172.121094 336.332031 C 168.132812 335.941406 164.171875 335.351562 160.242188 334.570312 C 156.308594 333.789062 152.425781 332.816406 148.589844 331.652344 C 144.753906 330.488281 140.984375 329.140625 137.28125 327.609375 C 133.578125 326.074219 129.960938 324.363281 126.425781 322.472656 C 122.890625 320.585938 119.457031 318.527344 116.125 316.300781 C 112.789062 314.074219 109.574219 311.691406 106.476562 309.148438 C 103.378906 306.605469 100.410156 303.917969 97.578125 301.085938 C 94.742188 298.253906 92.054688 295.289062 89.511719 292.191406 C 86.96875 289.09375 84.582031 285.878906 82.355469 282.546875 C 80.128906 279.214844 78.070312 275.78125 76.183594 272.246094 C 74.292969 268.714844 72.582031 265.09375 71.046875 261.394531 C 69.511719 257.691406 68.164062 253.921875 67 250.089844 C 65.835938 246.253906 64.863281 242.371094 64.082031 238.441406 C 63.300781 234.511719 62.714844 230.550781 62.320312 226.5625 C 61.925781 222.578125 61.730469 218.578125 61.730469 214.570312 C 61.730469 210.566406 61.925781 206.566406 62.320312 202.578125 C 62.714844 198.59375 63.300781 194.632812 64.082031 190.703125 C 64.863281 186.773438 65.835938 182.890625 67 179.054688 C 68.164062 175.222656 69.511719 171.453125 71.046875 167.75 C 72.582031 164.050781 74.292969 160.429688 76.183594 156.898438 C 78.070312 153.363281 80.128906 149.929688 82.355469 146.597656 C 84.582031 143.265625 86.96875 140.050781 89.511719 136.953125 C 92.054688 133.855469 94.742188 130.890625 97.578125 128.058594 C 100.410156 125.222656 103.378906 122.535156 106.476562 119.996094 C 109.574219 117.453125 112.789062 115.070312 116.125 112.84375 C 119.457031 110.617188 122.890625 108.558594 126.425781 106.667969 C 129.960938 104.78125 133.578125 103.070312 137.28125 101.535156 C 140.984375 100.003906 144.753906 98.652344 148.589844 97.492188 C 152.425781 96.328125 156.308594 95.355469 160.242188 94.574219 C 164.171875 93.792969 168.132812 93.203125 172.121094 92.8125 C 176.109375 92.417969 180.109375 92.222656 184.117188 92.222656 C 188.125 92.222656 192.125 92.417969 196.113281 92.8125 C 200.101562 93.203125 204.0625 93.792969 207.992188 94.574219 C 211.925781 95.355469 215.808594 96.328125 219.644531 97.492188 C 223.480469 98.652344 227.25 100.003906 230.953125 101.535156 C 234.65625 103.070312 238.273438 104.78125 241.808594 106.667969 C 245.34375 108.558594 248.777344 110.617188 252.113281 112.84375 C 255.445312 115.070312 258.660156 117.453125 261.757812 119.996094 C 264.855469 122.535156 267.824219 125.222656 270.65625 128.058594 Z M 270.65625 128.058594 " clip-rule="nonzero"/></clipPath><clipPath id="1fd9ac16f8"><path d="M 160 222 L 175 222 L 175 237 L 160 237 Z M 160 222 " clip-rule="nonzero"/></clipPath><clipPath id="db27c03156"><path d="M 270.65625 128.058594 C 273.492188 130.890625 276.179688 133.855469 278.722656 136.953125 C 281.265625 140.050781 283.652344 143.265625 285.878906 146.597656 C 288.105469 149.929688 290.164062 153.363281 292.054688 156.898438 C 293.941406 160.429688 295.652344 164.050781 297.1875 167.75 C 298.722656 171.453125 300.070312 175.222656 301.234375 179.054688 C 302.398438 182.890625 303.371094 186.773438 304.152344 190.703125 C 304.933594 194.632812 305.523438 198.59375 305.914062 202.578125 C 306.308594 206.566406 306.503906 210.566406 306.503906 214.570312 C 306.503906 218.578125 306.308594 222.578125 305.914062 226.5625 C 305.523438 230.550781 304.933594 234.511719 304.152344 238.441406 C 303.371094 242.371094 302.398438 246.253906 301.234375 250.089844 C 300.070312 253.921875 298.722656 257.691406 297.1875 261.394531 C 295.652344 265.09375 293.941406 268.714844 292.054688 272.246094 C 290.164062 275.78125 288.105469 279.214844 285.878906 282.546875 C 283.652344 285.878906 281.265625 289.09375 278.722656 292.191406 C 276.179688 295.289062 273.492188 298.253906 270.65625 301.085938 C 267.824219 303.917969 264.855469 306.605469 261.757812 309.148438 C 258.660156 311.691406 255.445312 314.074219 252.113281 316.300781 C 248.777344 318.527344 245.34375 320.585938 241.808594 322.472656 C 238.273438 324.363281 234.65625 326.074219 230.953125 327.609375 C 227.25 329.140625 223.480469 330.488281 219.644531 331.652344 C 215.808594 332.816406 211.925781 333.789062 207.992188 334.570312 C 204.0625 335.351562 200.101562 335.941406 196.113281 336.332031 C 192.125 336.726562 188.125 336.921875 184.117188 336.921875 C 180.109375 336.921875 176.109375 336.726562 172.121094 336.332031 C 168.132812 335.941406 164.171875 335.351562 160.242188 334.570312 C 156.308594 333.789062 152.425781 332.816406 148.589844 331.652344 C 144.753906 330.488281 140.984375 329.140625 137.28125 327.609375 C 133.578125 326.074219 129.960938 324.363281 126.425781 322.472656 C 122.890625 320.585938 119.457031 318.527344 116.125 316.300781 C 112.789062 314.074219 109.574219 311.691406 106.476562 309.148438 C 103.378906 306.605469 100.410156 303.917969 97.578125 301.085938 C 94.742188 298.253906 92.054688 295.289062 89.511719 292.191406 C 86.96875 289.09375 84.582031 285.878906 82.355469 282.546875 C 80.128906 279.214844 78.070312 275.78125 76.183594 272.246094 C 74.292969 268.714844 72.582031 265.09375 71.046875 261.394531 C 69.511719 257.691406 68.164062 253.921875 67 250.089844 C 65.835938 246.253906 64.863281 242.371094 64.082031 238.441406 C 63.300781 234.511719 62.714844 230.550781 62.320312 226.5625 C 61.925781 222.578125 61.730469 218.578125 61.730469 214.570312 C 61.730469 210.566406 61.925781 206.566406 62.320312 202.578125 C 62.714844 198.59375 63.300781 194.632812 64.082031 190.703125 C 64.863281 186.773438 65.835938 182.890625 67 179.054688 C 68.164062 175.222656 69.511719 171.453125 71.046875 167.75 C 72.582031 164.050781 74.292969 160.429688 76.183594 156.898438 C 78.070312 153.363281 80.128906 149.929688 82.355469 146.597656 C 84.582031 143.265625 86.96875 140.050781 89.511719 136.953125 C 92.054688 133.855469 94.742188 130.890625 97.578125 128.058594 C 100.410156 125.222656 103.378906 122.535156 106.476562 119.996094 C 109.574219 117.453125 112.789062 115.070312 116.125 112.84375 C 119.457031 110.617188 122.890625 108.558594 126.425781 106.667969 C 129.960938 104.78125 133.578125 103.070312 137.28125 101.535156 C 140.984375 100.003906 144.753906 98.652344 148.589844 97.492188 C 152.425781 96.328125 156.308594 95.355469 160.242188 94.574219 C 164.171875 93.792969 168.132812 93.203125 172.121094 92.8125 C 176.109375 92.417969 180.109375 92.222656 184.117188 92.222656 C 188.125 92.222656 192.125 92.417969 196.113281 92.8125 C 200.101562 93.203125 204.0625 93.792969 207.992188 94.574219 C 211.925781 95.355469 215.808594 96.328125 219.644531 97.492188 C 223.480469 98.652344 227.25 100.003906 230.953125 101.535156 C 234.65625 103.070312 238.273438 104.78125 241.808594 106.667969 C 245.34375 108.558594 248.777344 110.617188 252.113281 112.84375 C 255.445312 115.070312 258.660156 117.453125 261.757812 119.996094 C 264.855469 122.535156 267.824219 125.222656 270.65625 128.058594 Z M 270.65625 128.058594 " clip-rule="nonzero"/></clipPath><clipPath id="ae10137702"><path d="M 174 242 L 201 242 L 201 252 L 174 252 Z M 174 242 " clip-rule="nonzero"/></clipPath><clipPath id="fcfaba2a39"><path d="M 270.65625 128.058594 C 273.492188 130.890625 276.179688 133.855469 278.722656 136.953125 C 281.265625 140.050781 283.652344 143.265625 285.878906 146.597656 C 288.105469 149.929688 290.164062 153.363281 292.054688 156.898438 C 293.941406 160.429688 295.652344 164.050781 297.1875 167.75 C 298.722656 171.453125 300.070312 175.222656 301.234375 179.054688 C 302.398438 182.890625 303.371094 186.773438 304.152344 190.703125 C 304.933594 194.632812 305.523438 198.59375 305.914062 202.578125 C 306.308594 206.566406 306.503906 210.566406 306.503906 214.570312 C 306.503906 218.578125 306.308594 222.578125 305.914062 226.5625 C 305.523438 230.550781 304.933594 234.511719 304.152344 238.441406 C 303.371094 242.371094 302.398438 246.253906 301.234375 250.089844 C 300.070312 253.921875 298.722656 257.691406 297.1875 261.394531 C 295.652344 265.09375 293.941406 268.714844 292.054688 272.246094 C 290.164062 275.78125 288.105469 279.214844 285.878906 282.546875 C 283.652344 285.878906 281.265625 289.09375 278.722656 292.191406 C 276.179688 295.289062 273.492188 298.253906 270.65625 301.085938 C 267.824219 303.917969 264.855469 306.605469 261.757812 309.148438 C 258.660156 311.691406 255.445312 314.074219 252.113281 316.300781 C 248.777344 318.527344 245.34375 320.585938 241.808594 322.472656 C 238.273438 324.363281 234.65625 326.074219 230.953125 327.609375 C 227.25 329.140625 223.480469 330.488281 219.644531 331.652344 C 215.808594 332.816406 211.925781 333.789062 207.992188 334.570312 C 204.0625 335.351562 200.101562 335.941406 196.113281 336.332031 C 192.125 336.726562 188.125 336.921875 184.117188 336.921875 C 180.109375 336.921875 176.109375 336.726562 172.121094 336.332031 C 168.132812 335.941406 164.171875 335.351562 160.242188 334.570312 C 156.308594 333.789062 152.425781 332.816406 148.589844 331.652344 C 144.753906 330.488281 140.984375 329.140625 137.28125 327.609375 C 133.578125 326.074219 129.960938 324.363281 126.425781 322.472656 C 122.890625 320.585938 119.457031 318.527344 116.125 316.300781 C 112.789062 314.074219 109.574219 311.691406 106.476562 309.148438 C 103.378906 306.605469 100.410156 303.917969 97.578125 301.085938 C 94.742188 298.253906 92.054688 295.289062 89.511719 292.191406 C 86.96875 289.09375 84.582031 285.878906 82.355469 282.546875 C 80.128906 279.214844 78.070312 275.78125 76.183594 272.246094 C 74.292969 268.714844 72.582031 265.09375 71.046875 261.394531 C 69.511719 257.691406 68.164062 253.921875 67 250.089844 C 65.835938 246.253906 64.863281 242.371094 64.082031 238.441406 C 63.300781 234.511719 62.714844 230.550781 62.320312 226.5625 C 61.925781 222.578125 61.730469 218.578125 61.730469 214.570312 C 61.730469 210.566406 61.925781 206.566406 62.320312 202.578125 C 62.714844 198.59375 63.300781 194.632812 64.082031 190.703125 C 64.863281 186.773438 65.835938 182.890625 67 179.054688 C 68.164062 175.222656 69.511719 171.453125 71.046875 167.75 C 72.582031 164.050781 74.292969 160.429688 76.183594 156.898438 C 78.070312 153.363281 80.128906 149.929688 82.355469 146.597656 C 84.582031 143.265625 86.96875 140.050781 89.511719 136.953125 C 92.054688 133.855469 94.742188 130.890625 97.578125 128.058594 C 100.410156 125.222656 103.378906 122.535156 106.476562 119.996094 C 109.574219 117.453125 112.789062 115.070312 116.125 112.84375 C 119.457031 110.617188 122.890625 108.558594 126.425781 106.667969 C 129.960938 104.78125 133.578125 103.070312 137.28125 101.535156 C 140.984375 100.003906 144.753906 98.652344 148.589844 97.492188 C 152.425781 96.328125 156.308594 95.355469 160.242188 94.574219 C 164.171875 93.792969 168.132812 93.203125 172.121094 92.8125 C 176.109375 92.417969 180.109375 92.222656 184.117188 92.222656 C 188.125 92.222656 192.125 92.417969 196.113281 92.8125 C 200.101562 93.203125 204.0625 93.792969 207.992188 94.574219 C 211.925781 95.355469 215.808594 96.328125 219.644531 97.492188 C 223.480469 98.652344 227.25 100.003906 230.953125 101.535156 C 234.65625 103.070312 238.273438 104.78125 241.808594 106.667969 C 245.34375 108.558594 248.777344 110.617188 252.113281 112.84375 C 255.445312 115.070312 258.660156 117.453125 261.757812 119.996094 C 264.855469 122.535156 267.824219 125.222656 270.65625 128.058594 Z M 270.65625 128.058594 " clip-rule="nonzero"/></clipPath><clipPath id="f58c38776a"><path d="M 201 215 L 204 215 L 204 235 L 201 235 Z M 201 215 " clip-rule="nonzero"/></clipPath><clipPath id="6e74781c0c"><path d="M 270.65625 128.058594 C 273.492188 130.890625 276.179688 133.855469 278.722656 136.953125 C 281.265625 140.050781 283.652344 143.265625 285.878906 146.597656 C 288.105469 149.929688 290.164062 153.363281 292.054688 156.898438 C 293.941406 160.429688 295.652344 164.050781 297.1875 167.75 C 298.722656 171.453125 300.070312 175.222656 301.234375 179.054688 C 302.398438 182.890625 303.371094 186.773438 304.152344 190.703125 C 304.933594 194.632812 305.523438 198.59375 305.914062 202.578125 C 306.308594 206.566406 306.503906 210.566406 306.503906 214.570312 C 306.503906 218.578125 306.308594 222.578125 305.914062 226.5625 C 305.523438 230.550781 304.933594 234.511719 304.152344 238.441406 C 303.371094 242.371094 302.398438 246.253906 301.234375 250.089844 C 300.070312 253.921875 298.722656 257.691406 297.1875 261.394531 C 295.652344 265.09375 293.941406 268.714844 292.054688 272.246094 C 290.164062 275.78125 288.105469 279.214844 285.878906 282.546875 C 283.652344 285.878906 281.265625 289.09375 278.722656 292.191406 C 276.179688 295.289062 273.492188 298.253906 270.65625 301.085938 C 267.824219 303.917969 264.855469 306.605469 261.757812 309.148438 C 258.660156 311.691406 255.445312 314.074219 252.113281 316.300781 C 248.777344 318.527344 245.34375 320.585938 241.808594 322.472656 C 238.273438 324.363281 234.65625 326.074219 230.953125 327.609375 C 227.25 329.140625 223.480469 330.488281 219.644531 331.652344 C 215.808594 332.816406 211.925781 333.789062 207.992188 334.570312 C 204.0625 335.351562 200.101562 335.941406 196.113281 336.332031 C 192.125 336.726562 188.125 336.921875 184.117188 336.921875 C 180.109375 336.921875 176.109375 336.726562 172.121094 336.332031 C 168.132812 335.941406 164.171875 335.351562 160.242188 334.570312 C 156.308594 333.789062 152.425781 332.816406 148.589844 331.652344 C 144.753906 330.488281 140.984375 329.140625 137.28125 327.609375 C 133.578125 326.074219 129.960938 324.363281 126.425781 322.472656 C 122.890625 320.585938 119.457031 318.527344 116.125 316.300781 C 112.789062 314.074219 109.574219 311.691406 106.476562 309.148438 C 103.378906 306.605469 100.410156 303.917969 97.578125 301.085938 C 94.742188 298.253906 92.054688 295.289062 89.511719 292.191406 C 86.96875 289.09375 84.582031 285.878906 82.355469 282.546875 C 80.128906 279.214844 78.070312 275.78125 76.183594 272.246094 C 74.292969 268.714844 72.582031 265.09375 71.046875 261.394531 C 69.511719 257.691406 68.164062 253.921875 67 250.089844 C 65.835938 246.253906 64.863281 242.371094 64.082031 238.441406 C 63.300781 234.511719 62.714844 230.550781 62.320312 226.5625 C 61.925781 222.578125 61.730469 218.578125 61.730469 214.570312 C 61.730469 210.566406 61.925781 206.566406 62.320312 202.578125 C 62.714844 198.59375 63.300781 194.632812 64.082031 190.703125 C 64.863281 186.773438 65.835938 182.890625 67 179.054688 C 68.164062 175.222656 69.511719 171.453125 71.046875 167.75 C 72.582031 164.050781 74.292969 160.429688 76.183594 156.898438 C 78.070312 153.363281 80.128906 149.929688 82.355469 146.597656 C 84.582031 143.265625 86.96875 140.050781 89.511719 136.953125 C 92.054688 133.855469 94.742188 130.890625 97.578125 128.058594 C 100.410156 125.222656 103.378906 122.535156 106.476562 119.996094 C 109.574219 117.453125 112.789062 115.070312 116.125 112.84375 C 119.457031 110.617188 122.890625 108.558594 126.425781 106.667969 C 129.960938 104.78125 133.578125 103.070312 137.28125 101.535156 C 140.984375 100.003906 144.753906 98.652344 148.589844 97.492188 C 152.425781 96.328125 156.308594 95.355469 160.242188 94.574219 C 164.171875 93.792969 168.132812 93.203125 172.121094 92.8125 C 176.109375 92.417969 180.109375 92.222656 184.117188 92.222656 C 188.125 92.222656 192.125 92.417969 196.113281 92.8125 C 200.101562 93.203125 204.0625 93.792969 207.992188 94.574219 C 211.925781 95.355469 215.808594 96.328125 219.644531 97.492188 C 223.480469 98.652344 227.25 100.003906 230.953125 101.535156 C 234.65625 103.070312 238.273438 104.78125 241.808594 106.667969 C 245.34375 108.558594 248.777344 110.617188 252.113281 112.84375 C 255.445312 115.070312 258.660156 117.453125 261.757812 119.996094 C 264.855469 122.535156 267.824219 125.222656 270.65625 128.058594 Z M 270.65625 128.058594 " clip-rule="nonzero"/></clipPath><mask id="0015444d25"><g filter="url(#8f46466164)"><rect x="-37.5" width="450" fill="#000000" y="-37.499999" height="449.999989" fill-opacity="0.4196"/></g></mask><clipPath id="a6ab735a39"><path d="M 1 2 L 14.839844 2 L 14.839844 15 L 1 15 Z M 1 2 " clip-rule="nonzero"/></clipPath><clipPath id="ee926f6a6d"><path d="M 1 1 L 14.839844 1 L 14.839844 15 L 1 15 Z M 1 1 " clip-rule="nonzero"/></clipPath><clipPath id="940637a1c1"><rect x="0" width="15" y="0" height="16"/></clipPath><mask id="3dee2e7502"><g filter="url(#8f46466164)"><rect x="-37.5" width="450" fill="#000000" y="-37.499999" height="449.999989" fill-opacity="0.4196"/></g></mask><clipPath id="7fbc655e4b"><path d="M 0.359375 1 L 35.878906 1 L 35.878906 17 L 0.359375 17 Z M 0.359375 1 " clip-rule="nonzero"/></clipPath><clipPath id="408493128e"><rect x="0" width="36" y="0" height="18"/></clipPath><clipPath id="34e1ed5884"><path d="M 43.796875 242 L 87 242 L 87 286 L 43.796875 286 Z M 43.796875 242 " clip-rule="nonzero"/></clipPath></defs><path fill="#e39eff" d="M 330.9375 187.570312 C 331.046875 268.894531 265.175781 335.613281 183.824219 336.515625 C 176.109375 336.597656 168.433594 336.082031 160.796875 334.972656 C 153.160156 333.863281 145.65625 332.175781 138.28125 329.902344 C 130.90625 327.628906 123.753906 324.800781 116.816406 321.417969 C 109.882812 318.035156 103.25 314.140625 96.917969 309.730469 C 86.019531 302.105469 74.785156 292.78125 66.140625 282.660156 C 58.746094 273.996094 53.085938 263.441406 52.167969 252.085938 C 48.800781 210.355469 99.675781 211.539062 128.574219 210.769531 C 148.945312 210.230469 171.84375 205.816406 183.003906 188.769531 C 193.5625 172.648438 189.5625 150.976562 181.515625 133.46875 C 173.472656 115.960938 161.757812 99.933594 157.085938 81.238281 C 154.4375 70.671875 154.425781 58.671875 160.734375 49.789062 C 185.429688 15.03125 251.601562 52.933594 274.683594 71.285156 C 279.035156 74.765625 283.183594 78.472656 287.121094 82.414062 C 291.058594 86.355469 294.765625 90.503906 298.238281 94.859375 C 301.714844 99.210938 304.9375 103.746094 307.90625 108.460938 C 310.875 113.171875 313.570312 118.039062 315.996094 123.050781 C 318.421875 128.066406 320.5625 133.203125 322.414062 138.453125 C 324.265625 143.707031 325.820312 149.046875 327.078125 154.476562 C 328.335938 159.902344 329.285156 165.382812 329.929688 170.914062 C 330.574219 176.445312 330.910156 182 330.9375 187.570312 Z M 330.9375 187.570312 " fill-opacity="0.2078" fill-rule="nonzero"/><g clip-path="url(#7a77318ab2)"><g clip-path="url(#1e84913cd7)"><path fill="#e39eff" d="M 320.222656 324.59375 L 287.050781 324.59375 L 287.050781 306.976562 L 309.824219 306.976562 C 310.507812 306.976562 311.183594 307.042969 311.851562 307.175781 C 312.523438 307.308594 313.171875 307.503906 313.804688 307.765625 C 314.433594 308.027344 315.035156 308.347656 315.601562 308.726562 C 316.167969 309.105469 316.695312 309.535156 317.175781 310.019531 C 317.660156 310.503906 318.089844 311.027344 318.46875 311.59375 C 318.847656 312.164062 319.167969 312.761719 319.429688 313.390625 C 319.691406 314.023438 319.890625 314.671875 320.023438 315.34375 C 320.15625 316.011719 320.222656 316.6875 320.222656 317.371094 Z M 320.222656 324.59375 " fill-opacity="1" fill-rule="nonzero"/></g></g><g clip-path="url(#f51c4cbc9e)"><g clip-path="url(#62c6b41a4e)"><path fill="#5028af" d="M 216.558594 324.59375 L 297.414062 324.59375 L 297.414062 301.796875 L 233.144531 301.796875 C 233.144531 301.796875 225.59375 280.039062 215.433594 266.167969 C 210.074219 258.851562 193.75 306.976562 216.558594 324.59375 Z M 216.558594 324.59375 " fill-opacity="1" fill-rule="nonzero"/></g></g><g clip-path="url(#3fca8566b6)"><g clip-path="url(#92a634170d)"><path fill="#6530cb" d="M 168.871094 258.269531 L 141.921875 264.488281 L 147.101562 363.976562 L 213.449219 363.976562 L 216.558594 266.558594 L 192.714844 258.269531 Z M 168.871094 258.269531 " fill-opacity="1" fill-rule="nonzero"/></g></g><g clip-path="url(#cdeedc33e1)"><g clip-path="url(#eecf80fd24)"><path fill="#e39eff" d="M 264.242188 333.929688 L 231.070312 333.929688 L 231.070312 316.304688 L 253.839844 316.304688 C 254.523438 316.304688 255.199219 316.371094 255.867188 316.503906 C 256.539062 316.636719 257.1875 316.835938 257.820312 317.097656 C 258.449219 317.359375 259.046875 317.679688 259.617188 318.058594 C 260.183594 318.4375 260.707031 318.867188 261.191406 319.351562 C 261.675781 319.832031 262.105469 320.359375 262.484375 320.925781 C 262.863281 321.492188 263.183594 322.089844 263.445312 322.722656 C 263.707031 323.351562 263.902344 324.003906 264.039062 324.671875 C 264.171875 325.339844 264.238281 326.019531 264.238281 326.699219 L 264.238281 333.929688 Z M 264.242188 333.929688 " fill-opacity="1" fill-rule="nonzero"/></g></g><g clip-path="url(#aba7fe6b95)"><g clip-path="url(#d0af55dced)"><path fill="#5028af" d="M 141.921875 264.488281 C 125.125 268.4375 137.773438 316.304688 160.578125 333.921875 L 241.4375 333.921875 L 241.4375 311.121094 L 177.164062 311.121094 C 177.164062 311.121094 159.542969 260.34375 141.921875 264.488281 Z M 141.921875 264.488281 " fill-opacity="1" fill-rule="nonzero"/></g></g><g clip-path="url(#e8e8157dec)"><g clip-path="url(#37240d66ba)"><path fill="#e39eff" d="M 180.238281 267.710938 C 180.886719 267.714844 181.53125 267.648438 182.167969 267.523438 C 182.804688 267.398438 183.421875 267.210938 184.023438 266.960938 C 184.621094 266.710938 185.191406 266.410156 185.730469 266.046875 C 186.269531 265.6875 186.769531 265.277344 187.230469 264.820312 C 187.6875 264.359375 188.097656 263.859375 188.457031 263.320312 C 188.820312 262.78125 189.125 262.210938 189.371094 261.613281 C 189.621094 261.011719 189.808594 260.394531 189.933594 259.757812 C 190.0625 259.121094 190.125 258.480469 190.125 257.828125 L 190.125 237.207031 C 190.125 236.558594 190.0625 235.917969 189.9375 235.28125 C 189.808594 234.644531 189.621094 234.023438 189.375 233.425781 C 189.125 232.824219 188.820312 232.253906 188.460938 231.714844 C 188.101562 231.175781 187.691406 230.675781 187.230469 230.21875 C 186.773438 229.757812 186.273438 229.347656 185.734375 228.988281 C 185.191406 228.628906 184.621094 228.324219 184.023438 228.074219 C 183.421875 227.828125 182.804688 227.640625 182.167969 227.515625 C 181.53125 227.386719 180.886719 227.324219 180.238281 227.324219 C 179.589844 227.324219 178.945312 227.386719 178.308594 227.515625 C 177.671875 227.640625 177.054688 227.828125 176.457031 228.078125 C 175.855469 228.324219 175.285156 228.628906 174.746094 228.992188 C 174.207031 229.351562 173.707031 229.761719 173.25 230.21875 C 172.789062 230.679688 172.378906 231.175781 172.019531 231.71875 C 171.65625 232.257812 171.355469 232.828125 171.105469 233.425781 C 170.855469 234.023438 170.667969 234.644531 170.542969 235.28125 C 170.414062 235.917969 170.351562 236.558594 170.351562 237.207031 L 170.351562 257.828125 C 170.351562 258.480469 170.414062 259.121094 170.542969 259.757812 C 170.667969 260.394531 170.855469 261.011719 171.105469 261.613281 C 171.355469 262.210938 171.65625 262.78125 172.019531 263.320312 C 172.378906 263.859375 172.789062 264.359375 173.25 264.816406 C 173.707031 265.277344 174.207031 265.6875 174.746094 266.046875 C 175.285156 266.40625 175.855469 266.710938 176.457031 266.960938 C 177.054688 267.207031 177.671875 267.394531 178.308594 267.523438 C 178.945312 267.648438 179.589844 267.710938 180.238281 267.710938 Z M 180.238281 267.710938 " fill-opacity="1" fill-rule="nonzero"/></g></g><g clip-path="url(#ec61f39c90)"><g clip-path="url(#9a8d667850)"><path fill="#e39eff" d="M 167.773438 211.425781 L 167.773438 233.765625 C 167.773438 234.332031 167.800781 234.890625 167.855469 235.453125 C 167.910156 236.011719 167.992188 236.566406 168.105469 237.121094 C 168.214844 237.671875 168.351562 238.21875 168.515625 238.757812 C 168.675781 239.296875 168.867188 239.824219 169.082031 240.34375 C 169.296875 240.863281 169.539062 241.371094 169.804688 241.871094 C 170.070312 242.367188 170.359375 242.847656 170.671875 243.316406 C 170.984375 243.785156 171.320312 244.234375 171.675781 244.671875 C 172.035156 245.105469 172.410156 245.523438 172.808594 245.921875 C 173.207031 246.320312 173.625 246.695312 174.058594 247.054688 C 174.496094 247.410156 174.945312 247.746094 175.414062 248.058594 C 175.882812 248.371094 176.367188 248.660156 176.863281 248.925781 C 177.359375 249.191406 177.867188 249.429688 178.386719 249.648438 C 178.90625 249.863281 179.4375 250.050781 179.976562 250.214844 C 180.515625 250.378906 181.058594 250.515625 181.613281 250.625 C 182.164062 250.734375 182.722656 250.816406 183.28125 250.871094 C 183.84375 250.925781 184.402344 250.953125 184.964844 250.953125 C 185.53125 250.953125 186.089844 250.925781 186.652344 250.871094 C 187.210938 250.816406 187.769531 250.734375 188.320312 250.625 C 188.875 250.515625 189.417969 250.378906 189.957031 250.214844 C 190.496094 250.050781 191.027344 249.863281 191.546875 249.648438 C 192.066406 249.429688 192.574219 249.191406 193.070312 248.925781 C 193.566406 248.660156 194.050781 248.371094 194.519531 248.058594 C 194.988281 247.746094 195.4375 247.410156 195.875 247.054688 C 196.308594 246.695312 196.726562 246.320312 197.125 245.921875 C 197.523438 245.523438 197.898438 245.105469 198.257812 244.671875 C 198.613281 244.234375 198.949219 243.785156 199.261719 243.316406 C 199.574219 242.847656 199.863281 242.367188 200.128906 241.871094 C 200.394531 241.371094 200.636719 240.863281 200.851562 240.34375 C 201.066406 239.824219 201.257812 239.296875 201.417969 238.757812 C 201.582031 238.21875 201.71875 237.671875 201.828125 237.121094 C 201.9375 236.566406 202.023438 236.011719 202.078125 235.453125 C 202.132812 234.890625 202.160156 234.332031 202.160156 233.765625 L 202.160156 211.425781 C 202.160156 210.863281 202.132812 210.300781 202.078125 209.742188 C 202.023438 209.179688 201.9375 208.625 201.828125 208.070312 C 201.71875 207.519531 201.582031 206.972656 201.417969 206.4375 C 201.257812 205.898438 201.066406 205.367188 200.851562 204.847656 C 200.636719 204.328125 200.394531 203.820312 200.128906 203.324219 C 199.863281 202.828125 199.574219 202.34375 199.261719 201.875 C 198.949219 201.40625 198.613281 200.957031 198.257812 200.519531 C 197.898438 200.085938 197.523438 199.667969 197.125 199.269531 C 196.726562 198.875 196.308594 198.496094 195.875 198.136719 C 195.4375 197.78125 194.988281 197.445312 194.519531 197.132812 C 194.050781 196.820312 193.566406 196.53125 193.070312 196.265625 C 192.574219 196 192.066406 195.761719 191.546875 195.546875 C 191.027344 195.332031 190.496094 195.140625 189.957031 194.976562 C 189.417969 194.8125 188.875 194.675781 188.320312 194.566406 C 187.769531 194.457031 187.210938 194.375 186.652344 194.320312 C 186.089844 194.265625 185.53125 194.238281 184.964844 194.238281 C 184.402344 194.238281 183.84375 194.265625 183.28125 194.320312 C 182.722656 194.375 182.164062 194.457031 181.613281 194.566406 C 181.058594 194.675781 180.515625 194.8125 179.976562 194.976562 C 179.4375 195.140625 178.90625 195.332031 178.386719 195.546875 C 177.867188 195.761719 177.359375 196 176.863281 196.265625 C 176.367188 196.53125 175.882812 196.820312 175.414062 197.132812 C 174.945312 197.445312 174.496094 197.78125 174.058594 198.136719 C 173.625 198.496094 173.207031 198.875 172.808594 199.269531 C 172.410156 199.667969 172.035156 200.085938 171.675781 200.519531 C 171.320312 200.957031 170.984375 201.40625 170.671875 201.875 C 170.359375 202.34375 170.070312 202.828125 169.804688 203.324219 C 169.539062 203.820312 169.296875 204.328125 169.082031 204.847656 C 168.867188 205.367188 168.675781 205.898438 168.515625 206.4375 C 168.351562 206.972656 168.214844 207.519531 168.105469 208.070312 C 167.992188 208.625 167.910156 209.179688 167.855469 209.742188 C 167.800781 210.300781 167.773438 210.863281 167.773438 211.425781 Z M 167.773438 211.425781 " fill-opacity="1" fill-rule="nonzero"/></g></g><g clip-path="url(#d5b62ac06e)"><g clip-path="url(#fade371670)"><path fill="#3d0f5b" d="M 174.652344 227.75 C 174.652344 227.75 176.371094 217.449219 176.371094 217.4375 C 176.371094 218.84375 188.757812 220.875 190.113281 221.058594 C 199.703125 222.339844 212.699219 219.378906 214.199219 207.890625 C 215.925781 194.691406 205.832031 182.898438 192.269531 184.625 C 183.808594 185.699219 174.679688 191.261719 171.644531 199.464844 C 171.445312 200.207031 171.101562 200.867188 170.609375 201.453125 C 169.164062 202.863281 165.421875 202.183594 163.429688 203.886719 C 160.78125 206.15625 160.039062 209.8125 160.039062 213.148438 C 160.039062 226.042969 160.898438 227.761719 160.898438 227.761719 Z M 174.652344 227.75 " fill-opacity="1" fill-rule="nonzero"/></g></g><g clip-path="url(#1fd9ac16f8)"><g clip-path="url(#db27c03156)"><path fill="#e39eff" d="M 160.898438 229.46875 C 160.898438 229.921875 160.941406 230.367188 161.027344 230.8125 C 161.117188 231.253906 161.246094 231.683594 161.421875 232.101562 C 161.59375 232.519531 161.804688 232.914062 162.054688 233.289062 C 162.304688 233.664062 162.589844 234.011719 162.910156 234.332031 C 163.230469 234.652344 163.578125 234.9375 163.953125 235.1875 C 164.328125 235.4375 164.726562 235.648438 165.140625 235.824219 C 165.558594 235.996094 165.988281 236.125 166.433594 236.214844 C 166.875 236.300781 167.324219 236.347656 167.773438 236.347656 C 168.226562 236.347656 168.671875 236.300781 169.117188 236.214844 C 169.558594 236.125 169.988281 235.996094 170.40625 235.824219 C 170.824219 235.652344 171.21875 235.4375 171.597656 235.1875 C 171.972656 234.9375 172.320312 234.652344 172.636719 234.332031 C 172.957031 234.015625 173.242188 233.667969 173.492188 233.289062 C 173.746094 232.914062 173.957031 232.519531 174.128906 232.101562 C 174.300781 231.683594 174.433594 231.253906 174.519531 230.8125 C 174.609375 230.371094 174.652344 229.921875 174.652344 229.472656 C 174.652344 229.019531 174.609375 228.570312 174.519531 228.128906 C 174.433594 227.6875 174.300781 227.257812 174.128906 226.839844 C 173.957031 226.421875 173.746094 226.027344 173.492188 225.652344 C 173.242188 225.277344 172.957031 224.929688 172.636719 224.609375 C 172.320312 224.289062 171.972656 224.003906 171.59375 223.753906 C 171.21875 223.503906 170.824219 223.292969 170.40625 223.117188 C 169.988281 222.945312 169.558594 222.816406 169.117188 222.726562 C 168.671875 222.640625 168.226562 222.59375 167.773438 222.59375 C 167.320312 222.59375 166.875 222.640625 166.433594 222.726562 C 165.988281 222.816406 165.558594 222.945312 165.140625 223.117188 C 164.722656 223.292969 164.328125 223.503906 163.953125 223.753906 C 163.578125 224.003906 163.230469 224.289062 162.910156 224.609375 C 162.589844 224.929688 162.304688 225.277344 162.054688 225.652344 C 161.804688 226.027344 161.59375 226.421875 161.421875 226.839844 C 161.246094 227.257812 161.117188 227.6875 161.027344 228.128906 C 160.941406 228.570312 160.898438 229.019531 160.898438 229.46875 Z M 160.898438 229.46875 " fill-opacity="1" fill-rule="nonzero"/></g></g><g clip-path="url(#ae10137702)"><g clip-path="url(#fcfaba2a39)"><path fill="#2d2d2d" d="M 188.523438 251.140625 C 188.929688 251.140625 189.335938 251.117188 189.738281 251.070312 C 196.488281 250.292969 200.171875 243.914062 200.328125 243.644531 C 200.445312 243.4375 200.472656 243.21875 200.410156 242.992188 C 200.34375 242.761719 200.210938 242.589844 200.003906 242.472656 C 199.796875 242.355469 199.578125 242.328125 199.351562 242.390625 C 199.121094 242.453125 198.949219 242.589844 198.832031 242.796875 C 198.796875 242.855469 195.410156 248.6875 189.542969 249.363281 C 183.585938 250.046875 176.109375 244.320312 176.035156 244.261719 C 175.847656 244.125 175.640625 244.070312 175.410156 244.105469 C 175.179688 244.136719 174.992188 244.246094 174.851562 244.425781 C 174.707031 244.609375 174.648438 244.816406 174.675781 245.050781 C 174.699219 245.28125 174.800781 245.46875 174.980469 245.617188 C 175.285156 245.855469 182.164062 251.140625 188.523438 251.140625 Z M 188.523438 251.140625 " fill-opacity="1" fill-rule="nonzero"/></g></g><g clip-path="url(#f58c38776a)"><g clip-path="url(#6e74781c0c)"><path fill="#2d2d2d" d="M 202.160156 234.625 C 202.398438 234.625 202.597656 234.542969 202.765625 234.375 C 202.933594 234.203125 203.019531 234.003906 203.019531 233.765625 L 202.988281 216.5625 C 202.988281 216.324219 202.902344 216.121094 202.734375 215.953125 C 202.566406 215.785156 202.363281 215.703125 202.128906 215.703125 C 201.890625 215.703125 201.6875 215.789062 201.519531 215.957031 C 201.351562 216.125 201.269531 216.328125 201.269531 216.566406 L 201.300781 233.769531 C 201.300781 234.003906 201.382812 234.207031 201.550781 234.375 C 201.71875 234.542969 201.921875 234.625 202.160156 234.625 Z M 202.160156 234.625 " fill-opacity="1" fill-rule="nonzero"/></g></g><path fill="#be48e5" d="M 133.953125 187.023438 L 88.535156 187.023438 C 88.238281 187.019531 87.957031 186.964844 87.683594 186.851562 C 87.410156 186.738281 87.171875 186.578125 86.964844 186.371094 C 86.753906 186.164062 86.59375 185.921875 86.480469 185.648438 C 86.367188 185.378906 86.3125 185.09375 86.3125 184.800781 L 86.3125 139.394531 C 86.3125 139.101562 86.367188 138.820312 86.480469 138.546875 C 86.59375 138.273438 86.753906 138.035156 86.964844 137.828125 C 87.171875 137.617188 87.410156 137.457031 87.683594 137.34375 C 87.957031 137.230469 88.238281 137.175781 88.535156 137.175781 L 133.953125 137.175781 C 134.246094 137.175781 134.53125 137.230469 134.804688 137.34375 C 135.074219 137.457031 135.316406 137.617188 135.523438 137.828125 C 135.730469 138.035156 135.890625 138.273438 136.003906 138.546875 C 136.117188 138.820312 136.175781 139.101562 136.175781 139.394531 L 136.175781 184.800781 C 136.175781 185.09375 136.117188 185.378906 136.003906 185.648438 C 135.890625 185.921875 135.730469 186.164062 135.523438 186.371094 C 135.316406 186.578125 135.074219 186.738281 134.804688 186.851562 C 134.53125 186.964844 134.246094 187.019531 133.953125 187.023438 Z M 88.535156 137.664062 C 88.304688 137.664062 88.082031 137.707031 87.871094 137.796875 C 87.660156 137.882812 87.472656 138.007812 87.308594 138.171875 C 87.144531 138.332031 87.019531 138.519531 86.933594 138.734375 C 86.84375 138.945312 86.800781 139.167969 86.800781 139.394531 L 86.800781 184.800781 C 86.800781 185.03125 86.84375 185.25 86.933594 185.464844 C 87.019531 185.675781 87.148438 185.863281 87.308594 186.023438 C 87.472656 186.1875 87.660156 186.3125 87.871094 186.402344 C 88.082031 186.488281 88.304688 186.53125 88.535156 186.535156 L 133.953125 186.535156 C 134.183594 186.53125 134.402344 186.488281 134.617188 186.402344 C 134.828125 186.3125 135.015625 186.1875 135.179688 186.023438 C 135.339844 185.863281 135.464844 185.675781 135.554688 185.464844 C 135.640625 185.25 135.6875 185.03125 135.6875 184.800781 L 135.6875 139.394531 C 135.6875 139.167969 135.640625 138.945312 135.554688 138.734375 C 135.464844 138.519531 135.339844 138.332031 135.179688 138.171875 C 135.015625 138.007812 134.828125 137.882812 134.617188 137.796875 C 134.402344 137.707031 134.183594 137.664062 133.953125 137.664062 Z M 88.535156 137.664062 " fill-opacity="0.3098" fill-rule="nonzero"/><g mask="url(#0015444d25)"><g transform="matrix(1, 0, 0, 1, 103, 145)"><g clip-path="url(#940637a1c1)"><g clip-path="url(#a6ab735a39)"><path fill="#e39eff" d="M 14.179688 8.324219 C 14.179688 8.734375 14.140625 9.144531 14.0625 9.546875 C 13.980469 9.953125 13.859375 10.347656 13.703125 10.726562 C 13.546875 11.109375 13.351562 11.46875 13.121094 11.8125 C 12.894531 12.15625 12.632812 12.472656 12.339844 12.765625 C 12.050781 13.058594 11.730469 13.316406 11.386719 13.546875 C 11.046875 13.777344 10.683594 13.96875 10.300781 14.128906 C 9.921875 14.285156 9.527344 14.40625 9.125 14.484375 C 8.71875 14.566406 8.308594 14.605469 7.898438 14.605469 C 7.484375 14.605469 7.074219 14.566406 6.671875 14.484375 C 6.265625 14.40625 5.875 14.285156 5.492188 14.128906 C 5.109375 13.96875 4.75 13.777344 4.40625 13.546875 C 4.0625 13.316406 3.746094 13.058594 3.453125 12.765625 C 3.160156 12.472656 2.902344 12.15625 2.671875 11.8125 C 2.441406 11.46875 2.25 11.109375 2.089844 10.726562 C 1.933594 10.347656 1.8125 9.953125 1.734375 9.546875 C 1.652344 9.144531 1.613281 8.734375 1.613281 8.324219 C 1.613281 7.910156 1.652344 7.503906 1.734375 7.097656 C 1.8125 6.691406 1.933594 6.300781 2.089844 5.917969 C 2.25 5.539062 2.441406 5.175781 2.671875 4.832031 C 2.902344 4.488281 3.160156 4.171875 3.453125 3.878906 C 3.746094 3.589844 4.0625 3.328125 4.40625 3.097656 C 4.75 2.871094 5.109375 2.675781 5.492188 2.519531 C 5.875 2.359375 6.265625 2.242188 6.671875 2.160156 C 7.074219 2.082031 7.484375 2.039062 7.898438 2.039062 C 8.308594 2.039062 8.71875 2.082031 9.125 2.160156 C 9.527344 2.242188 9.921875 2.359375 10.300781 2.519531 C 10.683594 2.675781 11.046875 2.871094 11.386719 3.097656 C 11.730469 3.328125 12.050781 3.589844 12.339844 3.878906 C 12.632812 4.171875 12.894531 4.488281 13.121094 4.832031 C 13.351562 5.175781 13.546875 5.539062 13.703125 5.917969 C 13.859375 6.300781 13.980469 6.691406 14.0625 7.097656 C 14.140625 7.503906 14.179688 7.910156 14.179688 8.324219 Z M 14.179688 8.324219 " fill-opacity="1" fill-rule="nonzero"/></g><g clip-path="url(#ee926f6a6d)"><path fill="#e39eff" d="M 7.898438 14.851562 C 7.46875 14.851562 7.042969 14.808594 6.625 14.726562 C 6.203125 14.640625 5.792969 14.519531 5.398438 14.355469 C 5.003906 14.191406 4.625 13.988281 4.269531 13.75 C 3.914062 13.511719 3.582031 13.242188 3.28125 12.9375 C 2.976562 12.636719 2.707031 12.304688 2.46875 11.949219 C 2.230469 11.59375 2.027344 11.21875 1.863281 10.820312 C 1.699219 10.425781 1.574219 10.015625 1.492188 9.597656 C 1.410156 9.175781 1.367188 8.75 1.367188 8.324219 C 1.367188 7.894531 1.410156 7.46875 1.492188 7.050781 C 1.574219 6.628906 1.699219 6.222656 1.863281 5.824219 C 2.027344 5.429688 2.230469 5.054688 2.46875 4.695312 C 2.707031 4.339844 2.976562 4.011719 3.277344 3.707031 C 3.582031 3.40625 3.910156 3.132812 4.269531 2.894531 C 4.625 2.65625 5 2.457031 5.398438 2.292969 C 5.792969 2.128906 6.203125 2.003906 6.621094 1.921875 C 7.042969 1.835938 7.46875 1.796875 7.894531 1.796875 C 8.324219 1.796875 8.75 1.835938 9.167969 1.921875 C 9.589844 2.003906 10 2.128906 10.394531 2.292969 C 10.789062 2.457031 11.167969 2.65625 11.523438 2.894531 C 11.878906 3.132812 12.210938 3.40625 12.511719 3.707031 C 12.816406 4.011719 13.085938 4.339844 13.324219 4.695312 C 13.5625 5.054688 13.765625 5.429688 13.929688 5.824219 C 14.09375 6.222656 14.214844 6.628906 14.300781 7.050781 C 14.382812 7.46875 14.425781 7.894531 14.425781 8.324219 C 14.425781 8.75 14.382812 9.175781 14.300781 9.597656 C 14.214844 10.015625 14.089844 10.425781 13.925781 10.820312 C 13.761719 11.214844 13.5625 11.589844 13.324219 11.949219 C 13.085938 12.304688 12.8125 12.632812 12.511719 12.9375 C 12.207031 13.238281 11.878906 13.511719 11.523438 13.746094 C 11.167969 13.984375 10.789062 14.1875 10.394531 14.351562 C 10 14.515625 9.589844 14.640625 9.171875 14.722656 C 8.75 14.808594 8.324219 14.851562 7.898438 14.851562 Z M 7.898438 2.285156 C 7.5 2.285156 7.109375 2.324219 6.71875 2.398438 C 6.328125 2.476562 5.953125 2.59375 5.585938 2.742188 C 5.21875 2.894531 4.871094 3.082031 4.539062 3.300781 C 4.210938 3.523438 3.90625 3.773438 3.625 4.054688 C 3.34375 4.332031 3.09375 4.636719 2.875 4.96875 C 2.652344 5.296875 2.46875 5.644531 2.316406 6.011719 C 2.164062 6.378906 2.050781 6.757812 1.972656 7.144531 C 1.894531 7.535156 1.855469 7.925781 1.855469 8.324219 C 1.855469 8.71875 1.894531 9.113281 1.972656 9.5 C 2.046875 9.890625 2.164062 10.269531 2.316406 10.632812 C 2.46875 11 2.652344 11.347656 2.875 11.679688 C 3.09375 12.007812 3.34375 12.3125 3.625 12.59375 C 3.90625 12.875 4.210938 13.125 4.539062 13.34375 C 4.871094 13.566406 5.21875 13.75 5.585938 13.902344 C 5.949219 14.054688 6.328125 14.167969 6.71875 14.246094 C 7.105469 14.324219 7.5 14.363281 7.894531 14.363281 C 8.292969 14.363281 8.683594 14.324219 9.074219 14.246094 C 9.464844 14.167969 9.839844 14.054688 10.207031 13.902344 C 10.574219 13.75 10.921875 13.566406 11.253906 13.34375 C 11.582031 13.125 11.886719 12.875 12.167969 12.59375 C 12.449219 12.3125 12.699219 12.007812 12.917969 11.679688 C 13.140625 11.347656 13.324219 11 13.476562 10.632812 C 13.628906 10.269531 13.742188 9.890625 13.820312 9.5 C 13.898438 9.113281 13.9375 8.71875 13.9375 8.324219 C 13.9375 7.925781 13.898438 7.535156 13.820312 7.144531 C 13.742188 6.757812 13.628906 6.378906 13.476562 6.011719 C 13.324219 5.648438 13.136719 5.300781 12.917969 4.96875 C 12.695312 4.640625 12.445312 4.335938 12.164062 4.054688 C 11.886719 3.773438 11.582031 3.523438 11.25 3.304688 C 10.921875 3.085938 10.574219 2.898438 10.207031 2.746094 C 9.839844 2.59375 9.464844 2.480469 9.074219 2.402344 C 8.6875 2.324219 8.292969 2.285156 7.898438 2.285156 Z M 7.898438 2.285156 " fill-opacity="1" fill-rule="nonzero"/></g></g></g></g><g mask="url(#3dee2e7502)"><g transform="matrix(1, 0, 0, 1, 93, 160)"><g clip-path="url(#408493128e)"><g clip-path="url(#7fbc655e4b)"><path fill="#e39eff" d="M 35.449219 16.058594 L 0.886719 16.058594 C 1.0625 15.046875 1.324219 14.0625 1.671875 13.097656 C 2.019531 12.136719 2.449219 11.207031 2.960938 10.320312 C 3.472656 9.433594 4.054688 8.59375 4.714844 7.808594 C 5.371094 7.023438 6.09375 6.300781 6.875 5.640625 C 7.660156 4.980469 8.496094 4.394531 9.382812 3.882812 C 10.269531 3.367188 11.195312 2.9375 12.160156 2.585938 C 13.121094 2.234375 14.109375 1.96875 15.117188 1.792969 C 16.125 1.613281 17.144531 1.523438 18.167969 1.523438 C 19.191406 1.523438 20.210938 1.613281 21.21875 1.792969 C 22.230469 1.96875 23.214844 2.234375 24.175781 2.585938 C 25.140625 2.9375 26.066406 3.367188 26.953125 3.882812 C 27.839844 4.394531 28.675781 4.980469 29.460938 5.640625 C 30.242188 6.300781 30.964844 7.023438 31.621094 7.808594 C 32.28125 8.59375 32.863281 9.433594 33.375 10.320312 C 33.886719 11.207031 34.316406 12.136719 34.664062 13.097656 C 35.011719 14.0625 35.273438 15.046875 35.449219 16.058594 Z M 35.449219 16.058594 " fill-opacity="1" fill-rule="nonzero"/><path fill="#e39eff" d="M 35.734375 16.304688 L 0.597656 16.304688 L 0.648438 16.015625 C 0.824219 14.992188 1.085938 13.992188 1.4375 13.011719 C 1.792969 12.035156 2.226562 11.09375 2.742188 10.191406 C 3.261719 9.289062 3.851562 8.4375 4.519531 7.640625 C 5.183594 6.84375 5.914062 6.109375 6.710938 5.4375 C 7.507812 4.769531 8.355469 4.171875 9.253906 3.652344 C 10.15625 3.128906 11.09375 2.691406 12.070312 2.332031 C 13.046875 1.976562 14.046875 1.707031 15.070312 1.527344 C 16.097656 1.34375 17.128906 1.253906 18.167969 1.253906 C 19.207031 1.253906 20.242188 1.34375 21.265625 1.527344 C 22.289062 1.707031 23.289062 1.976562 24.265625 2.332031 C 25.246094 2.691406 26.183594 3.128906 27.082031 3.652344 C 27.984375 4.171875 28.832031 4.769531 29.625 5.4375 C 30.421875 6.109375 31.152344 6.84375 31.820312 7.640625 C 32.484375 8.4375 33.078125 9.289062 33.59375 10.191406 C 34.109375 11.09375 34.546875 12.035156 34.898438 13.011719 C 35.25 13.992188 35.515625 14.992188 35.691406 16.015625 Z M 1.175781 15.8125 L 35.152344 15.8125 C 34.964844 14.832031 34.695312 13.875 34.34375 12.941406 C 33.992188 12.007812 33.5625 11.109375 33.054688 10.25 C 32.546875 9.390625 31.96875 8.578125 31.320312 7.820312 C 30.671875 7.058594 29.960938 6.359375 29.191406 5.722656 C 28.421875 5.085938 27.605469 4.519531 26.738281 4.027344 C 25.867188 3.53125 24.964844 3.113281 24.023438 2.773438 C 23.085938 2.4375 22.125 2.179688 21.140625 2.007812 C 20.15625 1.839844 19.164062 1.753906 18.164062 1.753906 C 17.164062 1.753906 16.171875 1.835938 15.1875 2.007812 C 14.207031 2.179688 13.242188 2.4375 12.304688 2.773438 C 11.363281 3.113281 10.460938 3.53125 9.59375 4.027344 C 8.722656 4.519531 7.90625 5.085938 7.136719 5.722656 C 6.367188 6.359375 5.65625 7.058594 5.007812 7.820312 C 4.359375 8.578125 3.78125 9.390625 3.273438 10.25 C 2.765625 11.109375 2.335938 12.007812 1.984375 12.941406 C 1.632812 13.875 1.363281 14.832031 1.175781 15.8125 Z M 1.175781 15.8125 " fill-opacity="1" fill-rule="nonzero"/></g></g></g></g><path fill="#fdcd53" d="M 113.710938 116.039062 L 113.683594 115.398438 C 115.378906 115.324219 117.054688 115.085938 118.707031 114.679688 L 118.859375 115.304688 C 117.167969 115.722656 115.449219 115.964844 113.710938 116.039062 Z M 108.515625 115.75 C 106.792969 115.484375 105.113281 115.046875 103.480469 114.441406 L 103.699219 113.835938 C 105.292969 114.425781 106.929688 114.851562 108.609375 115.113281 Z M 123.761719 113.5625 L 123.484375 112.980469 C 125.023438 112.253906 126.472656 111.382812 127.835938 110.363281 L 128.21875 110.878906 C 126.820312 111.921875 125.335938 112.816406 123.761719 113.5625 Z M 98.804688 112.15625 C 97.324219 111.238281 95.949219 110.183594 94.679688 108.992188 L 95.121094 108.523438 C 96.359375 109.683594 97.703125 110.714844 99.148438 111.609375 Z M 132.058594 107.371094 L 131.582031 106.941406 C 132.71875 105.675781 133.71875 104.3125 134.582031 102.851562 L 135.132812 103.179688 C 134.246094 104.679688 133.222656 106.078125 132.058594 107.371094 Z M 91.253906 105.078125 C 90.242188 103.65625 89.378906 102.152344 88.667969 100.5625 L 89.253906 100.300781 C 89.949219 101.851562 90.789062 103.320312 91.777344 104.703125 Z M 112.585938 100.375 L 112.578125 100.375 C 110.769531 100.375 109.074219 99.9375 107.492188 99.0625 L 107.804688 98.5 C 109.289062 99.320312 110.878906 99.734375 112.578125 99.734375 L 112.585938 99.734375 C 113.25 99.734375 113.90625 99.667969 114.554688 99.53125 L 114.6875 100.164062 C 113.992188 100.304688 113.292969 100.375 112.585938 100.375 Z M 137.320312 98.460938 L 136.710938 98.25 C 137.265625 96.644531 137.65625 95 137.882812 93.316406 L 138.519531 93.402344 C 138.289062 95.125 137.890625 96.8125 137.320312 98.457031 Z M 119.402344 97.847656 L 118.980469 97.363281 C 120.269531 96.257812 121.210938 94.90625 121.800781 93.316406 L 122.40625 93.539062 C 121.773438 95.230469 120.773438 96.667969 119.402344 97.84375 Z M 87.03125 95.628906 C 86.652344 93.929688 86.445312 92.210938 86.40625 90.46875 L 87.050781 90.453125 C 87.085938 92.152344 87.289062 93.832031 87.660156 95.492188 Z M 103.6875 95.441406 C 102.730469 93.90625 102.207031 92.238281 102.117188 90.429688 L 102.757812 90.398438 C 102.84375 92.09375 103.335938 93.660156 104.234375 95.101562 Z M 122.304688 88.410156 C 122.046875 86.734375 121.398438 85.222656 120.359375 83.882812 L 120.867188 83.488281 C 121.976562 84.917969 122.667969 86.527344 122.941406 88.316406 Z M 138.058594 88.242188 C 137.953125 86.546875 137.675781 84.878906 137.234375 83.238281 L 137.855469 83.070312 C 138.308594 84.753906 138.589844 86.464844 138.703125 88.203125 Z M 103.753906 85.570312 L 103.175781 85.285156 C 103.972656 83.664062 105.113281 82.335938 106.597656 81.300781 L 106.964844 81.832031 C 105.570312 82.800781 104.496094 84.042969 103.746094 85.566406 Z M 87.449219 85.394531 L 86.816406 85.285156 C 87.121094 83.570312 87.59375 81.902344 88.234375 80.28125 L 88.835938 80.519531 C 88.207031 82.097656 87.742188 83.71875 87.441406 85.390625 Z M 116.460938 80.863281 C 114.898438 80.195312 113.273438 79.945312 111.585938 80.117188 L 111.523438 79.480469 C 113.320312 79.292969 115.050781 79.558594 116.714844 80.273438 Z M 135.433594 78.496094 C 134.671875 76.976562 133.769531 75.546875 132.722656 74.207031 L 133.230469 73.8125 C 134.304688 75.1875 135.230469 76.652344 136.007812 78.210938 Z M 91.15625 76.003906 L 90.617188 75.652344 C 91.566406 74.195312 92.648438 72.839844 93.867188 71.597656 L 94.328125 72.046875 C 93.140625 73.261719 92.082031 74.582031 91.15625 76.003906 Z M 129.210938 70.535156 C 127.921875 69.425781 126.535156 68.457031 125.054688 67.625 L 125.371094 67.0625 C 126.890625 67.917969 128.308594 68.914062 129.632812 70.050781 Z M 98.214844 68.789062 L 97.851562 68.257812 C 99.292969 67.277344 100.816406 66.445312 102.421875 65.769531 L 102.671875 66.363281 C 101.109375 67.023438 99.621094 67.832031 98.21875 68.785156 Z M 120.402344 65.589844 C 118.78125 65.070312 117.125 64.71875 115.4375 64.527344 L 115.507812 63.890625 C 117.238281 64.082031 118.933594 64.445312 120.59375 64.980469 Z M 107.523438 64.867188 L 107.394531 64.238281 C 109.101562 63.898438 110.828125 63.726562 112.574219 63.726562 L 112.574219 64.371094 C 110.875 64.371094 109.191406 64.535156 107.527344 64.867188 Z M 107.523438 64.867188 " fill-opacity="1" fill-rule="nonzero"/><g clip-path="url(#34e1ed5884)"><path fill="#5028af" d="M 83.414062 285.363281 L 78.265625 285.363281 L 78.265625 284.71875 L 83.414062 284.71875 C 83.679688 284.71875 83.9375 284.671875 84.191406 284.582031 C 84.441406 284.496094 84.671875 284.367188 84.878906 284.199219 C 85.085938 284.035156 85.261719 283.835938 85.402344 283.613281 C 85.542969 283.386719 85.644531 283.144531 85.703125 282.886719 L 86.332031 283.027344 C 86.257812 283.355469 86.128906 283.664062 85.949219 283.953125 C 85.765625 284.238281 85.542969 284.488281 85.28125 284.703125 C 85.015625 284.914062 84.722656 285.074219 84.402344 285.1875 C 84.082031 285.300781 83.753906 285.359375 83.414062 285.363281 Z M 73.117188 285.363281 L 67.96875 285.363281 L 67.96875 284.71875 L 73.117188 284.71875 Z M 62.820312 285.363281 L 57.671875 285.363281 L 57.671875 284.71875 L 62.820312 284.71875 Z M 52.523438 285.363281 L 47.375 285.363281 L 47.375 284.71875 L 52.523438 284.71875 Z M 44.390625 282.054688 L 43.746094 282.054688 L 43.746094 276.90625 L 44.390625 276.90625 Z M 85.5 277.863281 C 85.308594 276.171875 85.003906 274.5 84.589844 272.847656 L 85.214844 272.691406 C 85.632812 274.371094 85.945312 276.070312 86.140625 277.789062 Z M 44.390625 271.757812 L 43.746094 271.757812 L 43.746094 266.609375 L 44.390625 266.609375 Z M 83.023438 267.992188 C 82.398438 266.410156 81.667969 264.875 80.839844 263.390625 L 81.398438 263.074219 C 82.242188 264.585938 82.980469 266.148438 83.617188 267.757812 Z M 44.390625 261.464844 L 43.746094 261.464844 L 43.746094 256.320312 L 44.390625 256.320312 Z M 78.066406 259.109375 C 77.050781 257.746094 75.949219 256.449219 74.765625 255.226562 L 75.226562 254.777344 C 76.429688 256.019531 77.550781 257.335938 78.585938 258.726562 Z M 70.980469 251.800781 C 69.648438 250.742188 68.25 249.773438 66.789062 248.894531 L 67.121094 248.34375 C 68.605469 249.234375 70.027344 250.21875 71.386719 251.296875 Z M 44.390625 251.171875 L 43.746094 251.171875 L 43.746094 246.023438 L 44.390625 246.023438 Z M 62.246094 246.5625 C 60.683594 245.882812 59.082031 245.3125 57.441406 244.84375 L 57.617188 244.226562 C 59.285156 244.703125 60.914062 245.28125 62.503906 245.972656 Z M 52.453125 243.777344 C 50.769531 243.527344 49.074219 243.390625 47.371094 243.363281 L 47.378906 242.722656 C 49.113281 242.75 50.832031 242.886719 52.546875 243.136719 Z M 52.453125 243.777344 " fill-opacity="1" fill-rule="nonzero"/></g><path fill="#e39eff" d="M 286.78125 94.460938 L 281.632812 94.460938 L 281.632812 93.820312 L 286.78125 93.820312 C 287.890625 93.820312 288.914062 93.519531 289.84375 92.910156 L 290.195312 93.449219 C 289.15625 94.125 288.019531 94.464844 286.78125 94.460938 Z M 276.484375 94.460938 L 271.335938 94.460938 L 271.335938 93.820312 L 276.484375 93.820312 Z M 266.1875 94.460938 L 261.039062 94.460938 L 261.039062 93.820312 L 266.183594 93.820312 Z M 255.851562 94.414062 C 254.941406 94.300781 254.09375 94 253.316406 93.511719 C 252.535156 93.027344 251.894531 92.398438 251.394531 91.628906 L 251.933594 91.277344 C 252.382812 91.964844 252.957031 92.53125 253.65625 92.96875 C 254.355469 93.40625 255.113281 93.675781 255.933594 93.777344 Z M 292.988281 88.996094 L 292.351562 88.914062 C 292.378906 88.679688 292.394531 88.445312 292.394531 88.210938 L 292.394531 83.808594 L 293.039062 83.808594 L 293.039062 88.210938 C 293.039062 88.472656 293.023438 88.734375 292.988281 88.996094 Z M 251.023438 86.492188 L 250.382812 86.492188 L 250.382812 81.347656 L 251.023438 81.347656 Z M 293.039062 78.664062 L 292.394531 78.664062 L 292.394531 73.515625 L 293.039062 73.515625 Z M 251.023438 76.203125 L 250.382812 76.203125 L 250.382812 71.054688 L 251.023438 71.054688 Z M 293.039062 68.371094 L 292.394531 68.371094 L 292.394531 63.226562 L 293.039062 63.226562 Z M 251.023438 65.910156 L 250.382812 65.910156 L 250.382812 60.761719 L 251.023438 60.761719 Z M 292.390625 58.078125 C 292.394531 57.253906 292.222656 56.46875 291.875 55.722656 C 291.527344 54.972656 291.042969 54.332031 290.414062 53.800781 L 290.828125 53.308594 C 291.527344 53.902344 292.070312 54.617188 292.457031 55.449219 C 292.84375 56.28125 293.035156 57.15625 293.035156 58.074219 Z M 251.496094 55.816406 L 250.90625 55.558594 C 251.277344 54.714844 251.804688 53.992188 252.496094 53.382812 C 253.183594 52.777344 253.972656 52.34375 254.851562 52.082031 L 255.035156 52.699219 C 254.246094 52.933594 253.539062 53.320312 252.921875 53.863281 C 252.304688 54.410156 251.828125 55.058594 251.496094 55.8125 Z M 285.808594 52.464844 L 280.660156 52.464844 L 280.660156 51.824219 L 285.808594 51.824219 Z M 275.511719 52.464844 L 270.363281 52.464844 L 270.363281 51.824219 L 275.511719 51.824219 Z M 265.214844 52.464844 L 260.070312 52.464844 L 260.070312 51.824219 L 265.214844 51.824219 Z M 265.214844 52.464844 " fill-opacity="1" fill-rule="nonzero"/><path fill="#5028af" d="M 321.3125 281.339844 L 316.160156 281.339844 L 316.160156 280.695312 L 321.3125 280.695312 Z M 311.011719 281.339844 L 305.867188 281.339844 L 305.867188 280.695312 L 311.011719 280.695312 Z M 300.71875 281.339844 L 295.570312 281.339844 L 295.570312 280.695312 L 300.71875 280.695312 Z M 290.417969 281.339844 L 290.011719 281.339844 C 289.574219 281.34375 289.148438 281.273438 288.738281 281.128906 C 288.328125 280.984375 287.953125 280.773438 287.613281 280.5 C 287.273438 280.226562 286.988281 279.902344 286.761719 279.527344 C 286.535156 279.15625 286.378906 278.757812 286.289062 278.332031 L 286.917969 278.195312 C 286.992188 278.550781 287.121094 278.878906 287.3125 279.191406 C 287.5 279.5 287.734375 279.769531 288.015625 279.996094 C 288.296875 280.222656 288.609375 280.398438 288.949219 280.519531 C 289.292969 280.636719 289.644531 280.699219 290.007812 280.695312 L 290.410156 280.695312 Z M 326.546875 280.980469 L 326.273438 280.398438 C 326.824219 280.136719 327.265625 279.746094 327.59375 279.230469 C 327.917969 278.714844 328.082031 278.148438 328.085938 277.539062 C 328.085938 277.167969 328.019531 276.808594 327.890625 276.464844 L 328.496094 276.242188 C 328.652344 276.660156 328.726562 277.09375 328.726562 277.539062 C 328.726562 278.277344 328.527344 278.953125 328.132812 279.574219 C 327.738281 280.195312 327.210938 280.664062 326.546875 280.980469 Z M 288.425781 273.605469 L 287.847656 273.324219 L 290.113281 268.703125 L 290.691406 268.984375 Z M 325.589844 271.902344 L 323.25 267.316406 L 323.824219 267.027344 L 326.164062 271.609375 Z M 292.957031 264.359375 L 292.378906 264.074219 L 294.644531 259.453125 L 295.222656 259.734375 Z M 320.914062 262.726562 L 318.574219 258.140625 L 319.148438 257.847656 L 321.488281 262.433594 Z M 297.488281 255.117188 L 296.910156 254.835938 L 299.175781 250.214844 L 299.753906 250.496094 Z M 316.234375 253.5625 L 313.894531 248.976562 L 314.46875 248.683594 L 316.808594 253.269531 Z M 302.019531 245.875 L 301.441406 245.59375 L 303.707031 240.96875 C 303.867188 240.644531 304.066406 240.347656 304.308594 240.074219 L 304.785156 240.507812 C 304.585938 240.734375 304.417969 240.980469 304.285156 241.253906 Z M 311.554688 244.390625 L 309.933594 241.207031 C 309.714844 240.777344 309.414062 240.410156 309.027344 240.117188 L 309.417969 239.605469 C 309.878906 239.957031 310.242188 240.394531 310.503906 240.917969 L 312.128906 244.097656 Z M 311.554688 244.390625 " fill-opacity="1" fill-rule="nonzero"/></svg>