<svg xmlns="http://www.w3.org/2000/svg" xmlns:xlink="http://www.w3.org/1999/xlink" width="500" zoomAndPan="magnify" viewBox="0 0 375 374.999991" height="500" preserveAspectRatio="xMidYMid meet" version="1.0"><defs><clipPath id="1878e6af7e"><path d="M 87.292969 96 L 171 96 L 171 131 L 87.292969 131 Z M 87.292969 96 " clip-rule="nonzero"/></clipPath><clipPath id="962364f02a"><path d="M 87.292969 243 L 171 243 L 171 279 L 87.292969 279 Z M 87.292969 243 " clip-rule="nonzero"/></clipPath></defs><path fill="#ff5757" d="M 278.976562 175.191406 L 141.539062 312.726562 C 134.832031 319.433594 134.832031 330.328125 141.539062 337.039062 C 148.242188 343.746094 159.128906 343.746094 165.835938 337.039062 L 303.273438 199.503906 C 309.980469 192.796875 309.980469 181.902344 303.273438 175.191406 C 296.570312 168.484375 285.683594 168.484375 278.976562 175.191406 Z M 278.976562 175.191406 " fill-opacity="1" fill-rule="evenodd"/><path fill="#ff5757" d="M 303.273438 175.191406 L 165.835938 37.660156 C 159.128906 30.949219 148.242188 30.949219 141.539062 37.660156 C 134.832031 44.367188 134.832031 55.261719 141.539062 61.972656 L 278.976562 199.503906 C 285.683594 206.214844 296.570312 206.214844 303.273438 199.503906 C 309.980469 192.796875 309.980469 181.902344 303.273438 175.191406 Z M 303.273438 175.191406 " fill-opacity="1" fill-rule="evenodd"/><path fill="#ff5757" d="M 136.503906 261.027344 L 136.503906 324.882812 C 136.503906 334.371094 144.203125 342.074219 153.6875 342.074219 C 163.167969 342.074219 170.867188 334.371094 170.867188 324.882812 L 170.867188 261.027344 C 170.867188 251.539062 163.167969 243.835938 153.6875 243.835938 C 144.203125 243.835938 136.503906 251.539062 136.503906 261.027344 Z M 136.503906 261.027344 " fill-opacity="1" fill-rule="evenodd"/><path fill="#ff5757" d="M 136.503906 49.816406 L 136.503906 113.671875 C 136.503906 123.15625 144.203125 130.863281 153.6875 130.863281 C 163.167969 130.863281 170.867188 123.15625 170.867188 113.671875 L 170.867188 49.816406 C 170.867188 40.328125 163.167969 32.625 153.6875 32.625 C 144.203125 32.625 136.503906 40.328125 136.503906 49.816406 Z M 136.503906 49.816406 " fill-opacity="1" fill-rule="evenodd"/><g clip-path="url(#1878e6af7e)"><path fill="#ff5757" d="M 153.6875 96.476562 L 104.597656 96.476562 C 95.117188 96.476562 87.417969 104.183594 87.417969 113.671875 C 87.417969 123.15625 95.117188 130.863281 104.597656 130.863281 L 153.6875 130.863281 C 163.167969 130.863281 170.867188 123.15625 170.867188 113.671875 C 170.867188 104.183594 163.167969 96.476562 153.6875 96.476562 Z M 153.6875 96.476562 " fill-opacity="1" fill-rule="evenodd"/></g><g clip-path="url(#962364f02a)"><path fill="#ff5757" d="M 153.6875 243.835938 L 104.597656 243.835938 C 95.117188 243.835938 87.417969 251.539062 87.417969 261.027344 C 87.417969 270.515625 95.117188 278.21875 104.597656 278.21875 L 153.6875 278.21875 C 163.167969 278.21875 170.867188 270.515625 170.867188 261.027344 C 170.867188 251.539062 163.167969 243.835938 153.6875 243.835938 Z M 153.6875 243.835938 " fill-opacity="1" fill-rule="evenodd"/></g></svg>