<svg xmlns="http://www.w3.org/2000/svg" xmlns:xlink="http://www.w3.org/1999/xlink" width="1920" zoomAndPan="magnify" viewBox="0 0 1440 809.999993" height="1080" preserveAspectRatio="xMidYMid meet" version="1.0"><defs><clipPath id="ac9c315688"><path d="M 538.945312 223.945312 L 901.195312 223.945312 L 901.195312 586.195312 L 538.945312 586.195312 Z M 538.945312 223.945312 " clip-rule="nonzero"/></clipPath></defs><rect x="-144" width="1728" fill="#ffffff" y="-80.999999" height="971.999992" fill-opacity="1"/><rect x="-144" width="1728" fill="#ffffff" y="-80.999999" height="971.999992" fill-opacity="1"/><rect x="-144" width="1728" fill="#1d1134" y="-80.999999" height="971.999992" fill-opacity="1"/><g clip-path="url(#ac9c315688)"><path fill="#ffffff" d="M 720.070312 551.878906 C 639.21875 551.878906 573.257812 486.273438 573.257812 405.070312 C 573.257812 323.867188 639.21875 258.257812 720.070312 258.257812 C 800.917969 258.257812 866.878906 324.21875 866.878906 405.070312 C 866.878906 485.917969 800.917969 551.878906 720.070312 551.878906 Z M 720.070312 223.945312 C 620.148438 223.945312 538.945312 305.148438 538.945312 405.070312 C 538.945312 504.992188 620.148438 586.195312 720.070312 586.195312 C 819.988281 586.195312 901.195312 504.992188 901.195312 405.070312 C 901.195312 305.148438 819.988281 223.945312 720.070312 223.945312 " fill-opacity="1" fill-rule="nonzero"/></g><path fill="#ffffff" d="M 720.070312 426.808594 C 707.878906 426.808594 698.328125 416.871094 698.328125 405.070312 C 698.328125 392.878906 708.265625 383.328125 720.070312 383.328125 C 732.257812 383.328125 741.808594 393.265625 741.808594 405.070312 C 741.808594 417.257812 732.257812 426.808594 720.070312 426.808594 Z M 778.792969 323.09375 L 685.367188 360.464844 C 680.800781 362.359375 677.359375 365.800781 675.464844 370.367188 L 638.09375 463.792969 C 632.367188 478.296875 646.839844 492.769531 661.34375 487.046875 L 754.769531 449.675781 C 759.335938 447.777344 762.777344 444.335938 764.675781 439.769531 L 802.046875 346.34375 C 807.769531 331.839844 793.296875 317.367188 778.792969 323.09375 " fill-opacity="1" fill-rule="nonzero"/></svg>